%TF.GenerationSoftware,KiCad,Pcbnew,8.0.1*%
%TF.CreationDate,2024-05-26T13:05:02+02:00*%
%TF.ProjectId,24Ghz_RADAR,32344768-7a5f-4524-9144-41522e6b6963,2.0*%
%TF.SameCoordinates,Original*%
%TF.FileFunction,Legend,Bot*%
%TF.FilePolarity,Positive*%
%FSLAX46Y46*%
G04 Gerber Fmt 4.6, Leading zero omitted, Abs format (unit mm)*
G04 Created by KiCad (PCBNEW 8.0.1) date 2024-05-26 13:05:02*
%MOMM*%
%LPD*%
G01*
G04 APERTURE LIST*
%ADD10C,0.120000*%
G04 APERTURE END LIST*
D10*
%TO.C,J1*%
X126610000Y-96130000D02*
X127940000Y-96130000D01*
X126610000Y-97460000D02*
X126610000Y-96130000D01*
X129210000Y-98790000D02*
X129210000Y-96130000D01*
X147050000Y-96130000D02*
X129210000Y-96130000D01*
X147050000Y-98790000D02*
X129210000Y-98790000D01*
X147050000Y-98790000D02*
X147050000Y-96130000D01*
%TO.C,J3*%
X149470000Y-96130000D02*
X150800000Y-96130000D01*
X149470000Y-97460000D02*
X149470000Y-96130000D01*
X152070000Y-98790000D02*
X152070000Y-96130000D01*
X164830000Y-96130000D02*
X152070000Y-96130000D01*
X164830000Y-98790000D02*
X152070000Y-98790000D01*
X164830000Y-98790000D02*
X164830000Y-96130000D01*
%TO.C,J2*%
X117466000Y-47870000D02*
X118796000Y-47870000D01*
X117466000Y-49200000D02*
X117466000Y-47870000D01*
X120066000Y-50530000D02*
X120066000Y-47870000D01*
X142986000Y-47870000D02*
X120066000Y-47870000D01*
X142986000Y-50530000D02*
X120066000Y-50530000D01*
X142986000Y-50530000D02*
X142986000Y-47870000D01*
%TO.C,J4*%
X144390000Y-47870000D02*
X145720000Y-47870000D01*
X144390000Y-49200000D02*
X144390000Y-47870000D01*
X146990000Y-50530000D02*
X146990000Y-47870000D01*
X164830000Y-47870000D02*
X146990000Y-47870000D01*
X164830000Y-50530000D02*
X146990000Y-50530000D01*
X164830000Y-50530000D02*
X164830000Y-47870000D01*
%TD*%
M02*
