M48
; DRILL file {KiCad 8.0.1} date 2024-05-26T13:06:24+0200
; FORMAT={-:-/ absolute / inch / decimal}
; #@! TF.CreationDate,2024-05-26T13:06:24+02:00
; #@! TF.GenerationSoftware,Kicad,Pcbnew,8.0.1
; #@! TF.FileFunction,Plated,1,4,PTH
FMAT,2
INCH
; #@! TA.AperFunction,Plated,PTH,ComponentDrill
T1C0.0315
; #@! TA.AperFunction,Plated,PTH,ComponentDrill
T2C0.0354
; #@! TA.AperFunction,Plated,PTH,ComponentDrill
T3C0.0394
; #@! TA.AperFunction,Plated,PTH,ComponentDrill
T4C0.0433
%
G90
G05
T1
X4.0126Y-3.5039
X4.3343Y-3.0571
X4.3346Y-2.8976
X4.4126Y-3.5039
X4.5472Y-3.6614
X4.5472Y-3.8583
X4.6693Y-3.3896
X4.6693Y-3.4683
X4.7244Y-2.2016
X4.7244Y-2.6016
X4.7343Y-3.0571
X4.7346Y-2.8976
X4.9815Y-2.687
X4.9815Y-2.987
X5.0815Y-2.687
X5.0815Y-2.987
X5.1815Y-2.687
X5.1815Y-2.987
X5.1921Y-3.3465
X5.1921Y-3.6465
X5.2815Y-2.687
X5.2815Y-2.987
X5.2921Y-3.3465
X5.2921Y-3.6465
X5.3512Y-2.4803
X5.3543Y-3.1102
X5.3543Y-3.2087
X5.3921Y-3.3465
X5.3921Y-3.6465
X5.4921Y-3.3465
X5.4921Y-3.6465
X5.5276Y-2.6358
X5.5276Y-3.0358
X5.6614Y-3.2402
X5.6673Y-3.6043
X5.7512Y-2.4803
X5.8287Y-2.8878
X5.8287Y-3.0846
X5.9055Y-2.0835
X5.9055Y-2.4835
X5.9311Y-2.6201
X5.9311Y-2.7185
X6.0614Y-3.2402
X6.0673Y-3.6043
X6.0748Y-2.0843
X6.0748Y-2.4843
X6.1949Y-3.2224
X6.1949Y-3.6224
X6.2402Y-2.0835
X6.2402Y-2.4835
X6.4331Y-3.1713
X6.4331Y-3.3681
T2
X4.1037Y-3.7598
X4.2037Y-3.7598
X4.9892Y-2.2244
X5.0892Y-2.2244
X5.3041Y-2.2244
X5.4041Y-2.2244
X5.5994Y-2.2244
X5.6994Y-2.2244
T3
X4.0551Y-2.6772
X4.0551Y-2.8937
X4.0551Y-3.0925
X4.2126Y-3.2874
X4.3858Y-3.2874
X4.677Y-1.937
X4.777Y-1.937
X4.8622Y-3.8386
X4.877Y-1.937
X4.9646Y-3.3366
X4.9646Y-3.5591
X4.977Y-1.937
X4.9803Y-2.4921
X5.037Y-3.837
X5.077Y-1.937
X5.0984Y-3.1496
X5.137Y-3.837
X5.177Y-1.937
X5.1969Y-2.4929
X5.237Y-3.837
X5.277Y-1.937
X5.337Y-3.837
X5.377Y-1.937
X5.437Y-3.837
X5.477Y-1.937
X5.537Y-3.837
X5.577Y-1.937
X5.637Y-3.837
X5.737Y-1.937
X5.737Y-3.837
X5.837Y-1.937
X5.937Y-1.937
X5.937Y-3.837
X6.037Y-1.937
X6.037Y-3.837
X6.137Y-1.937
X6.137Y-3.837
X6.2244Y-2.6346
X6.2244Y-2.7346
X6.2244Y-2.8346
X6.237Y-1.937
X6.237Y-3.837
X6.337Y-1.937
X6.337Y-3.837
X6.437Y-1.937
X6.437Y-2.1654
X6.437Y-2.3425
X6.437Y-3.837
X6.5197Y-3.6378
T4
X4.2815Y-2.2933
X4.2815Y-2.4705
X4.5374Y-2.2933
X4.5374Y-2.4705
M30
