%TF.GenerationSoftware,KiCad,Pcbnew,8.0.1*%
%TF.CreationDate,2024-05-26T13:05:02+02:00*%
%TF.ProjectId,24Ghz_RADAR,32344768-7a5f-4524-9144-41522e6b6963,2.0*%
%TF.SameCoordinates,Original*%
%TF.FileFunction,Copper,L4,Bot*%
%TF.FilePolarity,Positive*%
%FSLAX46Y46*%
G04 Gerber Fmt 4.6, Leading zero omitted, Abs format (unit mm)*
G04 Created by KiCad (PCBNEW 8.0.1) date 2024-05-26 13:05:02*
%MOMM*%
%LPD*%
G01*
G04 APERTURE LIST*
%TA.AperFunction,ComponentPad*%
%ADD10R,1.700000X1.700000*%
%TD*%
%TA.AperFunction,ComponentPad*%
%ADD11C,1.600000*%
%TD*%
%TA.AperFunction,ComponentPad*%
%ADD12O,1.600000X1.600000*%
%TD*%
%TA.AperFunction,ComponentPad*%
%ADD13C,2.000000*%
%TD*%
%TA.AperFunction,ComponentPad*%
%ADD14R,1.800000X1.800000*%
%TD*%
%TA.AperFunction,ComponentPad*%
%ADD15C,1.800000*%
%TD*%
%TA.AperFunction,ComponentPad*%
%ADD16R,1.600000X1.600000*%
%TD*%
%TA.AperFunction,ComponentPad*%
%ADD17O,1.700000X1.700000*%
%TD*%
G04 APERTURE END LIST*
D10*
%TO.P,J10,1,Pin_1*%
%TO.N,Vout*%
X165600000Y-92400000D03*
%TD*%
%TO.P,J8,1,Pin_1*%
%TO.N,Net-(J8-Pin_1)*%
X126100000Y-84750000D03*
%TD*%
D11*
%TO.P,R6,1*%
%TO.N,+5V*%
X110100000Y-73600000D03*
D12*
%TO.P,R6,2*%
%TO.N,/VD_I*%
X120260000Y-73600000D03*
%TD*%
D13*
%TO.P,SW1,1,1*%
%TO.N,SW_PUSH*%
X108750000Y-58250000D03*
X115250000Y-58250000D03*
%TO.P,SW1,2,2*%
%TO.N,GND*%
X108750000Y-62750000D03*
X115250000Y-62750000D03*
%TD*%
D11*
%TO.P,R5,1*%
%TO.N,Net-(J9-Pin_1)*%
X143950000Y-91550000D03*
D12*
%TO.P,R5,2*%
%TO.N,Vout*%
X154110000Y-91550000D03*
%TD*%
D14*
%TO.P,LED2,1,K*%
%TO.N,GND*%
X134725000Y-56500000D03*
D15*
%TO.P,LED2,2,A*%
%TO.N,Net-(LED2-A)*%
X137265000Y-56500000D03*
%TD*%
D16*
%TO.P,U2,1,NC*%
%TO.N,unconnected-(U2-NC-Pad1)*%
X139500000Y-85000000D03*
D12*
%TO.P,U2,2,-*%
%TO.N,Net-(J8-Pin_1)*%
X136960000Y-85000000D03*
%TO.P,U2,3,+*%
%TO.N,/VD_I*%
X134420000Y-85000000D03*
%TO.P,U2,4,V-*%
%TO.N,GND*%
X131880000Y-85000000D03*
%TO.P,U2,5,NC*%
%TO.N,unconnected-(U2-NC-Pad5)*%
X131880000Y-92620000D03*
%TO.P,U2,6*%
%TO.N,Net-(J9-Pin_1)*%
X134420000Y-92620000D03*
%TO.P,U2,7,V+*%
%TO.N,+5V*%
X136960000Y-92620000D03*
%TO.P,U2,8,NC*%
%TO.N,unconnected-(U2-NC-Pad8)*%
X139500000Y-92620000D03*
%TD*%
D10*
%TO.P,J11,1,Pin_1*%
%TO.N,/VD_I*%
X111400000Y-83500000D03*
%TD*%
D16*
%TO.P,C4,1*%
%TO.N,Net-(J7-Pin_1)*%
X136000000Y-79000000D03*
D11*
%TO.P,C4,2*%
%TO.N,Net-(C4-Pad2)*%
X136000000Y-81500000D03*
%TD*%
%TO.P,R4,1*%
%TO.N,Net-(J8-Pin_1)*%
X157350000Y-81850000D03*
D12*
%TO.P,R4,2*%
%TO.N,Net-(J9-Pin_1)*%
X157350000Y-92010000D03*
%TD*%
D11*
%TO.P,R8,1*%
%TO.N,Net-(LED1-A)*%
X158500000Y-63080000D03*
D12*
%TO.P,R8,2*%
%TO.N,LED_GREEN*%
X158500000Y-52920000D03*
%TD*%
D10*
%TO.P,J17,1,Pin_1*%
%TO.N,GND*%
X158100000Y-72000000D03*
D17*
%TO.P,J17,2,Pin_2*%
%TO.N,Vin*%
X158100000Y-69460000D03*
%TO.P,J17,3,Pin_3*%
%TO.N,+5V*%
X158100000Y-66920000D03*
%TD*%
D10*
%TO.P,J19,1,Pin_1*%
%TO.N,GND*%
X126500000Y-63300000D03*
%TD*%
D16*
%TO.P,C6,1*%
%TO.N,/VD_I*%
X118600000Y-86094888D03*
D11*
%TO.P,C6,2*%
%TO.N,GND*%
X118600000Y-88094888D03*
%TD*%
D10*
%TO.P,J6,1,Pin_1*%
%TO.N,Net-(J6-Pin_1)*%
X132000000Y-63320000D03*
%TD*%
D11*
%TO.P,R10,1*%
%TO.N,Net-(LED3-A)*%
X150000000Y-63080000D03*
D12*
%TO.P,R10,2*%
%TO.N,LED_RED*%
X150000000Y-52920000D03*
%TD*%
D10*
%TO.P,J13,1,Pin_1*%
%TO.N,+5V*%
X103000000Y-73500000D03*
%TD*%
%TO.P,J18,1,Pin_1*%
%TO.N,GND*%
X163500000Y-55000000D03*
%TD*%
D14*
%TO.P,LED3,1,K*%
%TO.N,GND*%
X126725000Y-56500000D03*
D15*
%TO.P,LED3,2,A*%
%TO.N,Net-(LED3-A)*%
X129265000Y-56500000D03*
%TD*%
D11*
%TO.P,C3,1*%
%TO.N,GND*%
X115500000Y-98000000D03*
%TO.P,C3,2*%
%TO.N,/VD_I*%
X115500000Y-93000000D03*
%TD*%
D10*
%TO.P,J15,1,Pin_1*%
%TO.N,GND*%
X103000000Y-78550000D03*
%TD*%
%TO.P,J20,1,Pin_1*%
%TO.N,GND*%
X107000000Y-83500000D03*
%TD*%
D11*
%TO.P,R7,1*%
%TO.N,/VD_I*%
X120250000Y-77650000D03*
D12*
%TO.P,R7,2*%
%TO.N,GND*%
X110090000Y-77650000D03*
%TD*%
D14*
%TO.P,LED4,1,K*%
%TO.N,GND*%
X106775000Y-95500000D03*
D15*
%TO.P,LED4,2,A*%
%TO.N,Net-(LED4-A)*%
X104235000Y-95500000D03*
%TD*%
D11*
%TO.P,R2,1*%
%TO.N,Net-(J6-Pin_1)*%
X140400000Y-66950000D03*
D12*
%TO.P,R2,2*%
%TO.N,Net-(J7-Pin_1)*%
X140400000Y-77110000D03*
%TD*%
D11*
%TO.P,R12,1*%
%TO.N,SW_PUSH*%
X120000000Y-55920000D03*
D12*
%TO.P,R12,2*%
%TO.N,+5V*%
X120000000Y-66080000D03*
%TD*%
D10*
%TO.P,J5,1,Pin_1*%
%TO.N,Vin*%
X163500000Y-59500000D03*
%TD*%
%TO.P,J7,1,Pin_1*%
%TO.N,Net-(J7-Pin_1)*%
X129500000Y-80000000D03*
%TD*%
D11*
%TO.P,R1,1*%
%TO.N,Net-(C1-Pad2)*%
X146080000Y-63000000D03*
D12*
%TO.P,R1,2*%
%TO.N,Net-(J6-Pin_1)*%
X135920000Y-63000000D03*
%TD*%
D11*
%TO.P,R3,1*%
%TO.N,Net-(C4-Pad2)*%
X143800000Y-82300000D03*
D12*
%TO.P,R3,2*%
%TO.N,Net-(J8-Pin_1)*%
X153960000Y-82300000D03*
%TD*%
D10*
%TO.P,J12,1,Pin_1*%
%TO.N,GND*%
X123500000Y-97500000D03*
%TD*%
D11*
%TO.P,R11,1*%
%TO.N,Net-(LED4-A)*%
X101920000Y-89000000D03*
D12*
%TO.P,R11,2*%
%TO.N,+5V*%
X112080000Y-89000000D03*
%TD*%
D10*
%TO.P,J14,1,Pin_1*%
%TO.N,+5V*%
X103000000Y-68000000D03*
%TD*%
D16*
%TO.P,U1,1,NC*%
%TO.N,unconnected-(U1-NC-Pad1)*%
X134150000Y-68250000D03*
D12*
%TO.P,U1,2,-*%
%TO.N,Net-(J6-Pin_1)*%
X131610000Y-68250000D03*
%TO.P,U1,3,+*%
%TO.N,/VD_I*%
X129070000Y-68250000D03*
%TO.P,U1,4,V-*%
%TO.N,GND*%
X126530000Y-68250000D03*
%TO.P,U1,5,NC*%
%TO.N,unconnected-(U1-NC-Pad5)*%
X126530000Y-75870000D03*
%TO.P,U1,6*%
%TO.N,Net-(J7-Pin_1)*%
X129070000Y-75870000D03*
%TO.P,U1,7,V+*%
%TO.N,+5V*%
X131610000Y-75870000D03*
%TO.P,U1,8,NC*%
%TO.N,unconnected-(U1-NC-Pad8)*%
X134150000Y-75870000D03*
%TD*%
D14*
%TO.P,LED1,1,K*%
%TO.N,GND*%
X142225000Y-56500000D03*
D15*
%TO.P,LED1,2,A*%
%TO.N,Net-(LED1-A)*%
X144765000Y-56500000D03*
%TD*%
D10*
%TO.P,J9,1,Pin_1*%
%TO.N,Net-(J9-Pin_1)*%
X126100000Y-90400000D03*
%TD*%
D11*
%TO.P,C2,1*%
%TO.N,Net-(J6-Pin_1)*%
X148050000Y-73350000D03*
%TO.P,C2,2*%
%TO.N,Net-(J7-Pin_1)*%
X148050000Y-78350000D03*
%TD*%
D16*
%TO.P,C1,1*%
%TO.N,Vin*%
X150650000Y-69050000D03*
D11*
%TO.P,C1,2*%
%TO.N,Net-(C1-Pad2)*%
X150650000Y-66550000D03*
%TD*%
%TO.P,C5,1*%
%TO.N,Net-(J8-Pin_1)*%
X163400000Y-80550000D03*
%TO.P,C5,2*%
%TO.N,Net-(J9-Pin_1)*%
X163400000Y-85550000D03*
%TD*%
%TO.P,R9,1*%
%TO.N,Net-(LED2-A)*%
X154300000Y-63100000D03*
D12*
%TO.P,R9,2*%
%TO.N,LED_ORANGE*%
X154300000Y-52940000D03*
%TD*%
D10*
%TO.P,J1,1,Pin_1*%
%TO.N,unconnected-(J1-Pin_1-Pad1)*%
X127940000Y-97460000D03*
D17*
%TO.P,J1,2,Pin_2*%
%TO.N,unconnected-(J1-Pin_2-Pad2)*%
X130480000Y-97460000D03*
%TO.P,J1,3,Pin_3*%
%TO.N,unconnected-(J1-Pin_3-Pad3)*%
X133020000Y-97460000D03*
%TO.P,J1,4,Pin_4*%
%TO.N,unconnected-(J1-Pin_4-Pad4)*%
X135560000Y-97460000D03*
%TO.P,J1,5,Pin_5*%
%TO.N,+5V*%
X138100000Y-97460000D03*
%TO.P,J1,6,Pin_6*%
%TO.N,GND*%
X140640000Y-97460000D03*
%TO.P,J1,7,Pin_7*%
X143180000Y-97460000D03*
%TO.P,J1,8,Pin_8*%
%TO.N,unconnected-(J1-Pin_8-Pad8)*%
X145720000Y-97460000D03*
%TD*%
D10*
%TO.P,J3,1,Pin_1*%
%TO.N,Vout*%
X150800000Y-97460000D03*
D17*
%TO.P,J3,2,Pin_2*%
%TO.N,unconnected-(J3-Pin_2-Pad2)*%
X153340000Y-97460000D03*
%TO.P,J3,3,Pin_3*%
%TO.N,unconnected-(J3-Pin_3-Pad3)*%
X155880000Y-97460000D03*
%TO.P,J3,4,Pin_4*%
%TO.N,unconnected-(J3-Pin_4-Pad4)*%
X158420000Y-97460000D03*
%TO.P,J3,5,Pin_5*%
%TO.N,unconnected-(J3-Pin_5-Pad5)*%
X160960000Y-97460000D03*
%TO.P,J3,6,Pin_6*%
%TO.N,unconnected-(J3-Pin_6-Pad6)*%
X163500000Y-97460000D03*
%TD*%
D10*
%TO.P,J2,1,Pin_1*%
%TO.N,unconnected-(J2-Pin_1-Pad1)*%
X118796000Y-49200000D03*
D17*
%TO.P,J2,2,Pin_2*%
%TO.N,unconnected-(J2-Pin_2-Pad2)*%
X121336000Y-49200000D03*
%TO.P,J2,3,Pin_3*%
%TO.N,unconnected-(J2-Pin_3-Pad3)*%
X123876000Y-49200000D03*
%TO.P,J2,4,Pin_4*%
%TO.N,GND*%
X126416000Y-49200000D03*
%TO.P,J2,5,Pin_5*%
%TO.N,unconnected-(J2-Pin_5-Pad5)*%
X128956000Y-49200000D03*
%TO.P,J2,6,Pin_6*%
%TO.N,unconnected-(J2-Pin_6-Pad6)*%
X131496000Y-49200000D03*
%TO.P,J2,7,Pin_7*%
%TO.N,unconnected-(J2-Pin_7-Pad7)*%
X134036000Y-49200000D03*
%TO.P,J2,8,Pin_8*%
%TO.N,unconnected-(J2-Pin_8-Pad8)*%
X136576000Y-49200000D03*
%TO.P,J2,9,Pin_9*%
%TO.N,unconnected-(J2-Pin_9-Pad9)*%
X139116000Y-49200000D03*
%TO.P,J2,10,Pin_10*%
%TO.N,unconnected-(J2-Pin_10-Pad10)*%
X141656000Y-49200000D03*
%TD*%
D10*
%TO.P,J4,1,Pin_1*%
%TO.N,SW_PUSH*%
X145720000Y-49200000D03*
D17*
%TO.P,J4,2,Pin_2*%
%TO.N,LED_RED*%
X148260000Y-49200000D03*
%TO.P,J4,3,Pin_3*%
%TO.N,LED_ORANGE*%
X150800000Y-49200000D03*
%TO.P,J4,4,Pin_4*%
%TO.N,LED_GREEN*%
X153340000Y-49200000D03*
%TO.P,J4,5,Pin_5*%
%TO.N,unconnected-(J4-Pin_5-Pad5)*%
X155880000Y-49200000D03*
%TO.P,J4,6,Pin_6*%
%TO.N,unconnected-(J4-Pin_6-Pad6)*%
X158420000Y-49200000D03*
%TO.P,J4,7,Pin_7*%
%TO.N,unconnected-(J4-Pin_7-Pad7)*%
X160960000Y-49200000D03*
%TO.P,J4,8,Pin_8*%
%TO.N,unconnected-(J4-Pin_8-Pad8)*%
X163500000Y-49200000D03*
%TD*%
%TA.AperFunction,Conductor*%
%TO.N,GND*%
G36*
X142714075Y-97267007D02*
G01*
X142680000Y-97394174D01*
X142680000Y-97525826D01*
X142714075Y-97652993D01*
X142746988Y-97710000D01*
X141073012Y-97710000D01*
X141105925Y-97652993D01*
X141140000Y-97525826D01*
X141140000Y-97394174D01*
X141105925Y-97267007D01*
X141073012Y-97210000D01*
X142746988Y-97210000D01*
X142714075Y-97267007D01*
G37*
%TD.AperFunction*%
%TA.AperFunction,Conductor*%
G36*
X163308363Y-47180185D02*
G01*
X163329005Y-47196819D01*
X163772315Y-47640129D01*
X163805800Y-47701452D01*
X163800816Y-47771144D01*
X163758944Y-47827077D01*
X163693480Y-47851494D01*
X163664226Y-47850119D01*
X163612570Y-47841500D01*
X163612569Y-47841500D01*
X163387431Y-47841500D01*
X163165362Y-47878556D01*
X162952430Y-47951656D01*
X162952419Y-47951661D01*
X162754427Y-48058808D01*
X162754422Y-48058812D01*
X162576761Y-48197092D01*
X162576756Y-48197097D01*
X162424284Y-48362723D01*
X162424276Y-48362734D01*
X162333808Y-48501206D01*
X162280662Y-48546562D01*
X162211431Y-48555986D01*
X162148095Y-48526484D01*
X162126192Y-48501206D01*
X162035723Y-48362734D01*
X162035715Y-48362723D01*
X161883243Y-48197097D01*
X161883238Y-48197092D01*
X161705577Y-48058812D01*
X161705572Y-48058808D01*
X161507580Y-47951661D01*
X161507577Y-47951659D01*
X161507574Y-47951658D01*
X161507571Y-47951657D01*
X161507569Y-47951656D01*
X161294637Y-47878556D01*
X161072569Y-47841500D01*
X160847431Y-47841500D01*
X160625362Y-47878556D01*
X160412430Y-47951656D01*
X160412419Y-47951661D01*
X160214427Y-48058808D01*
X160214422Y-48058812D01*
X160036761Y-48197092D01*
X160036756Y-48197097D01*
X159884284Y-48362723D01*
X159884276Y-48362734D01*
X159793808Y-48501206D01*
X159740662Y-48546562D01*
X159671431Y-48555986D01*
X159608095Y-48526484D01*
X159586192Y-48501206D01*
X159495723Y-48362734D01*
X159495715Y-48362723D01*
X159343243Y-48197097D01*
X159343238Y-48197092D01*
X159165577Y-48058812D01*
X159165572Y-48058808D01*
X158967580Y-47951661D01*
X158967577Y-47951659D01*
X158967574Y-47951658D01*
X158967571Y-47951657D01*
X158967569Y-47951656D01*
X158754637Y-47878556D01*
X158532569Y-47841500D01*
X158307431Y-47841500D01*
X158085362Y-47878556D01*
X157872430Y-47951656D01*
X157872419Y-47951661D01*
X157674427Y-48058808D01*
X157674422Y-48058812D01*
X157496761Y-48197092D01*
X157496756Y-48197097D01*
X157344284Y-48362723D01*
X157344276Y-48362734D01*
X157253808Y-48501206D01*
X157200662Y-48546562D01*
X157131431Y-48555986D01*
X157068095Y-48526484D01*
X157046192Y-48501206D01*
X156955723Y-48362734D01*
X156955715Y-48362723D01*
X156803243Y-48197097D01*
X156803238Y-48197092D01*
X156625577Y-48058812D01*
X156625572Y-48058808D01*
X156427580Y-47951661D01*
X156427577Y-47951659D01*
X156427574Y-47951658D01*
X156427571Y-47951657D01*
X156427569Y-47951656D01*
X156214637Y-47878556D01*
X155992569Y-47841500D01*
X155767431Y-47841500D01*
X155545362Y-47878556D01*
X155332430Y-47951656D01*
X155332419Y-47951661D01*
X155134427Y-48058808D01*
X155134422Y-48058812D01*
X154956761Y-48197092D01*
X154956756Y-48197097D01*
X154804284Y-48362723D01*
X154804276Y-48362734D01*
X154713808Y-48501206D01*
X154660662Y-48546562D01*
X154591431Y-48555986D01*
X154528095Y-48526484D01*
X154506192Y-48501206D01*
X154415723Y-48362734D01*
X154415715Y-48362723D01*
X154263243Y-48197097D01*
X154263238Y-48197092D01*
X154085577Y-48058812D01*
X154085572Y-48058808D01*
X153887580Y-47951661D01*
X153887577Y-47951659D01*
X153887574Y-47951658D01*
X153887571Y-47951657D01*
X153887569Y-47951656D01*
X153674637Y-47878556D01*
X153452569Y-47841500D01*
X153227431Y-47841500D01*
X153005362Y-47878556D01*
X152792430Y-47951656D01*
X152792419Y-47951661D01*
X152594427Y-48058808D01*
X152594422Y-48058812D01*
X152416761Y-48197092D01*
X152416756Y-48197097D01*
X152264284Y-48362723D01*
X152264276Y-48362734D01*
X152173808Y-48501206D01*
X152120662Y-48546562D01*
X152051431Y-48555986D01*
X151988095Y-48526484D01*
X151966192Y-48501206D01*
X151875723Y-48362734D01*
X151875715Y-48362723D01*
X151723243Y-48197097D01*
X151723238Y-48197092D01*
X151545577Y-48058812D01*
X151545572Y-48058808D01*
X151347580Y-47951661D01*
X151347577Y-47951659D01*
X151347574Y-47951658D01*
X151347571Y-47951657D01*
X151347569Y-47951656D01*
X151134637Y-47878556D01*
X150912569Y-47841500D01*
X150687431Y-47841500D01*
X150465362Y-47878556D01*
X150252430Y-47951656D01*
X150252419Y-47951661D01*
X150054427Y-48058808D01*
X150054422Y-48058812D01*
X149876761Y-48197092D01*
X149876756Y-48197097D01*
X149724284Y-48362723D01*
X149724276Y-48362734D01*
X149633808Y-48501206D01*
X149580662Y-48546562D01*
X149511431Y-48555986D01*
X149448095Y-48526484D01*
X149426192Y-48501206D01*
X149335723Y-48362734D01*
X149335715Y-48362723D01*
X149183243Y-48197097D01*
X149183238Y-48197092D01*
X149005577Y-48058812D01*
X149005572Y-48058808D01*
X148807580Y-47951661D01*
X148807577Y-47951659D01*
X148807574Y-47951658D01*
X148807571Y-47951657D01*
X148807569Y-47951656D01*
X148594637Y-47878556D01*
X148372569Y-47841500D01*
X148147431Y-47841500D01*
X147925362Y-47878556D01*
X147712430Y-47951656D01*
X147712419Y-47951661D01*
X147514427Y-48058808D01*
X147514422Y-48058812D01*
X147336761Y-48197092D01*
X147273548Y-48265760D01*
X147213661Y-48301750D01*
X147143823Y-48299649D01*
X147086207Y-48260124D01*
X147066138Y-48225110D01*
X147020889Y-48103796D01*
X146987214Y-48058812D01*
X146933261Y-47986739D01*
X146816204Y-47899111D01*
X146679203Y-47848011D01*
X146618654Y-47841500D01*
X146618638Y-47841500D01*
X144821362Y-47841500D01*
X144821345Y-47841500D01*
X144760797Y-47848011D01*
X144760795Y-47848011D01*
X144623795Y-47899111D01*
X144506739Y-47986739D01*
X144419111Y-48103795D01*
X144368011Y-48240795D01*
X144368011Y-48240797D01*
X144361500Y-48301345D01*
X144361500Y-50098654D01*
X144368011Y-50159202D01*
X144368011Y-50159204D01*
X144419111Y-50296204D01*
X144506739Y-50413261D01*
X144623796Y-50500889D01*
X144760799Y-50551989D01*
X144788050Y-50554918D01*
X144821345Y-50558499D01*
X144821362Y-50558500D01*
X146618638Y-50558500D01*
X146618654Y-50558499D01*
X146645692Y-50555591D01*
X146679201Y-50551989D01*
X146816204Y-50500889D01*
X146933261Y-50413261D01*
X147020889Y-50296204D01*
X147066138Y-50174887D01*
X147108009Y-50118956D01*
X147173474Y-50094539D01*
X147241746Y-50109391D01*
X147273545Y-50134236D01*
X147336760Y-50202906D01*
X147514424Y-50341189D01*
X147514425Y-50341189D01*
X147514427Y-50341191D01*
X147574314Y-50373600D01*
X147712426Y-50448342D01*
X147925365Y-50521444D01*
X148147431Y-50558500D01*
X148372569Y-50558500D01*
X148594635Y-50521444D01*
X148807574Y-50448342D01*
X149005576Y-50341189D01*
X149183240Y-50202906D01*
X149304594Y-50071082D01*
X149335715Y-50037276D01*
X149335715Y-50037275D01*
X149335722Y-50037268D01*
X149426193Y-49898790D01*
X149479338Y-49853437D01*
X149548569Y-49844013D01*
X149611905Y-49873515D01*
X149633804Y-49898787D01*
X149724278Y-50037268D01*
X149724283Y-50037273D01*
X149724284Y-50037276D01*
X149850968Y-50174889D01*
X149876760Y-50202906D01*
X150054424Y-50341189D01*
X150054425Y-50341189D01*
X150054427Y-50341191D01*
X150114314Y-50373600D01*
X150252426Y-50448342D01*
X150465365Y-50521444D01*
X150687431Y-50558500D01*
X150912569Y-50558500D01*
X151134635Y-50521444D01*
X151347574Y-50448342D01*
X151545576Y-50341189D01*
X151723240Y-50202906D01*
X151844594Y-50071082D01*
X151875715Y-50037276D01*
X151875715Y-50037275D01*
X151875722Y-50037268D01*
X151966193Y-49898790D01*
X152019338Y-49853437D01*
X152088569Y-49844013D01*
X152151905Y-49873515D01*
X152173804Y-49898787D01*
X152264278Y-50037268D01*
X152264283Y-50037273D01*
X152264284Y-50037276D01*
X152390968Y-50174889D01*
X152416760Y-50202906D01*
X152594424Y-50341189D01*
X152594425Y-50341189D01*
X152594427Y-50341191D01*
X152654314Y-50373600D01*
X152792426Y-50448342D01*
X153005365Y-50521444D01*
X153227431Y-50558500D01*
X153452569Y-50558500D01*
X153674635Y-50521444D01*
X153887574Y-50448342D01*
X154085576Y-50341189D01*
X154263240Y-50202906D01*
X154384594Y-50071082D01*
X154415715Y-50037276D01*
X154415715Y-50037275D01*
X154415722Y-50037268D01*
X154506193Y-49898790D01*
X154559338Y-49853437D01*
X154628569Y-49844013D01*
X154691905Y-49873515D01*
X154713804Y-49898787D01*
X154804278Y-50037268D01*
X154804283Y-50037273D01*
X154804284Y-50037276D01*
X154930968Y-50174889D01*
X154956760Y-50202906D01*
X155134424Y-50341189D01*
X155134425Y-50341189D01*
X155134427Y-50341191D01*
X155194314Y-50373600D01*
X155332426Y-50448342D01*
X155545365Y-50521444D01*
X155767431Y-50558500D01*
X155992569Y-50558500D01*
X156214635Y-50521444D01*
X156427574Y-50448342D01*
X156625576Y-50341189D01*
X156803240Y-50202906D01*
X156924594Y-50071082D01*
X156955715Y-50037276D01*
X156955715Y-50037275D01*
X156955722Y-50037268D01*
X157046193Y-49898790D01*
X157099338Y-49853437D01*
X157168569Y-49844013D01*
X157231905Y-49873515D01*
X157253804Y-49898787D01*
X157344278Y-50037268D01*
X157344283Y-50037273D01*
X157344284Y-50037276D01*
X157470968Y-50174889D01*
X157496760Y-50202906D01*
X157674424Y-50341189D01*
X157674425Y-50341189D01*
X157674427Y-50341191D01*
X157734314Y-50373600D01*
X157872426Y-50448342D01*
X158085365Y-50521444D01*
X158307431Y-50558500D01*
X158532569Y-50558500D01*
X158754635Y-50521444D01*
X158967574Y-50448342D01*
X159165576Y-50341189D01*
X159343240Y-50202906D01*
X159464594Y-50071082D01*
X159495715Y-50037276D01*
X159495715Y-50037275D01*
X159495722Y-50037268D01*
X159586193Y-49898790D01*
X159639338Y-49853437D01*
X159708569Y-49844013D01*
X159771905Y-49873515D01*
X159793804Y-49898787D01*
X159884278Y-50037268D01*
X159884283Y-50037273D01*
X159884284Y-50037276D01*
X160010968Y-50174889D01*
X160036760Y-50202906D01*
X160214424Y-50341189D01*
X160214425Y-50341189D01*
X160214427Y-50341191D01*
X160274314Y-50373600D01*
X160412426Y-50448342D01*
X160625365Y-50521444D01*
X160847431Y-50558500D01*
X161072569Y-50558500D01*
X161294635Y-50521444D01*
X161507574Y-50448342D01*
X161705576Y-50341189D01*
X161883240Y-50202906D01*
X162004594Y-50071082D01*
X162035715Y-50037276D01*
X162035715Y-50037275D01*
X162035722Y-50037268D01*
X162126193Y-49898790D01*
X162179338Y-49853437D01*
X162248569Y-49844013D01*
X162311905Y-49873515D01*
X162333804Y-49898787D01*
X162424278Y-50037268D01*
X162424283Y-50037273D01*
X162424284Y-50037276D01*
X162550968Y-50174889D01*
X162576760Y-50202906D01*
X162754424Y-50341189D01*
X162754425Y-50341189D01*
X162754427Y-50341191D01*
X162814314Y-50373600D01*
X162952426Y-50448342D01*
X163165365Y-50521444D01*
X163387431Y-50558500D01*
X163612569Y-50558500D01*
X163834635Y-50521444D01*
X164047574Y-50448342D01*
X164245576Y-50341189D01*
X164423240Y-50202906D01*
X164544594Y-50071082D01*
X164575715Y-50037276D01*
X164575717Y-50037273D01*
X164575722Y-50037268D01*
X164698860Y-49848791D01*
X164789296Y-49642616D01*
X164844564Y-49424368D01*
X164848987Y-49370995D01*
X164863156Y-49200005D01*
X164863156Y-49199995D01*
X164848713Y-49025706D01*
X164862793Y-48957269D01*
X164911638Y-48907310D01*
X164979739Y-48891689D01*
X165045475Y-48915366D01*
X165059970Y-48927784D01*
X165503181Y-49370995D01*
X165536666Y-49432318D01*
X165539500Y-49458676D01*
X165539500Y-59425891D01*
X165573608Y-59553187D01*
X165599620Y-59598240D01*
X165639500Y-59667314D01*
X165639502Y-59667316D01*
X168043181Y-62070995D01*
X168076666Y-62132318D01*
X168079500Y-62158676D01*
X168079500Y-95931324D01*
X168059815Y-95998363D01*
X168043181Y-96019005D01*
X165639502Y-98422683D01*
X165639500Y-98422686D01*
X165573608Y-98536812D01*
X165539500Y-98664108D01*
X165539500Y-99228242D01*
X165537973Y-99247641D01*
X165529773Y-99299411D01*
X165517785Y-99336307D01*
X165498474Y-99374207D01*
X165475670Y-99405593D01*
X165445593Y-99435670D01*
X165414207Y-99458474D01*
X165376307Y-99477785D01*
X165339411Y-99489773D01*
X165309068Y-99494579D01*
X165287639Y-99497973D01*
X165268243Y-99499500D01*
X115868480Y-99499500D01*
X115801441Y-99479815D01*
X115755686Y-99427011D01*
X115745742Y-99357853D01*
X115774767Y-99294297D01*
X115833545Y-99256523D01*
X115836387Y-99255725D01*
X115946317Y-99226269D01*
X115946331Y-99226264D01*
X116152478Y-99130136D01*
X116225471Y-99079024D01*
X115546447Y-98400000D01*
X115552661Y-98400000D01*
X115654394Y-98372741D01*
X115745606Y-98320080D01*
X115820080Y-98245606D01*
X115872741Y-98154394D01*
X115900000Y-98052661D01*
X115900000Y-98046447D01*
X116579024Y-98725471D01*
X116630136Y-98652478D01*
X116726264Y-98446331D01*
X116726269Y-98446317D01*
X116739257Y-98397844D01*
X122150000Y-98397844D01*
X122156401Y-98457372D01*
X122156403Y-98457379D01*
X122206645Y-98592086D01*
X122206649Y-98592093D01*
X122292809Y-98707187D01*
X122292812Y-98707190D01*
X122407906Y-98793350D01*
X122407913Y-98793354D01*
X122542620Y-98843596D01*
X122542627Y-98843598D01*
X122602155Y-98849999D01*
X122602172Y-98850000D01*
X123250000Y-98850000D01*
X123250000Y-97933012D01*
X123307007Y-97965925D01*
X123434174Y-98000000D01*
X123565826Y-98000000D01*
X123692993Y-97965925D01*
X123750000Y-97933012D01*
X123750000Y-98850000D01*
X124397828Y-98850000D01*
X124397844Y-98849999D01*
X124457372Y-98843598D01*
X124457379Y-98843596D01*
X124592086Y-98793354D01*
X124592093Y-98793350D01*
X124707187Y-98707190D01*
X124707190Y-98707187D01*
X124793350Y-98592093D01*
X124793354Y-98592086D01*
X124843596Y-98457379D01*
X124843598Y-98457372D01*
X124849999Y-98397844D01*
X124850000Y-98397827D01*
X124850000Y-98358654D01*
X126581500Y-98358654D01*
X126588011Y-98419202D01*
X126588011Y-98419204D01*
X126631878Y-98536812D01*
X126639111Y-98556204D01*
X126726739Y-98673261D01*
X126843796Y-98760889D01*
X126980799Y-98811989D01*
X127008050Y-98814918D01*
X127041345Y-98818499D01*
X127041362Y-98818500D01*
X128838638Y-98818500D01*
X128838654Y-98818499D01*
X128865692Y-98815591D01*
X128899201Y-98811989D01*
X129036204Y-98760889D01*
X129153261Y-98673261D01*
X129240889Y-98556204D01*
X129286138Y-98434887D01*
X129328009Y-98378956D01*
X129393474Y-98354539D01*
X129461746Y-98369391D01*
X129493545Y-98394236D01*
X129556760Y-98462906D01*
X129734424Y-98601189D01*
X129734425Y-98601189D01*
X129734427Y-98601191D01*
X129794314Y-98633600D01*
X129932426Y-98708342D01*
X130145365Y-98781444D01*
X130367431Y-98818500D01*
X130592569Y-98818500D01*
X130814635Y-98781444D01*
X131027574Y-98708342D01*
X131225576Y-98601189D01*
X131403240Y-98462906D01*
X131524594Y-98331082D01*
X131555715Y-98297276D01*
X131555715Y-98297275D01*
X131555722Y-98297268D01*
X131646193Y-98158790D01*
X131699338Y-98113437D01*
X131768569Y-98104013D01*
X131831905Y-98133515D01*
X131853804Y-98158787D01*
X131944278Y-98297268D01*
X131944283Y-98297273D01*
X131944284Y-98297276D01*
X132091672Y-98457379D01*
X132096760Y-98462906D01*
X132274424Y-98601189D01*
X132274425Y-98601189D01*
X132274427Y-98601191D01*
X132334314Y-98633600D01*
X132472426Y-98708342D01*
X132685365Y-98781444D01*
X132907431Y-98818500D01*
X133132569Y-98818500D01*
X133354635Y-98781444D01*
X133567574Y-98708342D01*
X133765576Y-98601189D01*
X133943240Y-98462906D01*
X134064594Y-98331082D01*
X134095715Y-98297276D01*
X134095715Y-98297275D01*
X134095722Y-98297268D01*
X134186193Y-98158790D01*
X134239338Y-98113437D01*
X134308569Y-98104013D01*
X134371905Y-98133515D01*
X134393804Y-98158787D01*
X134484278Y-98297268D01*
X134484283Y-98297273D01*
X134484284Y-98297276D01*
X134631672Y-98457379D01*
X134636760Y-98462906D01*
X134814424Y-98601189D01*
X134814425Y-98601189D01*
X134814427Y-98601191D01*
X134874314Y-98633600D01*
X135012426Y-98708342D01*
X135225365Y-98781444D01*
X135447431Y-98818500D01*
X135672569Y-98818500D01*
X135894635Y-98781444D01*
X136107574Y-98708342D01*
X136305576Y-98601189D01*
X136483240Y-98462906D01*
X136604594Y-98331082D01*
X136635715Y-98297276D01*
X136635715Y-98297275D01*
X136635722Y-98297268D01*
X136726193Y-98158790D01*
X136779338Y-98113437D01*
X136848569Y-98104013D01*
X136911905Y-98133515D01*
X136933804Y-98158787D01*
X137024278Y-98297268D01*
X137024283Y-98297273D01*
X137024284Y-98297276D01*
X137171672Y-98457379D01*
X137176760Y-98462906D01*
X137354424Y-98601189D01*
X137354425Y-98601189D01*
X137354427Y-98601191D01*
X137414314Y-98633600D01*
X137552426Y-98708342D01*
X137765365Y-98781444D01*
X137987431Y-98818500D01*
X138212569Y-98818500D01*
X138434635Y-98781444D01*
X138647574Y-98708342D01*
X138845576Y-98601189D01*
X139023240Y-98462906D01*
X139144594Y-98331082D01*
X139175715Y-98297276D01*
X139175715Y-98297275D01*
X139175722Y-98297268D01*
X139269749Y-98153347D01*
X139322894Y-98107994D01*
X139392125Y-98098570D01*
X139455461Y-98128072D01*
X139475130Y-98150048D01*
X139601890Y-98331078D01*
X139768917Y-98498105D01*
X139962421Y-98633600D01*
X140176507Y-98733429D01*
X140176516Y-98733433D01*
X140390000Y-98790634D01*
X140390000Y-97893012D01*
X140447007Y-97925925D01*
X140574174Y-97960000D01*
X140705826Y-97960000D01*
X140832993Y-97925925D01*
X140890000Y-97893012D01*
X140890000Y-98790633D01*
X141103483Y-98733433D01*
X141103492Y-98733429D01*
X141317578Y-98633600D01*
X141511082Y-98498105D01*
X141678105Y-98331082D01*
X141808425Y-98144968D01*
X141863002Y-98101344D01*
X141932501Y-98094151D01*
X141994855Y-98125673D01*
X142011575Y-98144968D01*
X142141894Y-98331082D01*
X142308917Y-98498105D01*
X142502421Y-98633600D01*
X142716507Y-98733429D01*
X142716516Y-98733433D01*
X142930000Y-98790634D01*
X142930000Y-97893012D01*
X142987007Y-97925925D01*
X143114174Y-97960000D01*
X143245826Y-97960000D01*
X143372993Y-97925925D01*
X143430000Y-97893012D01*
X143430000Y-98790633D01*
X143643483Y-98733433D01*
X143643492Y-98733429D01*
X143857578Y-98633600D01*
X144051082Y-98498105D01*
X144218105Y-98331082D01*
X144344868Y-98150048D01*
X144399445Y-98106423D01*
X144468944Y-98099231D01*
X144531298Y-98130753D01*
X144550251Y-98153350D01*
X144644276Y-98297265D01*
X144644284Y-98297276D01*
X144791672Y-98457379D01*
X144796760Y-98462906D01*
X144974424Y-98601189D01*
X144974425Y-98601189D01*
X144974427Y-98601191D01*
X145034314Y-98633600D01*
X145172426Y-98708342D01*
X145385365Y-98781444D01*
X145607431Y-98818500D01*
X145832569Y-98818500D01*
X146054635Y-98781444D01*
X146267574Y-98708342D01*
X146465576Y-98601189D01*
X146643240Y-98462906D01*
X146739212Y-98358654D01*
X149441500Y-98358654D01*
X149448011Y-98419202D01*
X149448011Y-98419204D01*
X149491878Y-98536812D01*
X149499111Y-98556204D01*
X149586739Y-98673261D01*
X149703796Y-98760889D01*
X149840799Y-98811989D01*
X149868050Y-98814918D01*
X149901345Y-98818499D01*
X149901362Y-98818500D01*
X151698638Y-98818500D01*
X151698654Y-98818499D01*
X151725692Y-98815591D01*
X151759201Y-98811989D01*
X151896204Y-98760889D01*
X152013261Y-98673261D01*
X152100889Y-98556204D01*
X152146138Y-98434887D01*
X152188009Y-98378956D01*
X152253474Y-98354539D01*
X152321746Y-98369391D01*
X152353545Y-98394236D01*
X152416760Y-98462906D01*
X152594424Y-98601189D01*
X152594425Y-98601189D01*
X152594427Y-98601191D01*
X152654314Y-98633600D01*
X152792426Y-98708342D01*
X153005365Y-98781444D01*
X153227431Y-98818500D01*
X153452569Y-98818500D01*
X153674635Y-98781444D01*
X153887574Y-98708342D01*
X154085576Y-98601189D01*
X154263240Y-98462906D01*
X154384594Y-98331082D01*
X154415715Y-98297276D01*
X154415715Y-98297275D01*
X154415722Y-98297268D01*
X154506193Y-98158790D01*
X154559338Y-98113437D01*
X154628569Y-98104013D01*
X154691905Y-98133515D01*
X154713804Y-98158787D01*
X154804278Y-98297268D01*
X154804283Y-98297273D01*
X154804284Y-98297276D01*
X154951672Y-98457379D01*
X154956760Y-98462906D01*
X155134424Y-98601189D01*
X155134425Y-98601189D01*
X155134427Y-98601191D01*
X155194314Y-98633600D01*
X155332426Y-98708342D01*
X155545365Y-98781444D01*
X155767431Y-98818500D01*
X155992569Y-98818500D01*
X156214635Y-98781444D01*
X156427574Y-98708342D01*
X156625576Y-98601189D01*
X156803240Y-98462906D01*
X156924594Y-98331082D01*
X156955715Y-98297276D01*
X156955715Y-98297275D01*
X156955722Y-98297268D01*
X157046193Y-98158790D01*
X157099338Y-98113437D01*
X157168569Y-98104013D01*
X157231905Y-98133515D01*
X157253804Y-98158787D01*
X157344278Y-98297268D01*
X157344283Y-98297273D01*
X157344284Y-98297276D01*
X157491672Y-98457379D01*
X157496760Y-98462906D01*
X157674424Y-98601189D01*
X157674425Y-98601189D01*
X157674427Y-98601191D01*
X157734314Y-98633600D01*
X157872426Y-98708342D01*
X158085365Y-98781444D01*
X158307431Y-98818500D01*
X158532569Y-98818500D01*
X158754635Y-98781444D01*
X158967574Y-98708342D01*
X159165576Y-98601189D01*
X159343240Y-98462906D01*
X159464594Y-98331082D01*
X159495715Y-98297276D01*
X159495715Y-98297275D01*
X159495722Y-98297268D01*
X159586193Y-98158790D01*
X159639338Y-98113437D01*
X159708569Y-98104013D01*
X159771905Y-98133515D01*
X159793804Y-98158787D01*
X159884278Y-98297268D01*
X159884283Y-98297273D01*
X159884284Y-98297276D01*
X160031672Y-98457379D01*
X160036760Y-98462906D01*
X160214424Y-98601189D01*
X160214425Y-98601189D01*
X160214427Y-98601191D01*
X160274314Y-98633600D01*
X160412426Y-98708342D01*
X160625365Y-98781444D01*
X160847431Y-98818500D01*
X161072569Y-98818500D01*
X161294635Y-98781444D01*
X161507574Y-98708342D01*
X161705576Y-98601189D01*
X161883240Y-98462906D01*
X162004594Y-98331082D01*
X162035715Y-98297276D01*
X162035715Y-98297275D01*
X162035722Y-98297268D01*
X162126193Y-98158790D01*
X162179338Y-98113437D01*
X162248569Y-98104013D01*
X162311905Y-98133515D01*
X162333804Y-98158787D01*
X162424278Y-98297268D01*
X162424283Y-98297273D01*
X162424284Y-98297276D01*
X162571672Y-98457379D01*
X162576760Y-98462906D01*
X162754424Y-98601189D01*
X162754425Y-98601189D01*
X162754427Y-98601191D01*
X162814314Y-98633600D01*
X162952426Y-98708342D01*
X163165365Y-98781444D01*
X163387431Y-98818500D01*
X163612569Y-98818500D01*
X163834635Y-98781444D01*
X164047574Y-98708342D01*
X164245576Y-98601189D01*
X164423240Y-98462906D01*
X164544594Y-98331082D01*
X164575715Y-98297276D01*
X164575717Y-98297273D01*
X164575722Y-98297268D01*
X164698860Y-98108791D01*
X164789296Y-97902616D01*
X164844564Y-97684368D01*
X164847164Y-97652993D01*
X164863156Y-97460005D01*
X164863156Y-97459994D01*
X164844565Y-97235640D01*
X164844563Y-97235628D01*
X164789296Y-97017385D01*
X164781670Y-97000000D01*
X164698860Y-96811209D01*
X164687804Y-96794287D01*
X164588371Y-96642093D01*
X164575722Y-96622732D01*
X164575719Y-96622729D01*
X164575715Y-96622723D01*
X164423243Y-96457097D01*
X164423238Y-96457092D01*
X164245577Y-96318812D01*
X164245572Y-96318808D01*
X164047580Y-96211661D01*
X164047577Y-96211659D01*
X164047574Y-96211658D01*
X164047571Y-96211657D01*
X164047569Y-96211656D01*
X163834637Y-96138556D01*
X163612569Y-96101500D01*
X163387431Y-96101500D01*
X163165362Y-96138556D01*
X162952430Y-96211656D01*
X162952419Y-96211661D01*
X162754427Y-96318808D01*
X162754422Y-96318812D01*
X162576761Y-96457092D01*
X162576756Y-96457097D01*
X162424284Y-96622723D01*
X162424276Y-96622734D01*
X162333808Y-96761206D01*
X162280662Y-96806562D01*
X162211431Y-96815986D01*
X162148095Y-96786484D01*
X162126192Y-96761206D01*
X162048371Y-96642093D01*
X162035722Y-96622732D01*
X162035719Y-96622729D01*
X162035715Y-96622723D01*
X161883243Y-96457097D01*
X161883238Y-96457092D01*
X161705577Y-96318812D01*
X161705572Y-96318808D01*
X161507580Y-96211661D01*
X161507577Y-96211659D01*
X161507574Y-96211658D01*
X161507571Y-96211657D01*
X161507569Y-96211656D01*
X161294637Y-96138556D01*
X161072569Y-96101500D01*
X160847431Y-96101500D01*
X160625362Y-96138556D01*
X160412430Y-96211656D01*
X160412419Y-96211661D01*
X160214427Y-96318808D01*
X160214422Y-96318812D01*
X160036761Y-96457092D01*
X160036756Y-96457097D01*
X159884284Y-96622723D01*
X159884276Y-96622734D01*
X159793808Y-96761206D01*
X159740662Y-96806562D01*
X159671431Y-96815986D01*
X159608095Y-96786484D01*
X159586192Y-96761206D01*
X159508371Y-96642093D01*
X159495722Y-96622732D01*
X159495719Y-96622729D01*
X159495715Y-96622723D01*
X159343243Y-96457097D01*
X159343238Y-96457092D01*
X159165577Y-96318812D01*
X159165572Y-96318808D01*
X158967580Y-96211661D01*
X158967577Y-96211659D01*
X158967574Y-96211658D01*
X158967571Y-96211657D01*
X158967569Y-96211656D01*
X158754637Y-96138556D01*
X158532569Y-96101500D01*
X158307431Y-96101500D01*
X158085362Y-96138556D01*
X157872430Y-96211656D01*
X157872419Y-96211661D01*
X157674427Y-96318808D01*
X157674422Y-96318812D01*
X157496761Y-96457092D01*
X157496756Y-96457097D01*
X157344284Y-96622723D01*
X157344276Y-96622734D01*
X157253808Y-96761206D01*
X157200662Y-96806562D01*
X157131431Y-96815986D01*
X157068095Y-96786484D01*
X157046192Y-96761206D01*
X156968371Y-96642093D01*
X156955722Y-96622732D01*
X156955719Y-96622729D01*
X156955715Y-96622723D01*
X156803243Y-96457097D01*
X156803238Y-96457092D01*
X156625577Y-96318812D01*
X156625572Y-96318808D01*
X156427580Y-96211661D01*
X156427577Y-96211659D01*
X156427574Y-96211658D01*
X156427571Y-96211657D01*
X156427569Y-96211656D01*
X156214637Y-96138556D01*
X155992569Y-96101500D01*
X155767431Y-96101500D01*
X155545362Y-96138556D01*
X155332430Y-96211656D01*
X155332419Y-96211661D01*
X155134427Y-96318808D01*
X155134422Y-96318812D01*
X154956761Y-96457092D01*
X154956756Y-96457097D01*
X154804284Y-96622723D01*
X154804276Y-96622734D01*
X154713808Y-96761206D01*
X154660662Y-96806562D01*
X154591431Y-96815986D01*
X154528095Y-96786484D01*
X154506192Y-96761206D01*
X154428371Y-96642093D01*
X154415722Y-96622732D01*
X154415719Y-96622729D01*
X154415715Y-96622723D01*
X154263243Y-96457097D01*
X154263238Y-96457092D01*
X154085577Y-96318812D01*
X154085572Y-96318808D01*
X153887580Y-96211661D01*
X153887577Y-96211659D01*
X153887574Y-96211658D01*
X153887571Y-96211657D01*
X153887569Y-96211656D01*
X153674637Y-96138556D01*
X153452569Y-96101500D01*
X153227431Y-96101500D01*
X153005362Y-96138556D01*
X152792430Y-96211656D01*
X152792419Y-96211661D01*
X152594427Y-96318808D01*
X152594422Y-96318812D01*
X152416761Y-96457092D01*
X152353548Y-96525760D01*
X152293661Y-96561750D01*
X152223823Y-96559649D01*
X152166207Y-96520124D01*
X152146138Y-96485110D01*
X152100889Y-96363796D01*
X152067214Y-96318812D01*
X152013261Y-96246739D01*
X151896204Y-96159111D01*
X151871777Y-96150000D01*
X151759203Y-96108011D01*
X151698654Y-96101500D01*
X151698638Y-96101500D01*
X149901362Y-96101500D01*
X149901345Y-96101500D01*
X149840797Y-96108011D01*
X149840795Y-96108011D01*
X149703795Y-96159111D01*
X149586739Y-96246739D01*
X149499111Y-96363795D01*
X149448011Y-96500795D01*
X149448011Y-96500797D01*
X149441500Y-96561345D01*
X149441500Y-98358654D01*
X146739212Y-98358654D01*
X146764594Y-98331082D01*
X146795715Y-98297276D01*
X146795717Y-98297273D01*
X146795722Y-98297268D01*
X146918860Y-98108791D01*
X147009296Y-97902616D01*
X147064564Y-97684368D01*
X147067164Y-97652993D01*
X147083156Y-97460005D01*
X147083156Y-97459994D01*
X147064565Y-97235640D01*
X147064563Y-97235628D01*
X147009296Y-97017385D01*
X147001670Y-97000000D01*
X146918860Y-96811209D01*
X146907804Y-96794287D01*
X146808371Y-96642093D01*
X146795722Y-96622732D01*
X146795719Y-96622729D01*
X146795715Y-96622723D01*
X146643243Y-96457097D01*
X146643238Y-96457092D01*
X146465577Y-96318812D01*
X146465572Y-96318808D01*
X146267580Y-96211661D01*
X146267577Y-96211659D01*
X146267574Y-96211658D01*
X146267571Y-96211657D01*
X146267569Y-96211656D01*
X146054637Y-96138556D01*
X145832569Y-96101500D01*
X145607431Y-96101500D01*
X145385362Y-96138556D01*
X145172430Y-96211656D01*
X145172419Y-96211661D01*
X144974427Y-96318808D01*
X144974422Y-96318812D01*
X144796761Y-96457092D01*
X144796756Y-96457097D01*
X144644284Y-96622723D01*
X144644276Y-96622734D01*
X144550251Y-96766650D01*
X144497105Y-96812007D01*
X144427873Y-96821430D01*
X144364538Y-96791928D01*
X144344868Y-96769951D01*
X144218113Y-96588926D01*
X144218108Y-96588920D01*
X144051082Y-96421894D01*
X143857578Y-96286399D01*
X143643492Y-96186570D01*
X143643486Y-96186567D01*
X143430000Y-96129364D01*
X143430000Y-97026988D01*
X143372993Y-96994075D01*
X143245826Y-96960000D01*
X143114174Y-96960000D01*
X142987007Y-96994075D01*
X142930000Y-97026988D01*
X142930000Y-96129364D01*
X142929999Y-96129364D01*
X142716513Y-96186567D01*
X142716507Y-96186570D01*
X142502422Y-96286399D01*
X142502420Y-96286400D01*
X142308926Y-96421886D01*
X142308920Y-96421891D01*
X142141891Y-96588920D01*
X142141890Y-96588922D01*
X142011575Y-96775031D01*
X141956998Y-96818655D01*
X141887499Y-96825848D01*
X141825145Y-96794326D01*
X141808425Y-96775031D01*
X141678109Y-96588922D01*
X141678108Y-96588920D01*
X141511082Y-96421894D01*
X141317578Y-96286399D01*
X141103492Y-96186570D01*
X141103486Y-96186567D01*
X140890000Y-96129364D01*
X140890000Y-97026988D01*
X140832993Y-96994075D01*
X140705826Y-96960000D01*
X140574174Y-96960000D01*
X140447007Y-96994075D01*
X140390000Y-97026988D01*
X140390000Y-96129364D01*
X140389999Y-96129364D01*
X140176513Y-96186567D01*
X140176507Y-96186570D01*
X139962422Y-96286399D01*
X139962420Y-96286400D01*
X139768926Y-96421886D01*
X139768920Y-96421891D01*
X139601891Y-96588920D01*
X139601890Y-96588922D01*
X139475131Y-96769952D01*
X139420554Y-96813577D01*
X139351055Y-96820769D01*
X139288701Y-96789247D01*
X139269752Y-96766656D01*
X139175722Y-96622732D01*
X139175715Y-96622725D01*
X139175715Y-96622723D01*
X139023243Y-96457097D01*
X139023238Y-96457092D01*
X138845577Y-96318812D01*
X138845572Y-96318808D01*
X138647580Y-96211661D01*
X138647577Y-96211659D01*
X138647574Y-96211658D01*
X138647571Y-96211657D01*
X138647569Y-96211656D01*
X138434637Y-96138556D01*
X138212569Y-96101500D01*
X137987431Y-96101500D01*
X137765362Y-96138556D01*
X137552430Y-96211656D01*
X137552419Y-96211661D01*
X137354427Y-96318808D01*
X137354422Y-96318812D01*
X137176761Y-96457092D01*
X137176756Y-96457097D01*
X137024284Y-96622723D01*
X137024276Y-96622734D01*
X136933808Y-96761206D01*
X136880662Y-96806562D01*
X136811431Y-96815986D01*
X136748095Y-96786484D01*
X136726192Y-96761206D01*
X136648371Y-96642093D01*
X136635722Y-96622732D01*
X136635719Y-96622729D01*
X136635715Y-96622723D01*
X136483243Y-96457097D01*
X136483238Y-96457092D01*
X136305577Y-96318812D01*
X136305572Y-96318808D01*
X136107580Y-96211661D01*
X136107577Y-96211659D01*
X136107574Y-96211658D01*
X136107571Y-96211657D01*
X136107569Y-96211656D01*
X135894637Y-96138556D01*
X135672569Y-96101500D01*
X135447431Y-96101500D01*
X135225362Y-96138556D01*
X135012430Y-96211656D01*
X135012419Y-96211661D01*
X134814427Y-96318808D01*
X134814422Y-96318812D01*
X134636761Y-96457092D01*
X134636756Y-96457097D01*
X134484284Y-96622723D01*
X134484276Y-96622734D01*
X134393808Y-96761206D01*
X134340662Y-96806562D01*
X134271431Y-96815986D01*
X134208095Y-96786484D01*
X134186192Y-96761206D01*
X134108371Y-96642093D01*
X134095722Y-96622732D01*
X134095719Y-96622729D01*
X134095715Y-96622723D01*
X133943243Y-96457097D01*
X133943238Y-96457092D01*
X133765577Y-96318812D01*
X133765572Y-96318808D01*
X133567580Y-96211661D01*
X133567577Y-96211659D01*
X133567574Y-96211658D01*
X133567571Y-96211657D01*
X133567569Y-96211656D01*
X133354637Y-96138556D01*
X133132569Y-96101500D01*
X132907431Y-96101500D01*
X132685362Y-96138556D01*
X132472430Y-96211656D01*
X132472419Y-96211661D01*
X132274427Y-96318808D01*
X132274422Y-96318812D01*
X132096761Y-96457092D01*
X132096756Y-96457097D01*
X131944284Y-96622723D01*
X131944276Y-96622734D01*
X131853808Y-96761206D01*
X131800662Y-96806562D01*
X131731431Y-96815986D01*
X131668095Y-96786484D01*
X131646192Y-96761206D01*
X131568371Y-96642093D01*
X131555722Y-96622732D01*
X131555719Y-96622729D01*
X131555715Y-96622723D01*
X131403243Y-96457097D01*
X131403238Y-96457092D01*
X131225577Y-96318812D01*
X131225572Y-96318808D01*
X131027580Y-96211661D01*
X131027577Y-96211659D01*
X131027574Y-96211658D01*
X131027571Y-96211657D01*
X131027569Y-96211656D01*
X130814637Y-96138556D01*
X130592569Y-96101500D01*
X130367431Y-96101500D01*
X130145362Y-96138556D01*
X129932430Y-96211656D01*
X129932419Y-96211661D01*
X129734427Y-96318808D01*
X129734422Y-96318812D01*
X129556761Y-96457092D01*
X129493548Y-96525760D01*
X129433661Y-96561750D01*
X129363823Y-96559649D01*
X129306207Y-96520124D01*
X129286138Y-96485110D01*
X129240889Y-96363796D01*
X129207214Y-96318812D01*
X129153261Y-96246739D01*
X129036204Y-96159111D01*
X129011777Y-96150000D01*
X128899203Y-96108011D01*
X128838654Y-96101500D01*
X128838638Y-96101500D01*
X127041362Y-96101500D01*
X127041345Y-96101500D01*
X126980797Y-96108011D01*
X126980795Y-96108011D01*
X126843795Y-96159111D01*
X126726739Y-96246739D01*
X126639111Y-96363795D01*
X126588011Y-96500795D01*
X126588011Y-96500797D01*
X126581500Y-96561345D01*
X126581500Y-98358654D01*
X124850000Y-98358654D01*
X124850000Y-97750000D01*
X123933012Y-97750000D01*
X123965925Y-97692993D01*
X124000000Y-97565826D01*
X124000000Y-97434174D01*
X123965925Y-97307007D01*
X123933012Y-97250000D01*
X124850000Y-97250000D01*
X124850000Y-96602172D01*
X124849999Y-96602155D01*
X124843598Y-96542627D01*
X124843596Y-96542620D01*
X124793354Y-96407913D01*
X124793350Y-96407906D01*
X124707190Y-96292812D01*
X124707187Y-96292809D01*
X124592093Y-96206649D01*
X124592086Y-96206645D01*
X124457379Y-96156403D01*
X124457372Y-96156401D01*
X124397844Y-96150000D01*
X123750000Y-96150000D01*
X123750000Y-97066988D01*
X123692993Y-97034075D01*
X123565826Y-97000000D01*
X123434174Y-97000000D01*
X123307007Y-97034075D01*
X123250000Y-97066988D01*
X123250000Y-96150000D01*
X122602155Y-96150000D01*
X122542627Y-96156401D01*
X122542620Y-96156403D01*
X122407913Y-96206645D01*
X122407906Y-96206649D01*
X122292812Y-96292809D01*
X122292809Y-96292812D01*
X122206649Y-96407906D01*
X122206645Y-96407913D01*
X122156403Y-96542620D01*
X122156401Y-96542627D01*
X122150000Y-96602155D01*
X122150000Y-97250000D01*
X123066988Y-97250000D01*
X123034075Y-97307007D01*
X123000000Y-97434174D01*
X123000000Y-97565826D01*
X123034075Y-97692993D01*
X123066988Y-97750000D01*
X122150000Y-97750000D01*
X122150000Y-98397844D01*
X116739257Y-98397844D01*
X116785139Y-98226610D01*
X116785141Y-98226599D01*
X116804966Y-98000002D01*
X116804966Y-97999997D01*
X116785141Y-97773400D01*
X116785139Y-97773389D01*
X116726269Y-97553682D01*
X116726264Y-97553668D01*
X116630136Y-97347521D01*
X116630132Y-97347513D01*
X116579025Y-97274526D01*
X115900000Y-97953551D01*
X115900000Y-97947339D01*
X115872741Y-97845606D01*
X115820080Y-97754394D01*
X115745606Y-97679920D01*
X115654394Y-97627259D01*
X115552661Y-97600000D01*
X115546448Y-97600000D01*
X116225472Y-96920974D01*
X116152478Y-96869863D01*
X115946331Y-96773735D01*
X115946317Y-96773730D01*
X115726610Y-96714860D01*
X115726599Y-96714858D01*
X115500002Y-96695034D01*
X115499998Y-96695034D01*
X115273400Y-96714858D01*
X115273389Y-96714860D01*
X115053682Y-96773730D01*
X115053673Y-96773734D01*
X114847516Y-96869866D01*
X114847512Y-96869868D01*
X114774526Y-96920973D01*
X114774526Y-96920974D01*
X115453553Y-97600000D01*
X115447339Y-97600000D01*
X115345606Y-97627259D01*
X115254394Y-97679920D01*
X115179920Y-97754394D01*
X115127259Y-97845606D01*
X115100000Y-97947339D01*
X115100000Y-97953552D01*
X114420974Y-97274526D01*
X114420973Y-97274526D01*
X114369868Y-97347512D01*
X114369866Y-97347516D01*
X114273734Y-97553673D01*
X114273730Y-97553682D01*
X114214860Y-97773389D01*
X114214858Y-97773400D01*
X114195034Y-97999997D01*
X114195034Y-98000002D01*
X114214858Y-98226599D01*
X114214860Y-98226610D01*
X114273730Y-98446317D01*
X114273735Y-98446331D01*
X114369863Y-98652478D01*
X114420974Y-98725472D01*
X115100000Y-98046446D01*
X115100000Y-98052661D01*
X115127259Y-98154394D01*
X115179920Y-98245606D01*
X115254394Y-98320080D01*
X115345606Y-98372741D01*
X115447339Y-98400000D01*
X115453553Y-98400000D01*
X114774526Y-99079025D01*
X114847513Y-99130132D01*
X114847521Y-99130136D01*
X115053668Y-99226264D01*
X115053682Y-99226269D01*
X115163613Y-99255725D01*
X115223274Y-99292090D01*
X115253803Y-99354937D01*
X115245508Y-99424312D01*
X115201023Y-99478190D01*
X115134471Y-99499465D01*
X115131520Y-99499500D01*
X100771757Y-99499500D01*
X100752360Y-99497973D01*
X100718098Y-99492546D01*
X100700588Y-99489773D01*
X100663695Y-99477786D01*
X100625790Y-99458472D01*
X100594406Y-99435670D01*
X100564329Y-99405593D01*
X100541528Y-99374211D01*
X100522212Y-99336301D01*
X100510227Y-99299417D01*
X100502025Y-99247630D01*
X100500500Y-99228242D01*
X100500500Y-95500005D01*
X102821673Y-95500005D01*
X102840948Y-95732622D01*
X102898251Y-95958907D01*
X102992015Y-96172668D01*
X103119686Y-96368084D01*
X103271354Y-96532838D01*
X103277780Y-96539818D01*
X103461983Y-96683190D01*
X103461985Y-96683191D01*
X103461988Y-96683193D01*
X103520504Y-96714860D01*
X103667273Y-96794287D01*
X103781914Y-96833643D01*
X103888045Y-96870079D01*
X103888047Y-96870079D01*
X103888049Y-96870080D01*
X104118288Y-96908500D01*
X104118289Y-96908500D01*
X104351711Y-96908500D01*
X104351712Y-96908500D01*
X104581951Y-96870080D01*
X104802727Y-96794287D01*
X105008017Y-96683190D01*
X105192220Y-96539818D01*
X105198646Y-96532837D01*
X105258531Y-96496845D01*
X105328369Y-96498944D01*
X105385986Y-96538466D01*
X105406059Y-96573485D01*
X105431645Y-96642086D01*
X105431649Y-96642093D01*
X105517809Y-96757187D01*
X105517812Y-96757190D01*
X105632906Y-96843350D01*
X105632913Y-96843354D01*
X105767620Y-96893596D01*
X105767627Y-96893598D01*
X105827155Y-96899999D01*
X105827172Y-96900000D01*
X106525000Y-96900000D01*
X106525000Y-95875277D01*
X106601306Y-95919333D01*
X106715756Y-95950000D01*
X106834244Y-95950000D01*
X106948694Y-95919333D01*
X107025000Y-95875277D01*
X107025000Y-96900000D01*
X107722828Y-96900000D01*
X107722844Y-96899999D01*
X107782372Y-96893598D01*
X107782379Y-96893596D01*
X107917086Y-96843354D01*
X107917093Y-96843350D01*
X108032187Y-96757190D01*
X108032190Y-96757187D01*
X108118350Y-96642093D01*
X108118354Y-96642086D01*
X108168596Y-96507379D01*
X108168598Y-96507372D01*
X108174999Y-96447844D01*
X108175000Y-96447827D01*
X108175000Y-95750000D01*
X107150278Y-95750000D01*
X107194333Y-95673694D01*
X107225000Y-95559244D01*
X107225000Y-95440756D01*
X107194333Y-95326306D01*
X107150278Y-95250000D01*
X108175000Y-95250000D01*
X108175000Y-94552172D01*
X108174999Y-94552155D01*
X108168598Y-94492627D01*
X108168596Y-94492620D01*
X108118354Y-94357913D01*
X108118350Y-94357906D01*
X108032190Y-94242812D01*
X108032187Y-94242809D01*
X107917093Y-94156649D01*
X107917086Y-94156645D01*
X107782379Y-94106403D01*
X107782372Y-94106401D01*
X107722844Y-94100000D01*
X107025000Y-94100000D01*
X107025000Y-95124722D01*
X106948694Y-95080667D01*
X106834244Y-95050000D01*
X106715756Y-95050000D01*
X106601306Y-95080667D01*
X106525000Y-95124722D01*
X106525000Y-94100000D01*
X105827155Y-94100000D01*
X105767627Y-94106401D01*
X105767620Y-94106403D01*
X105632913Y-94156645D01*
X105632906Y-94156649D01*
X105517812Y-94242809D01*
X105517809Y-94242812D01*
X105431649Y-94357906D01*
X105431645Y-94357913D01*
X105406059Y-94426514D01*
X105364188Y-94482448D01*
X105298723Y-94506865D01*
X105230450Y-94492013D01*
X105198649Y-94467165D01*
X105192224Y-94460186D01*
X105192222Y-94460184D01*
X105192220Y-94460182D01*
X105008017Y-94316810D01*
X105008015Y-94316809D01*
X105008014Y-94316808D01*
X105008011Y-94316806D01*
X104802733Y-94205716D01*
X104802730Y-94205715D01*
X104802727Y-94205713D01*
X104802721Y-94205711D01*
X104802719Y-94205710D01*
X104581954Y-94129920D01*
X104402650Y-94100000D01*
X104351712Y-94091500D01*
X104118288Y-94091500D01*
X104072240Y-94099184D01*
X103888045Y-94129920D01*
X103667280Y-94205710D01*
X103667266Y-94205716D01*
X103461988Y-94316806D01*
X103461985Y-94316808D01*
X103277781Y-94460181D01*
X103277776Y-94460185D01*
X103119686Y-94631915D01*
X102992015Y-94827331D01*
X102898251Y-95041092D01*
X102840948Y-95267377D01*
X102821673Y-95499994D01*
X102821673Y-95500005D01*
X100500500Y-95500005D01*
X100500500Y-93000001D01*
X114186502Y-93000001D01*
X114206456Y-93228081D01*
X114206457Y-93228089D01*
X114265714Y-93449238D01*
X114265718Y-93449249D01*
X114348231Y-93626198D01*
X114362477Y-93656749D01*
X114493802Y-93844300D01*
X114655700Y-94006198D01*
X114843251Y-94137523D01*
X114968091Y-94195736D01*
X115050750Y-94234281D01*
X115050752Y-94234281D01*
X115050757Y-94234284D01*
X115271913Y-94293543D01*
X115434832Y-94307796D01*
X115499998Y-94313498D01*
X115500000Y-94313498D01*
X115500002Y-94313498D01*
X115557021Y-94308509D01*
X115728087Y-94293543D01*
X115949243Y-94234284D01*
X116156749Y-94137523D01*
X116344300Y-94006198D01*
X116506198Y-93844300D01*
X116637523Y-93656749D01*
X116734284Y-93449243D01*
X116793543Y-93228087D01*
X116813498Y-93000000D01*
X116793543Y-92771913D01*
X116752838Y-92620001D01*
X130566502Y-92620001D01*
X130586456Y-92848081D01*
X130586457Y-92848089D01*
X130645714Y-93069238D01*
X130645718Y-93069249D01*
X130722382Y-93233655D01*
X130742477Y-93276749D01*
X130873802Y-93464300D01*
X131035700Y-93626198D01*
X131223251Y-93757523D01*
X131348091Y-93815736D01*
X131430750Y-93854281D01*
X131430752Y-93854281D01*
X131430757Y-93854284D01*
X131651913Y-93913543D01*
X131814832Y-93927796D01*
X131879998Y-93933498D01*
X131880000Y-93933498D01*
X131880002Y-93933498D01*
X131937021Y-93928509D01*
X132108087Y-93913543D01*
X132329243Y-93854284D01*
X132536749Y-93757523D01*
X132724300Y-93626198D01*
X132886198Y-93464300D01*
X133017523Y-93276749D01*
X133037618Y-93233655D01*
X133083790Y-93181215D01*
X133150983Y-93162063D01*
X133217864Y-93182278D01*
X133262382Y-93233655D01*
X133282477Y-93276749D01*
X133413802Y-93464300D01*
X133575700Y-93626198D01*
X133763251Y-93757523D01*
X133888091Y-93815736D01*
X133970750Y-93854281D01*
X133970752Y-93854281D01*
X133970757Y-93854284D01*
X134191913Y-93913543D01*
X134354832Y-93927796D01*
X134419998Y-93933498D01*
X134420000Y-93933498D01*
X134420002Y-93933498D01*
X134477021Y-93928509D01*
X134648087Y-93913543D01*
X134869243Y-93854284D01*
X135076749Y-93757523D01*
X135264300Y-93626198D01*
X135426198Y-93464300D01*
X135557523Y-93276749D01*
X135577618Y-93233655D01*
X135623790Y-93181215D01*
X135690983Y-93162063D01*
X135757864Y-93182278D01*
X135802382Y-93233655D01*
X135822477Y-93276749D01*
X135953802Y-93464300D01*
X136115700Y-93626198D01*
X136303251Y-93757523D01*
X136428091Y-93815736D01*
X136510750Y-93854281D01*
X136510752Y-93854281D01*
X136510757Y-93854284D01*
X136731913Y-93913543D01*
X136894832Y-93927796D01*
X136959998Y-93933498D01*
X136960000Y-93933498D01*
X136960002Y-93933498D01*
X137017021Y-93928509D01*
X137188087Y-93913543D01*
X137409243Y-93854284D01*
X137616749Y-93757523D01*
X137804300Y-93626198D01*
X137966198Y-93464300D01*
X138097523Y-93276749D01*
X138117618Y-93233655D01*
X138163790Y-93181215D01*
X138230983Y-93162063D01*
X138297864Y-93182278D01*
X138342382Y-93233655D01*
X138362477Y-93276749D01*
X138493802Y-93464300D01*
X138655700Y-93626198D01*
X138843251Y-93757523D01*
X138968091Y-93815736D01*
X139050750Y-93854281D01*
X139050752Y-93854281D01*
X139050757Y-93854284D01*
X139271913Y-93913543D01*
X139434832Y-93927796D01*
X139499998Y-93933498D01*
X139500000Y-93933498D01*
X139500002Y-93933498D01*
X139557021Y-93928509D01*
X139728087Y-93913543D01*
X139949243Y-93854284D01*
X140156749Y-93757523D01*
X140344300Y-93626198D01*
X140506198Y-93464300D01*
X140637523Y-93276749D01*
X140734284Y-93069243D01*
X140793543Y-92848087D01*
X140813498Y-92620000D01*
X140793543Y-92391913D01*
X140734284Y-92170757D01*
X140637523Y-91963251D01*
X140506198Y-91775700D01*
X140344300Y-91613802D01*
X140253183Y-91550001D01*
X142636502Y-91550001D01*
X142656456Y-91778081D01*
X142656457Y-91778089D01*
X142715714Y-91999238D01*
X142715718Y-91999249D01*
X142812475Y-92206745D01*
X142812477Y-92206749D01*
X142943802Y-92394300D01*
X143105700Y-92556198D01*
X143293251Y-92687523D01*
X143418091Y-92745736D01*
X143500750Y-92784281D01*
X143500752Y-92784281D01*
X143500757Y-92784284D01*
X143721913Y-92843543D01*
X143884832Y-92857796D01*
X143949998Y-92863498D01*
X143950000Y-92863498D01*
X143950002Y-92863498D01*
X144007021Y-92858509D01*
X144178087Y-92843543D01*
X144399243Y-92784284D01*
X144606749Y-92687523D01*
X144794300Y-92556198D01*
X144956198Y-92394300D01*
X145087523Y-92206749D01*
X145184284Y-91999243D01*
X145243543Y-91778087D01*
X145262557Y-91560757D01*
X145263498Y-91550001D01*
X152796502Y-91550001D01*
X152816456Y-91778081D01*
X152816457Y-91778089D01*
X152875714Y-91999238D01*
X152875718Y-91999249D01*
X152972475Y-92206745D01*
X152972477Y-92206749D01*
X153103802Y-92394300D01*
X153265700Y-92556198D01*
X153453251Y-92687523D01*
X153578091Y-92745736D01*
X153660750Y-92784281D01*
X153660752Y-92784281D01*
X153660757Y-92784284D01*
X153881913Y-92843543D01*
X154044832Y-92857796D01*
X154109998Y-92863498D01*
X154110000Y-92863498D01*
X154110002Y-92863498D01*
X154167021Y-92858509D01*
X154338087Y-92843543D01*
X154559243Y-92784284D01*
X154766749Y-92687523D01*
X154954300Y-92556198D01*
X155116198Y-92394300D01*
X155247523Y-92206749D01*
X155339267Y-92010001D01*
X156036502Y-92010001D01*
X156056456Y-92238081D01*
X156056457Y-92238089D01*
X156115714Y-92459238D01*
X156115718Y-92459249D01*
X156190678Y-92620001D01*
X156212477Y-92666749D01*
X156343802Y-92854300D01*
X156505700Y-93016198D01*
X156693251Y-93147523D01*
X156767784Y-93182278D01*
X156900750Y-93244281D01*
X156900752Y-93244281D01*
X156900757Y-93244284D01*
X157121913Y-93303543D01*
X157284832Y-93317796D01*
X157349998Y-93323498D01*
X157350000Y-93323498D01*
X157350002Y-93323498D01*
X157407021Y-93318509D01*
X157578087Y-93303543D01*
X157596333Y-93298654D01*
X164241500Y-93298654D01*
X164248011Y-93359202D01*
X164248011Y-93359204D01*
X164287211Y-93464300D01*
X164299111Y-93496204D01*
X164386739Y-93613261D01*
X164503796Y-93700889D01*
X164640799Y-93751989D01*
X164668050Y-93754918D01*
X164701345Y-93758499D01*
X164701362Y-93758500D01*
X166498638Y-93758500D01*
X166498654Y-93758499D01*
X166525692Y-93755591D01*
X166559201Y-93751989D01*
X166696204Y-93700889D01*
X166813261Y-93613261D01*
X166900889Y-93496204D01*
X166951989Y-93359201D01*
X166957973Y-93303542D01*
X166958499Y-93298654D01*
X166958500Y-93298637D01*
X166958500Y-91501362D01*
X166958499Y-91501345D01*
X166955157Y-91470270D01*
X166951989Y-91440799D01*
X166900889Y-91303796D01*
X166813261Y-91186739D01*
X166696204Y-91099111D01*
X166559203Y-91048011D01*
X166498654Y-91041500D01*
X166498638Y-91041500D01*
X164701362Y-91041500D01*
X164701345Y-91041500D01*
X164640797Y-91048011D01*
X164640795Y-91048011D01*
X164503795Y-91099111D01*
X164386739Y-91186739D01*
X164299111Y-91303795D01*
X164248011Y-91440795D01*
X164248011Y-91440797D01*
X164241500Y-91501345D01*
X164241500Y-93298654D01*
X157596333Y-93298654D01*
X157799243Y-93244284D01*
X158006749Y-93147523D01*
X158194300Y-93016198D01*
X158356198Y-92854300D01*
X158487523Y-92666749D01*
X158584284Y-92459243D01*
X158643543Y-92238087D01*
X158663498Y-92010000D01*
X158662557Y-91999249D01*
X158643543Y-91781918D01*
X158643543Y-91781913D01*
X158584284Y-91560757D01*
X158579268Y-91550001D01*
X158528345Y-91440795D01*
X158487523Y-91353251D01*
X158356198Y-91165700D01*
X158194300Y-91003802D01*
X158006749Y-90872477D01*
X158006745Y-90872475D01*
X157799249Y-90775718D01*
X157799238Y-90775714D01*
X157578089Y-90716457D01*
X157578081Y-90716456D01*
X157350002Y-90696502D01*
X157349998Y-90696502D01*
X157121918Y-90716456D01*
X157121910Y-90716457D01*
X156900761Y-90775714D01*
X156900750Y-90775718D01*
X156693254Y-90872475D01*
X156693252Y-90872476D01*
X156663581Y-90893252D01*
X156505700Y-91003802D01*
X156505698Y-91003803D01*
X156505695Y-91003806D01*
X156343806Y-91165695D01*
X156343803Y-91165698D01*
X156343802Y-91165700D01*
X156261767Y-91282856D01*
X156212476Y-91353252D01*
X156212475Y-91353254D01*
X156115718Y-91560750D01*
X156115714Y-91560761D01*
X156056457Y-91781910D01*
X156056456Y-91781918D01*
X156036502Y-92009998D01*
X156036502Y-92010001D01*
X155339267Y-92010001D01*
X155344284Y-91999243D01*
X155403543Y-91778087D01*
X155422557Y-91560757D01*
X155423498Y-91550001D01*
X155423498Y-91549998D01*
X155409125Y-91385714D01*
X155403543Y-91321913D01*
X155344284Y-91100757D01*
X155343516Y-91099111D01*
X155247524Y-90893254D01*
X155247523Y-90893252D01*
X155247523Y-90893251D01*
X155116198Y-90705700D01*
X154954300Y-90543802D01*
X154766749Y-90412477D01*
X154766745Y-90412475D01*
X154559249Y-90315718D01*
X154559238Y-90315714D01*
X154338089Y-90256457D01*
X154338081Y-90256456D01*
X154110002Y-90236502D01*
X154109998Y-90236502D01*
X153881918Y-90256456D01*
X153881910Y-90256457D01*
X153660761Y-90315714D01*
X153660750Y-90315718D01*
X153453254Y-90412475D01*
X153453252Y-90412476D01*
X153453251Y-90412477D01*
X153265700Y-90543802D01*
X153265698Y-90543803D01*
X153265695Y-90543806D01*
X153103806Y-90705695D01*
X152972476Y-90893252D01*
X152972475Y-90893254D01*
X152875718Y-91100750D01*
X152875714Y-91100761D01*
X152816457Y-91321910D01*
X152816456Y-91321918D01*
X152796502Y-91549998D01*
X152796502Y-91550001D01*
X145263498Y-91550001D01*
X145263498Y-91549998D01*
X145249125Y-91385714D01*
X145243543Y-91321913D01*
X145184284Y-91100757D01*
X145183516Y-91099111D01*
X145087524Y-90893254D01*
X145087523Y-90893252D01*
X145087523Y-90893251D01*
X144956198Y-90705700D01*
X144794300Y-90543802D01*
X144606749Y-90412477D01*
X144606745Y-90412475D01*
X144399249Y-90315718D01*
X144399238Y-90315714D01*
X144178089Y-90256457D01*
X144178081Y-90256456D01*
X143950002Y-90236502D01*
X143949998Y-90236502D01*
X143721918Y-90256456D01*
X143721910Y-90256457D01*
X143500761Y-90315714D01*
X143500750Y-90315718D01*
X143293254Y-90412475D01*
X143293252Y-90412476D01*
X143293251Y-90412477D01*
X143105700Y-90543802D01*
X143105698Y-90543803D01*
X143105695Y-90543806D01*
X142943806Y-90705695D01*
X142812476Y-90893252D01*
X142812475Y-90893254D01*
X142715718Y-91100750D01*
X142715714Y-91100761D01*
X142656457Y-91321910D01*
X142656456Y-91321918D01*
X142636502Y-91549998D01*
X142636502Y-91550001D01*
X140253183Y-91550001D01*
X140156749Y-91482477D01*
X140156745Y-91482475D01*
X139949249Y-91385718D01*
X139949238Y-91385714D01*
X139728089Y-91326457D01*
X139728081Y-91326456D01*
X139500002Y-91306502D01*
X139499998Y-91306502D01*
X139271918Y-91326456D01*
X139271910Y-91326457D01*
X139050761Y-91385714D01*
X139050750Y-91385718D01*
X138843254Y-91482475D01*
X138843252Y-91482476D01*
X138772856Y-91531767D01*
X138655700Y-91613802D01*
X138655698Y-91613803D01*
X138655695Y-91613806D01*
X138493806Y-91775695D01*
X138493803Y-91775698D01*
X138493802Y-91775700D01*
X138450090Y-91838126D01*
X138362476Y-91963251D01*
X138342382Y-92006345D01*
X138296209Y-92058784D01*
X138229016Y-92077936D01*
X138162135Y-92057720D01*
X138117618Y-92006345D01*
X138097523Y-91963251D01*
X137966198Y-91775700D01*
X137804300Y-91613802D01*
X137616749Y-91482477D01*
X137616745Y-91482475D01*
X137409249Y-91385718D01*
X137409238Y-91385714D01*
X137188089Y-91326457D01*
X137188081Y-91326456D01*
X136960002Y-91306502D01*
X136959998Y-91306502D01*
X136731918Y-91326456D01*
X136731910Y-91326457D01*
X136510761Y-91385714D01*
X136510750Y-91385718D01*
X136303254Y-91482475D01*
X136303252Y-91482476D01*
X136232856Y-91531767D01*
X136115700Y-91613802D01*
X136115698Y-91613803D01*
X136115695Y-91613806D01*
X135953806Y-91775695D01*
X135953803Y-91775698D01*
X135953802Y-91775700D01*
X135910090Y-91838126D01*
X135822476Y-91963251D01*
X135802382Y-92006345D01*
X135756209Y-92058784D01*
X135689016Y-92077936D01*
X135622135Y-92057720D01*
X135577618Y-92006345D01*
X135557523Y-91963251D01*
X135426198Y-91775700D01*
X135264300Y-91613802D01*
X135076749Y-91482477D01*
X135076745Y-91482475D01*
X134869249Y-91385718D01*
X134869238Y-91385714D01*
X134648089Y-91326457D01*
X134648081Y-91326456D01*
X134420002Y-91306502D01*
X134419998Y-91306502D01*
X134191918Y-91326456D01*
X134191910Y-91326457D01*
X133970761Y-91385714D01*
X133970750Y-91385718D01*
X133763254Y-91482475D01*
X133763252Y-91482476D01*
X133692856Y-91531767D01*
X133575700Y-91613802D01*
X133575698Y-91613803D01*
X133575695Y-91613806D01*
X133413806Y-91775695D01*
X133413803Y-91775698D01*
X133413802Y-91775700D01*
X133370090Y-91838126D01*
X133282476Y-91963251D01*
X133262382Y-92006345D01*
X133216209Y-92058784D01*
X133149016Y-92077936D01*
X133082135Y-92057720D01*
X133037618Y-92006345D01*
X133017523Y-91963251D01*
X132886198Y-91775700D01*
X132724300Y-91613802D01*
X132536749Y-91482477D01*
X132536745Y-91482475D01*
X132329249Y-91385718D01*
X132329238Y-91385714D01*
X132108089Y-91326457D01*
X132108081Y-91326456D01*
X131880002Y-91306502D01*
X131879998Y-91306502D01*
X131651918Y-91326456D01*
X131651910Y-91326457D01*
X131430761Y-91385714D01*
X131430750Y-91385718D01*
X131223254Y-91482475D01*
X131223252Y-91482476D01*
X131152856Y-91531767D01*
X131035700Y-91613802D01*
X131035698Y-91613803D01*
X131035695Y-91613806D01*
X130873806Y-91775695D01*
X130873803Y-91775698D01*
X130873802Y-91775700D01*
X130813041Y-91862475D01*
X130742476Y-91963252D01*
X130742475Y-91963254D01*
X130645718Y-92170750D01*
X130645714Y-92170761D01*
X130586457Y-92391910D01*
X130586456Y-92391918D01*
X130566502Y-92619998D01*
X130566502Y-92620001D01*
X116752838Y-92620001D01*
X116734284Y-92550757D01*
X116637523Y-92343251D01*
X116506198Y-92155700D01*
X116344300Y-91993802D01*
X116156749Y-91862477D01*
X116156745Y-91862475D01*
X115949249Y-91765718D01*
X115949238Y-91765714D01*
X115728089Y-91706457D01*
X115728081Y-91706456D01*
X115500002Y-91686502D01*
X115499998Y-91686502D01*
X115271918Y-91706456D01*
X115271910Y-91706457D01*
X115050761Y-91765714D01*
X115050750Y-91765718D01*
X114843254Y-91862475D01*
X114843252Y-91862476D01*
X114843251Y-91862477D01*
X114655700Y-91993802D01*
X114655698Y-91993803D01*
X114655695Y-91993806D01*
X114493806Y-92155695D01*
X114493803Y-92155698D01*
X114493802Y-92155700D01*
X114411767Y-92272856D01*
X114362476Y-92343252D01*
X114362475Y-92343254D01*
X114265718Y-92550750D01*
X114265714Y-92550761D01*
X114206457Y-92771910D01*
X114206456Y-92771918D01*
X114186502Y-92999998D01*
X114186502Y-93000001D01*
X100500500Y-93000001D01*
X100500500Y-91298654D01*
X124741500Y-91298654D01*
X124748011Y-91359202D01*
X124748011Y-91359204D01*
X124793990Y-91482475D01*
X124799111Y-91496204D01*
X124886739Y-91613261D01*
X125003796Y-91700889D01*
X125140799Y-91751989D01*
X125168050Y-91754918D01*
X125201345Y-91758499D01*
X125201362Y-91758500D01*
X126998638Y-91758500D01*
X126998654Y-91758499D01*
X127025692Y-91755591D01*
X127059201Y-91751989D01*
X127196204Y-91700889D01*
X127313261Y-91613261D01*
X127400889Y-91496204D01*
X127451989Y-91359201D01*
X127457655Y-91306502D01*
X127458499Y-91298654D01*
X127458500Y-91298637D01*
X127458500Y-89501362D01*
X127458499Y-89501345D01*
X127452897Y-89449249D01*
X127451989Y-89440799D01*
X127400889Y-89303796D01*
X127313261Y-89186739D01*
X127196204Y-89099111D01*
X127059203Y-89048011D01*
X126998654Y-89041500D01*
X126998638Y-89041500D01*
X125201362Y-89041500D01*
X125201345Y-89041500D01*
X125140797Y-89048011D01*
X125140795Y-89048011D01*
X125003795Y-89099111D01*
X124886739Y-89186739D01*
X124799111Y-89303795D01*
X124748011Y-89440795D01*
X124748011Y-89440797D01*
X124741500Y-89501345D01*
X124741500Y-91298654D01*
X100500500Y-91298654D01*
X100500500Y-89611374D01*
X100520185Y-89544335D01*
X100572989Y-89498580D01*
X100642147Y-89488636D01*
X100705703Y-89517661D01*
X100736882Y-89558970D01*
X100782477Y-89656749D01*
X100913802Y-89844300D01*
X101075700Y-90006198D01*
X101263251Y-90137523D01*
X101388091Y-90195736D01*
X101470750Y-90234281D01*
X101470752Y-90234281D01*
X101470757Y-90234284D01*
X101691913Y-90293543D01*
X101854832Y-90307796D01*
X101919998Y-90313498D01*
X101920000Y-90313498D01*
X101920002Y-90313498D01*
X101977021Y-90308509D01*
X102148087Y-90293543D01*
X102369243Y-90234284D01*
X102576749Y-90137523D01*
X102764300Y-90006198D01*
X102926198Y-89844300D01*
X103057523Y-89656749D01*
X103154284Y-89449243D01*
X103213543Y-89228087D01*
X103233498Y-89000001D01*
X110766502Y-89000001D01*
X110786456Y-89228081D01*
X110786457Y-89228089D01*
X110845714Y-89449238D01*
X110845718Y-89449249D01*
X110896882Y-89558970D01*
X110942477Y-89656749D01*
X111073802Y-89844300D01*
X111235700Y-90006198D01*
X111423251Y-90137523D01*
X111548091Y-90195736D01*
X111630750Y-90234281D01*
X111630752Y-90234281D01*
X111630757Y-90234284D01*
X111851913Y-90293543D01*
X112014832Y-90307796D01*
X112079998Y-90313498D01*
X112080000Y-90313498D01*
X112080002Y-90313498D01*
X112137021Y-90308509D01*
X112308087Y-90293543D01*
X112529243Y-90234284D01*
X112736749Y-90137523D01*
X112924300Y-90006198D01*
X113086198Y-89844300D01*
X113217523Y-89656749D01*
X113314284Y-89449243D01*
X113373543Y-89228087D01*
X113393498Y-89000000D01*
X113373543Y-88771913D01*
X113314284Y-88550757D01*
X113309836Y-88541219D01*
X113217524Y-88343254D01*
X113217523Y-88343252D01*
X113217523Y-88343251D01*
X113086198Y-88155700D01*
X112924300Y-87993802D01*
X112736749Y-87862477D01*
X112736745Y-87862475D01*
X112529249Y-87765718D01*
X112529238Y-87765714D01*
X112308089Y-87706457D01*
X112308081Y-87706456D01*
X112080002Y-87686502D01*
X112079998Y-87686502D01*
X111851918Y-87706456D01*
X111851910Y-87706457D01*
X111630761Y-87765714D01*
X111630750Y-87765718D01*
X111423254Y-87862475D01*
X111423252Y-87862476D01*
X111414952Y-87868288D01*
X111235700Y-87993802D01*
X111235698Y-87993803D01*
X111235695Y-87993806D01*
X111073806Y-88155695D01*
X110942476Y-88343252D01*
X110942475Y-88343254D01*
X110845718Y-88550750D01*
X110845714Y-88550761D01*
X110786457Y-88771910D01*
X110786456Y-88771918D01*
X110766502Y-88999998D01*
X110766502Y-89000001D01*
X103233498Y-89000001D01*
X103233498Y-89000000D01*
X103213543Y-88771913D01*
X103154284Y-88550757D01*
X103149836Y-88541219D01*
X103057524Y-88343254D01*
X103057523Y-88343252D01*
X103057523Y-88343251D01*
X102926198Y-88155700D01*
X102764300Y-87993802D01*
X102576749Y-87862477D01*
X102576745Y-87862475D01*
X102369249Y-87765718D01*
X102369238Y-87765714D01*
X102148089Y-87706457D01*
X102148081Y-87706456D01*
X101920002Y-87686502D01*
X101919998Y-87686502D01*
X101691918Y-87706456D01*
X101691910Y-87706457D01*
X101470761Y-87765714D01*
X101470750Y-87765718D01*
X101263254Y-87862475D01*
X101263252Y-87862476D01*
X101254952Y-87868288D01*
X101075700Y-87993802D01*
X101075698Y-87993803D01*
X101075695Y-87993806D01*
X100913806Y-88155695D01*
X100782476Y-88343251D01*
X100736882Y-88441030D01*
X100690710Y-88493469D01*
X100623516Y-88512621D01*
X100556635Y-88492405D01*
X100511300Y-88439240D01*
X100500500Y-88388625D01*
X100500500Y-86943542D01*
X117291500Y-86943542D01*
X117298011Y-87004090D01*
X117298011Y-87004092D01*
X117349111Y-87141092D01*
X117436739Y-87258149D01*
X117436742Y-87258151D01*
X117446955Y-87265797D01*
X117488826Y-87321731D01*
X117493810Y-87391423D01*
X117474225Y-87436179D01*
X117469867Y-87442403D01*
X117469865Y-87442406D01*
X117373734Y-87648561D01*
X117373730Y-87648570D01*
X117314860Y-87868277D01*
X117314858Y-87868288D01*
X117295034Y-88094885D01*
X117295034Y-88094890D01*
X117314858Y-88321487D01*
X117314860Y-88321498D01*
X117373730Y-88541205D01*
X117373735Y-88541219D01*
X117469863Y-88747366D01*
X117520974Y-88820360D01*
X118200000Y-88141334D01*
X118200000Y-88147549D01*
X118227259Y-88249282D01*
X118279920Y-88340494D01*
X118354394Y-88414968D01*
X118445606Y-88467629D01*
X118547339Y-88494888D01*
X118553553Y-88494888D01*
X117874526Y-89173913D01*
X117947513Y-89225020D01*
X117947521Y-89225024D01*
X118153668Y-89321152D01*
X118153682Y-89321157D01*
X118373389Y-89380027D01*
X118373400Y-89380029D01*
X118599998Y-89399854D01*
X118600002Y-89399854D01*
X118826599Y-89380029D01*
X118826610Y-89380027D01*
X119046317Y-89321157D01*
X119046331Y-89321152D01*
X119252478Y-89225024D01*
X119325471Y-89173912D01*
X118646447Y-88494888D01*
X118652661Y-88494888D01*
X118754394Y-88467629D01*
X118845606Y-88414968D01*
X118920080Y-88340494D01*
X118972741Y-88249282D01*
X119000000Y-88147549D01*
X119000000Y-88141335D01*
X119679024Y-88820359D01*
X119730136Y-88747366D01*
X119826264Y-88541219D01*
X119826269Y-88541205D01*
X119885139Y-88321498D01*
X119885141Y-88321487D01*
X119904966Y-88094890D01*
X119904966Y-88094885D01*
X119885141Y-87868288D01*
X119885139Y-87868277D01*
X119826269Y-87648570D01*
X119826265Y-87648561D01*
X119730133Y-87442404D01*
X119730132Y-87442402D01*
X119725782Y-87436190D01*
X119703453Y-87369984D01*
X119720462Y-87302217D01*
X119753047Y-87265795D01*
X119763258Y-87258151D01*
X119763257Y-87258151D01*
X119763261Y-87258149D01*
X119850889Y-87141092D01*
X119901989Y-87004089D01*
X119905591Y-86970580D01*
X119908499Y-86943542D01*
X119908500Y-86943525D01*
X119908500Y-85648654D01*
X124741500Y-85648654D01*
X124748011Y-85709202D01*
X124748011Y-85709204D01*
X124795542Y-85836635D01*
X124799111Y-85846204D01*
X124886739Y-85963261D01*
X125003796Y-86050889D01*
X125140799Y-86101989D01*
X125168050Y-86104918D01*
X125201345Y-86108499D01*
X125201362Y-86108500D01*
X126998638Y-86108500D01*
X126998654Y-86108499D01*
X127025692Y-86105591D01*
X127059201Y-86101989D01*
X127196204Y-86050889D01*
X127313261Y-85963261D01*
X127400889Y-85846204D01*
X127451989Y-85709201D01*
X127457628Y-85656750D01*
X127458499Y-85648654D01*
X127458500Y-85648637D01*
X127458500Y-84749999D01*
X130601127Y-84749999D01*
X130601128Y-84750000D01*
X131564314Y-84750000D01*
X131559920Y-84754394D01*
X131507259Y-84845606D01*
X131480000Y-84947339D01*
X131480000Y-85052661D01*
X131507259Y-85154394D01*
X131559920Y-85245606D01*
X131564314Y-85250000D01*
X130601128Y-85250000D01*
X130653730Y-85446317D01*
X130653734Y-85446326D01*
X130749865Y-85652482D01*
X130880342Y-85838820D01*
X131041179Y-85999657D01*
X131227517Y-86130134D01*
X131433673Y-86226265D01*
X131433682Y-86226269D01*
X131629999Y-86278872D01*
X131630000Y-86278871D01*
X131630000Y-85315686D01*
X131634394Y-85320080D01*
X131725606Y-85372741D01*
X131827339Y-85400000D01*
X131932661Y-85400000D01*
X132034394Y-85372741D01*
X132125606Y-85320080D01*
X132130000Y-85315686D01*
X132130000Y-86278872D01*
X132326317Y-86226269D01*
X132326326Y-86226265D01*
X132532482Y-86130134D01*
X132718820Y-85999657D01*
X132879657Y-85838820D01*
X133010133Y-85652483D01*
X133032927Y-85603600D01*
X133079098Y-85551160D01*
X133146292Y-85532007D01*
X133213173Y-85552221D01*
X133257691Y-85603596D01*
X133282477Y-85656749D01*
X133413802Y-85844300D01*
X133575700Y-86006198D01*
X133763251Y-86137523D01*
X133818445Y-86163260D01*
X133970750Y-86234281D01*
X133970752Y-86234281D01*
X133970757Y-86234284D01*
X134191913Y-86293543D01*
X134354832Y-86307796D01*
X134419998Y-86313498D01*
X134420000Y-86313498D01*
X134420002Y-86313498D01*
X134477139Y-86308499D01*
X134648087Y-86293543D01*
X134869243Y-86234284D01*
X135076749Y-86137523D01*
X135264300Y-86006198D01*
X135426198Y-85844300D01*
X135557523Y-85656749D01*
X135577618Y-85613655D01*
X135623790Y-85561215D01*
X135690983Y-85542063D01*
X135757864Y-85562278D01*
X135802382Y-85613655D01*
X135822477Y-85656749D01*
X135953802Y-85844300D01*
X136115700Y-86006198D01*
X136303251Y-86137523D01*
X136358445Y-86163260D01*
X136510750Y-86234281D01*
X136510752Y-86234281D01*
X136510757Y-86234284D01*
X136731913Y-86293543D01*
X136894832Y-86307796D01*
X136959998Y-86313498D01*
X136960000Y-86313498D01*
X136960002Y-86313498D01*
X137017139Y-86308499D01*
X137188087Y-86293543D01*
X137409243Y-86234284D01*
X137616749Y-86137523D01*
X137804300Y-86006198D01*
X137966198Y-85844300D01*
X137971566Y-85836632D01*
X138026139Y-85793008D01*
X138095637Y-85785813D01*
X138157993Y-85817333D01*
X138193409Y-85877562D01*
X138196430Y-85894498D01*
X138198011Y-85909202D01*
X138198011Y-85909204D01*
X138234189Y-86006198D01*
X138249111Y-86046204D01*
X138336739Y-86163261D01*
X138453796Y-86250889D01*
X138590799Y-86301989D01*
X138618050Y-86304918D01*
X138651345Y-86308499D01*
X138651362Y-86308500D01*
X140348638Y-86308500D01*
X140348654Y-86308499D01*
X140375692Y-86305591D01*
X140409201Y-86301989D01*
X140546204Y-86250889D01*
X140663261Y-86163261D01*
X140750889Y-86046204D01*
X140801989Y-85909201D01*
X140805591Y-85875692D01*
X140808499Y-85848654D01*
X140808500Y-85848637D01*
X140808500Y-85550001D01*
X162086502Y-85550001D01*
X162106456Y-85778081D01*
X162106457Y-85778089D01*
X162165714Y-85999238D01*
X162165718Y-85999249D01*
X162230197Y-86137524D01*
X162262477Y-86206749D01*
X162393802Y-86394300D01*
X162555700Y-86556198D01*
X162743251Y-86687523D01*
X162868091Y-86745736D01*
X162950750Y-86784281D01*
X162950752Y-86784281D01*
X162950757Y-86784284D01*
X163171913Y-86843543D01*
X163334832Y-86857796D01*
X163399998Y-86863498D01*
X163400000Y-86863498D01*
X163400002Y-86863498D01*
X163457021Y-86858509D01*
X163628087Y-86843543D01*
X163849243Y-86784284D01*
X164056749Y-86687523D01*
X164244300Y-86556198D01*
X164406198Y-86394300D01*
X164537523Y-86206749D01*
X164634284Y-85999243D01*
X164693543Y-85778087D01*
X164713498Y-85550000D01*
X164693543Y-85321913D01*
X164634284Y-85100757D01*
X164537523Y-84893251D01*
X164406198Y-84705700D01*
X164244300Y-84543802D01*
X164056749Y-84412477D01*
X164056745Y-84412475D01*
X163849249Y-84315718D01*
X163849238Y-84315714D01*
X163628089Y-84256457D01*
X163628081Y-84256456D01*
X163400002Y-84236502D01*
X163399998Y-84236502D01*
X163171918Y-84256456D01*
X163171910Y-84256457D01*
X162950761Y-84315714D01*
X162950750Y-84315718D01*
X162743254Y-84412475D01*
X162743252Y-84412476D01*
X162743251Y-84412477D01*
X162555700Y-84543802D01*
X162555698Y-84543803D01*
X162555695Y-84543806D01*
X162393806Y-84705695D01*
X162393803Y-84705698D01*
X162393802Y-84705700D01*
X162327150Y-84800889D01*
X162262476Y-84893252D01*
X162262475Y-84893254D01*
X162165718Y-85100750D01*
X162165714Y-85100761D01*
X162106457Y-85321910D01*
X162106456Y-85321918D01*
X162086502Y-85549998D01*
X162086502Y-85550001D01*
X140808500Y-85550001D01*
X140808500Y-84151362D01*
X140808499Y-84151345D01*
X140805157Y-84120270D01*
X140801989Y-84090799D01*
X140750889Y-83953796D01*
X140663261Y-83836739D01*
X140546204Y-83749111D01*
X140409203Y-83698011D01*
X140348654Y-83691500D01*
X140348638Y-83691500D01*
X138651362Y-83691500D01*
X138651345Y-83691500D01*
X138590797Y-83698011D01*
X138590795Y-83698011D01*
X138453795Y-83749111D01*
X138336739Y-83836739D01*
X138249111Y-83953795D01*
X138198011Y-84090795D01*
X138198011Y-84090797D01*
X138196430Y-84105501D01*
X138169691Y-84170052D01*
X138112298Y-84209899D01*
X138042473Y-84212392D01*
X137982384Y-84176738D01*
X137971574Y-84163379D01*
X137966198Y-84155700D01*
X137804300Y-83993802D01*
X137616749Y-83862477D01*
X137592913Y-83851362D01*
X137409249Y-83765718D01*
X137409238Y-83765714D01*
X137188089Y-83706457D01*
X137188081Y-83706456D01*
X136960002Y-83686502D01*
X136959998Y-83686502D01*
X136731918Y-83706456D01*
X136731910Y-83706457D01*
X136510761Y-83765714D01*
X136510750Y-83765718D01*
X136303254Y-83862475D01*
X136303252Y-83862476D01*
X136303251Y-83862477D01*
X136115700Y-83993802D01*
X136115698Y-83993803D01*
X136115695Y-83993806D01*
X135953806Y-84155695D01*
X135822476Y-84343251D01*
X135802382Y-84386345D01*
X135756209Y-84438784D01*
X135689016Y-84457936D01*
X135622135Y-84437720D01*
X135577618Y-84386345D01*
X135557523Y-84343251D01*
X135538241Y-84315714D01*
X135426198Y-84155700D01*
X135264300Y-83993802D01*
X135076749Y-83862477D01*
X135052913Y-83851362D01*
X134869249Y-83765718D01*
X134869238Y-83765714D01*
X134648089Y-83706457D01*
X134648081Y-83706456D01*
X134420002Y-83686502D01*
X134419998Y-83686502D01*
X134191918Y-83706456D01*
X134191910Y-83706457D01*
X133970761Y-83765714D01*
X133970750Y-83765718D01*
X133763254Y-83862475D01*
X133763252Y-83862476D01*
X133763251Y-83862477D01*
X133575700Y-83993802D01*
X133575698Y-83993803D01*
X133575695Y-83993806D01*
X133413806Y-84155695D01*
X133413803Y-84155698D01*
X133413802Y-84155700D01*
X133374106Y-84212392D01*
X133282476Y-84343252D01*
X133282474Y-84343256D01*
X133257691Y-84396402D01*
X133211518Y-84448841D01*
X133144324Y-84467992D01*
X133077444Y-84447775D01*
X133032927Y-84396399D01*
X133010133Y-84347517D01*
X132879657Y-84161179D01*
X132718820Y-84000342D01*
X132532482Y-83869865D01*
X132326328Y-83773734D01*
X132130000Y-83721127D01*
X132130000Y-84684314D01*
X132125606Y-84679920D01*
X132034394Y-84627259D01*
X131932661Y-84600000D01*
X131827339Y-84600000D01*
X131725606Y-84627259D01*
X131634394Y-84679920D01*
X131630000Y-84684314D01*
X131630000Y-83721127D01*
X131433671Y-83773734D01*
X131227517Y-83869865D01*
X131041179Y-84000342D01*
X130880342Y-84161179D01*
X130749865Y-84347517D01*
X130653734Y-84553673D01*
X130653730Y-84553682D01*
X130601127Y-84749999D01*
X127458500Y-84749999D01*
X127458500Y-83851362D01*
X127458499Y-83851345D01*
X127453731Y-83807007D01*
X127451989Y-83790799D01*
X127442633Y-83765716D01*
X127420530Y-83706456D01*
X127400889Y-83653796D01*
X127313261Y-83536739D01*
X127196204Y-83449111D01*
X127059203Y-83398011D01*
X126998654Y-83391500D01*
X126998638Y-83391500D01*
X125201362Y-83391500D01*
X125201345Y-83391500D01*
X125140797Y-83398011D01*
X125140795Y-83398011D01*
X125003795Y-83449111D01*
X124886739Y-83536739D01*
X124799111Y-83653795D01*
X124748011Y-83790795D01*
X124748011Y-83790797D01*
X124741500Y-83851345D01*
X124741500Y-85648654D01*
X119908500Y-85648654D01*
X119908500Y-85246250D01*
X119908499Y-85246233D01*
X119905157Y-85215158D01*
X119901989Y-85185687D01*
X119850889Y-85048684D01*
X119763261Y-84931627D01*
X119646204Y-84843999D01*
X119645124Y-84843596D01*
X119509203Y-84792899D01*
X119448654Y-84786388D01*
X119448638Y-84786388D01*
X117751362Y-84786388D01*
X117751345Y-84786388D01*
X117690797Y-84792899D01*
X117690795Y-84792899D01*
X117553795Y-84843999D01*
X117436739Y-84931627D01*
X117349111Y-85048683D01*
X117298011Y-85185683D01*
X117298011Y-85185685D01*
X117291500Y-85246233D01*
X117291500Y-86943542D01*
X100500500Y-86943542D01*
X100500500Y-84397844D01*
X105650000Y-84397844D01*
X105656401Y-84457372D01*
X105656403Y-84457379D01*
X105706645Y-84592086D01*
X105706649Y-84592093D01*
X105792809Y-84707187D01*
X105792812Y-84707190D01*
X105907906Y-84793350D01*
X105907913Y-84793354D01*
X106042620Y-84843596D01*
X106042627Y-84843598D01*
X106102155Y-84849999D01*
X106102172Y-84850000D01*
X106750000Y-84850000D01*
X106750000Y-83933012D01*
X106807007Y-83965925D01*
X106934174Y-84000000D01*
X107065826Y-84000000D01*
X107192993Y-83965925D01*
X107250000Y-83933012D01*
X107250000Y-84850000D01*
X107897828Y-84850000D01*
X107897844Y-84849999D01*
X107957372Y-84843598D01*
X107957379Y-84843596D01*
X108092086Y-84793354D01*
X108092093Y-84793350D01*
X108207187Y-84707190D01*
X108207190Y-84707187D01*
X108293350Y-84592093D01*
X108293354Y-84592086D01*
X108343596Y-84457379D01*
X108343598Y-84457372D01*
X108349912Y-84398654D01*
X110041500Y-84398654D01*
X110048011Y-84459202D01*
X110048011Y-84459204D01*
X110083251Y-84553682D01*
X110099111Y-84596204D01*
X110186739Y-84713261D01*
X110303796Y-84800889D01*
X110418297Y-84843596D01*
X110435463Y-84849999D01*
X110440799Y-84851989D01*
X110468050Y-84854918D01*
X110501345Y-84858499D01*
X110501362Y-84858500D01*
X112298638Y-84858500D01*
X112298654Y-84858499D01*
X112325692Y-84855591D01*
X112359201Y-84851989D01*
X112364537Y-84849999D01*
X112381703Y-84843596D01*
X112496204Y-84800889D01*
X112613261Y-84713261D01*
X112700889Y-84596204D01*
X112751989Y-84459201D01*
X112755591Y-84425692D01*
X112758499Y-84398654D01*
X112758500Y-84398637D01*
X112758500Y-82601362D01*
X112758499Y-82601345D01*
X112755157Y-82570270D01*
X112751989Y-82540799D01*
X112747248Y-82528089D01*
X112729522Y-82480564D01*
X112700889Y-82403796D01*
X112613261Y-82286739D01*
X112496204Y-82199111D01*
X112359203Y-82148011D01*
X112298654Y-82141500D01*
X112298638Y-82141500D01*
X110501362Y-82141500D01*
X110501345Y-82141500D01*
X110440797Y-82148011D01*
X110440795Y-82148011D01*
X110303795Y-82199111D01*
X110186739Y-82286739D01*
X110099111Y-82403795D01*
X110048011Y-82540795D01*
X110048011Y-82540797D01*
X110041500Y-82601345D01*
X110041500Y-84398654D01*
X108349912Y-84398654D01*
X108349999Y-84397844D01*
X108350000Y-84397827D01*
X108350000Y-83750000D01*
X107433012Y-83750000D01*
X107465925Y-83692993D01*
X107500000Y-83565826D01*
X107500000Y-83434174D01*
X107465925Y-83307007D01*
X107433012Y-83250000D01*
X108350000Y-83250000D01*
X108350000Y-82602172D01*
X108349999Y-82602155D01*
X108343598Y-82542627D01*
X108343596Y-82542620D01*
X108293354Y-82407913D01*
X108293350Y-82407906D01*
X108207190Y-82292812D01*
X108207187Y-82292809D01*
X108092093Y-82206649D01*
X108092086Y-82206645D01*
X107957379Y-82156403D01*
X107957372Y-82156401D01*
X107897844Y-82150000D01*
X107250000Y-82150000D01*
X107250000Y-83066988D01*
X107192993Y-83034075D01*
X107065826Y-83000000D01*
X106934174Y-83000000D01*
X106807007Y-83034075D01*
X106750000Y-83066988D01*
X106750000Y-82150000D01*
X106102155Y-82150000D01*
X106042627Y-82156401D01*
X106042620Y-82156403D01*
X105907913Y-82206645D01*
X105907906Y-82206649D01*
X105792812Y-82292809D01*
X105792809Y-82292812D01*
X105706649Y-82407906D01*
X105706645Y-82407913D01*
X105656403Y-82542620D01*
X105656401Y-82542627D01*
X105650000Y-82602155D01*
X105650000Y-83250000D01*
X106566988Y-83250000D01*
X106534075Y-83307007D01*
X106500000Y-83434174D01*
X106500000Y-83565826D01*
X106534075Y-83692993D01*
X106566988Y-83750000D01*
X105650000Y-83750000D01*
X105650000Y-84397844D01*
X100500500Y-84397844D01*
X100500500Y-81500001D01*
X134686502Y-81500001D01*
X134706456Y-81728081D01*
X134706457Y-81728089D01*
X134765714Y-81949238D01*
X134765718Y-81949249D01*
X134825797Y-82078089D01*
X134862477Y-82156749D01*
X134993802Y-82344300D01*
X135155700Y-82506198D01*
X135343251Y-82637523D01*
X135465010Y-82694300D01*
X135550750Y-82734281D01*
X135550752Y-82734281D01*
X135550757Y-82734284D01*
X135771913Y-82793543D01*
X135934832Y-82807796D01*
X135999998Y-82813498D01*
X136000000Y-82813498D01*
X136000002Y-82813498D01*
X136057021Y-82808509D01*
X136228087Y-82793543D01*
X136449243Y-82734284D01*
X136656749Y-82637523D01*
X136844300Y-82506198D01*
X137006198Y-82344300D01*
X137037217Y-82300001D01*
X142486502Y-82300001D01*
X142506456Y-82528081D01*
X142506457Y-82528089D01*
X142565714Y-82749238D01*
X142565718Y-82749249D01*
X142662475Y-82956745D01*
X142662477Y-82956749D01*
X142793802Y-83144300D01*
X142955700Y-83306198D01*
X143143251Y-83437523D01*
X143168102Y-83449111D01*
X143350750Y-83534281D01*
X143350752Y-83534281D01*
X143350757Y-83534284D01*
X143571913Y-83593543D01*
X143734832Y-83607796D01*
X143799998Y-83613498D01*
X143800000Y-83613498D01*
X143800002Y-83613498D01*
X143857021Y-83608509D01*
X144028087Y-83593543D01*
X144249243Y-83534284D01*
X144456749Y-83437523D01*
X144644300Y-83306198D01*
X144806198Y-83144300D01*
X144937523Y-82956749D01*
X145034284Y-82749243D01*
X145093543Y-82528087D01*
X145113498Y-82300001D01*
X152646502Y-82300001D01*
X152666456Y-82528081D01*
X152666457Y-82528089D01*
X152725714Y-82749238D01*
X152725718Y-82749249D01*
X152822475Y-82956745D01*
X152822477Y-82956749D01*
X152953802Y-83144300D01*
X153115700Y-83306198D01*
X153303251Y-83437523D01*
X153328102Y-83449111D01*
X153510750Y-83534281D01*
X153510752Y-83534281D01*
X153510757Y-83534284D01*
X153731913Y-83593543D01*
X153894832Y-83607796D01*
X153959998Y-83613498D01*
X153960000Y-83613498D01*
X153960002Y-83613498D01*
X154017021Y-83608509D01*
X154188087Y-83593543D01*
X154409243Y-83534284D01*
X154616749Y-83437523D01*
X154804300Y-83306198D01*
X154966198Y-83144300D01*
X155097523Y-82956749D01*
X155194284Y-82749243D01*
X155253543Y-82528087D01*
X155273498Y-82300000D01*
X155273431Y-82299238D01*
X155265331Y-82206649D01*
X155253543Y-82071913D01*
X155194284Y-81850757D01*
X155193931Y-81850001D01*
X156036502Y-81850001D01*
X156056456Y-82078081D01*
X156056457Y-82078089D01*
X156115714Y-82299238D01*
X156115718Y-82299249D01*
X156166386Y-82407906D01*
X156212477Y-82506749D01*
X156343802Y-82694300D01*
X156505700Y-82856198D01*
X156693251Y-82987523D01*
X156793083Y-83034075D01*
X156900750Y-83084281D01*
X156900752Y-83084281D01*
X156900757Y-83084284D01*
X157121913Y-83143543D01*
X157284832Y-83157796D01*
X157349998Y-83163498D01*
X157350000Y-83163498D01*
X157350002Y-83163498D01*
X157407021Y-83158509D01*
X157578087Y-83143543D01*
X157799243Y-83084284D01*
X158006749Y-82987523D01*
X158194300Y-82856198D01*
X158356198Y-82694300D01*
X158487523Y-82506749D01*
X158584284Y-82299243D01*
X158643543Y-82078087D01*
X158662317Y-81863498D01*
X158663498Y-81850001D01*
X158663498Y-81849998D01*
X158645410Y-81643252D01*
X158643543Y-81621913D01*
X158584284Y-81400757D01*
X158487523Y-81193251D01*
X158356198Y-81005700D01*
X158194300Y-80843802D01*
X158006749Y-80712477D01*
X158006745Y-80712475D01*
X157799249Y-80615718D01*
X157799238Y-80615714D01*
X157578089Y-80556457D01*
X157578081Y-80556456D01*
X157504299Y-80550001D01*
X162086502Y-80550001D01*
X162106456Y-80778081D01*
X162106457Y-80778089D01*
X162165714Y-80999238D01*
X162165718Y-80999249D01*
X162256183Y-81193251D01*
X162262477Y-81206749D01*
X162393802Y-81394300D01*
X162555700Y-81556198D01*
X162743251Y-81687523D01*
X162830246Y-81728089D01*
X162950750Y-81784281D01*
X162950752Y-81784281D01*
X162950757Y-81784284D01*
X163171913Y-81843543D01*
X163334832Y-81857796D01*
X163399998Y-81863498D01*
X163400000Y-81863498D01*
X163400002Y-81863498D01*
X163457021Y-81858509D01*
X163628087Y-81843543D01*
X163849243Y-81784284D01*
X164056749Y-81687523D01*
X164244300Y-81556198D01*
X164406198Y-81394300D01*
X164537523Y-81206749D01*
X164634284Y-80999243D01*
X164693543Y-80778087D01*
X164713498Y-80550000D01*
X164693543Y-80321913D01*
X164634284Y-80100757D01*
X164537523Y-79893251D01*
X164406198Y-79705700D01*
X164244300Y-79543802D01*
X164056749Y-79412477D01*
X164056745Y-79412475D01*
X163849249Y-79315718D01*
X163849238Y-79315714D01*
X163628089Y-79256457D01*
X163628081Y-79256456D01*
X163400002Y-79236502D01*
X163399998Y-79236502D01*
X163171918Y-79256456D01*
X163171910Y-79256457D01*
X162950761Y-79315714D01*
X162950750Y-79315718D01*
X162743254Y-79412475D01*
X162743252Y-79412476D01*
X162743251Y-79412477D01*
X162555700Y-79543802D01*
X162555698Y-79543803D01*
X162555695Y-79543806D01*
X162393806Y-79705695D01*
X162393803Y-79705698D01*
X162393802Y-79705700D01*
X162357748Y-79757190D01*
X162262476Y-79893252D01*
X162262475Y-79893254D01*
X162165718Y-80100750D01*
X162165714Y-80100761D01*
X162106457Y-80321910D01*
X162106456Y-80321918D01*
X162086502Y-80549998D01*
X162086502Y-80550001D01*
X157504299Y-80550001D01*
X157350002Y-80536502D01*
X157349998Y-80536502D01*
X157121918Y-80556456D01*
X157121910Y-80556457D01*
X156900761Y-80615714D01*
X156900750Y-80615718D01*
X156693254Y-80712475D01*
X156693252Y-80712476D01*
X156693251Y-80712477D01*
X156505700Y-80843802D01*
X156505698Y-80843803D01*
X156505695Y-80843806D01*
X156343806Y-81005695D01*
X156212476Y-81193252D01*
X156212475Y-81193254D01*
X156115718Y-81400750D01*
X156115714Y-81400761D01*
X156056457Y-81621910D01*
X156056456Y-81621918D01*
X156036502Y-81849998D01*
X156036502Y-81850001D01*
X155193931Y-81850001D01*
X155137082Y-81728087D01*
X155097523Y-81643251D01*
X154966198Y-81455700D01*
X154804300Y-81293802D01*
X154616749Y-81162477D01*
X154616745Y-81162475D01*
X154409249Y-81065718D01*
X154409238Y-81065714D01*
X154188089Y-81006457D01*
X154188081Y-81006456D01*
X153960002Y-80986502D01*
X153959998Y-80986502D01*
X153731918Y-81006456D01*
X153731910Y-81006457D01*
X153510761Y-81065714D01*
X153510750Y-81065718D01*
X153303254Y-81162475D01*
X153303252Y-81162476D01*
X153303251Y-81162477D01*
X153115700Y-81293802D01*
X153115698Y-81293803D01*
X153115695Y-81293806D01*
X152953806Y-81455695D01*
X152822476Y-81643252D01*
X152822475Y-81643254D01*
X152725718Y-81850750D01*
X152725714Y-81850761D01*
X152666457Y-82071910D01*
X152666456Y-82071918D01*
X152646502Y-82299998D01*
X152646502Y-82300001D01*
X145113498Y-82300001D01*
X145113498Y-82300000D01*
X145113431Y-82299238D01*
X145105331Y-82206649D01*
X145093543Y-82071913D01*
X145034284Y-81850757D01*
X145033931Y-81850001D01*
X144977082Y-81728087D01*
X144937523Y-81643251D01*
X144806198Y-81455700D01*
X144644300Y-81293802D01*
X144456749Y-81162477D01*
X144456745Y-81162475D01*
X144249249Y-81065718D01*
X144249238Y-81065714D01*
X144028089Y-81006457D01*
X144028081Y-81006456D01*
X143800002Y-80986502D01*
X143799998Y-80986502D01*
X143571918Y-81006456D01*
X143571910Y-81006457D01*
X143350761Y-81065714D01*
X143350750Y-81065718D01*
X143143254Y-81162475D01*
X143143252Y-81162476D01*
X143143251Y-81162477D01*
X142955700Y-81293802D01*
X142955698Y-81293803D01*
X142955695Y-81293806D01*
X142793806Y-81455695D01*
X142662476Y-81643252D01*
X142662475Y-81643254D01*
X142565718Y-81850750D01*
X142565714Y-81850761D01*
X142506457Y-82071910D01*
X142506456Y-82071918D01*
X142486502Y-82299998D01*
X142486502Y-82300001D01*
X137037217Y-82300001D01*
X137137523Y-82156749D01*
X137234284Y-81949243D01*
X137293543Y-81728087D01*
X137313498Y-81500000D01*
X137293543Y-81271913D01*
X137234284Y-81050757D01*
X137213271Y-81005695D01*
X137191591Y-80959201D01*
X137137523Y-80843251D01*
X137006198Y-80655700D01*
X136858660Y-80508162D01*
X136825175Y-80446839D01*
X136830159Y-80377147D01*
X136872031Y-80321214D01*
X136903007Y-80304300D01*
X136997946Y-80268888D01*
X137046204Y-80250889D01*
X137163261Y-80163261D01*
X137250889Y-80046204D01*
X137301989Y-79909201D01*
X137305591Y-79875692D01*
X137308499Y-79848654D01*
X137308500Y-79848637D01*
X137308500Y-78151362D01*
X137308499Y-78151345D01*
X137305157Y-78120270D01*
X137301989Y-78090799D01*
X137250889Y-77953796D01*
X137163261Y-77836739D01*
X137046204Y-77749111D01*
X136909203Y-77698011D01*
X136848654Y-77691500D01*
X136848638Y-77691500D01*
X135151362Y-77691500D01*
X135151345Y-77691500D01*
X135090797Y-77698011D01*
X135090795Y-77698011D01*
X134953795Y-77749111D01*
X134836739Y-77836739D01*
X134749111Y-77953795D01*
X134698011Y-78090795D01*
X134698011Y-78090797D01*
X134691500Y-78151345D01*
X134691500Y-79848654D01*
X134698011Y-79909202D01*
X134698011Y-79909204D01*
X134749111Y-80046204D01*
X134836739Y-80163261D01*
X134953796Y-80250889D01*
X135019775Y-80275498D01*
X135096993Y-80304300D01*
X135152926Y-80346171D01*
X135177342Y-80411636D01*
X135162490Y-80479909D01*
X135141340Y-80508162D01*
X134993803Y-80655699D01*
X134862476Y-80843252D01*
X134862475Y-80843254D01*
X134765718Y-81050750D01*
X134765714Y-81050761D01*
X134706457Y-81271910D01*
X134706456Y-81271918D01*
X134686502Y-81499998D01*
X134686502Y-81500001D01*
X100500500Y-81500001D01*
X100500500Y-80898654D01*
X128141500Y-80898654D01*
X128148011Y-80959202D01*
X128148011Y-80959204D01*
X128187739Y-81065716D01*
X128199111Y-81096204D01*
X128286739Y-81213261D01*
X128403796Y-81300889D01*
X128540799Y-81351989D01*
X128568050Y-81354918D01*
X128601345Y-81358499D01*
X128601362Y-81358500D01*
X130398638Y-81358500D01*
X130398654Y-81358499D01*
X130425692Y-81355591D01*
X130459201Y-81351989D01*
X130596204Y-81300889D01*
X130713261Y-81213261D01*
X130800889Y-81096204D01*
X130851989Y-80959201D01*
X130855591Y-80925692D01*
X130858499Y-80898654D01*
X130858500Y-80898637D01*
X130858500Y-79101362D01*
X130858499Y-79101345D01*
X130852978Y-79050000D01*
X130851989Y-79040799D01*
X130842711Y-79015925D01*
X130815714Y-78943543D01*
X130800889Y-78903796D01*
X130713261Y-78786739D01*
X130596204Y-78699111D01*
X130459203Y-78648011D01*
X130398654Y-78641500D01*
X130398638Y-78641500D01*
X128601362Y-78641500D01*
X128601345Y-78641500D01*
X128540797Y-78648011D01*
X128540795Y-78648011D01*
X128403795Y-78699111D01*
X128286739Y-78786739D01*
X128199111Y-78903795D01*
X128148011Y-79040795D01*
X128148011Y-79040797D01*
X128141500Y-79101345D01*
X128141500Y-80898654D01*
X100500500Y-80898654D01*
X100500500Y-79447844D01*
X101650000Y-79447844D01*
X101656401Y-79507372D01*
X101656403Y-79507379D01*
X101706645Y-79642086D01*
X101706649Y-79642093D01*
X101792809Y-79757187D01*
X101792812Y-79757190D01*
X101907906Y-79843350D01*
X101907913Y-79843354D01*
X102042620Y-79893596D01*
X102042627Y-79893598D01*
X102102155Y-79899999D01*
X102102172Y-79900000D01*
X102750000Y-79900000D01*
X102750000Y-78983012D01*
X102807007Y-79015925D01*
X102934174Y-79050000D01*
X103065826Y-79050000D01*
X103192993Y-79015925D01*
X103250000Y-78983012D01*
X103250000Y-79900000D01*
X103897828Y-79900000D01*
X103897844Y-79899999D01*
X103957372Y-79893598D01*
X103957379Y-79893596D01*
X104092086Y-79843354D01*
X104092093Y-79843350D01*
X104207187Y-79757190D01*
X104207190Y-79757187D01*
X104293350Y-79642093D01*
X104293354Y-79642086D01*
X104343596Y-79507379D01*
X104343598Y-79507372D01*
X104349999Y-79447844D01*
X104350000Y-79447827D01*
X104350000Y-78800000D01*
X103433012Y-78800000D01*
X103465925Y-78742993D01*
X103500000Y-78615826D01*
X103500000Y-78484174D01*
X103465925Y-78357007D01*
X103433012Y-78300000D01*
X104350000Y-78300000D01*
X104350000Y-77652172D01*
X104349999Y-77652155D01*
X104343598Y-77592627D01*
X104343596Y-77592620D01*
X104293354Y-77457913D01*
X104293350Y-77457906D01*
X104250001Y-77399999D01*
X108811127Y-77399999D01*
X108811128Y-77400000D01*
X109774314Y-77400000D01*
X109769920Y-77404394D01*
X109717259Y-77495606D01*
X109690000Y-77597339D01*
X109690000Y-77702661D01*
X109717259Y-77804394D01*
X109769920Y-77895606D01*
X109774314Y-77900000D01*
X108811128Y-77900000D01*
X108863730Y-78096317D01*
X108863734Y-78096326D01*
X108959865Y-78302482D01*
X109090342Y-78488820D01*
X109251179Y-78649657D01*
X109437517Y-78780134D01*
X109643673Y-78876265D01*
X109643682Y-78876269D01*
X109839999Y-78928872D01*
X109840000Y-78928871D01*
X109840000Y-77965686D01*
X109844394Y-77970080D01*
X109935606Y-78022741D01*
X110037339Y-78050000D01*
X110142661Y-78050000D01*
X110244394Y-78022741D01*
X110335606Y-77970080D01*
X110340000Y-77965686D01*
X110340000Y-78928872D01*
X110536317Y-78876269D01*
X110536326Y-78876265D01*
X110742482Y-78780134D01*
X110928820Y-78649657D01*
X111089657Y-78488820D01*
X111220134Y-78302482D01*
X111316265Y-78096326D01*
X111316269Y-78096317D01*
X111368872Y-77900000D01*
X110405686Y-77900000D01*
X110410080Y-77895606D01*
X110462741Y-77804394D01*
X110490000Y-77702661D01*
X110490000Y-77650001D01*
X118936502Y-77650001D01*
X118956456Y-77878081D01*
X118956457Y-77878089D01*
X119015714Y-78099238D01*
X119015718Y-78099249D01*
X119084860Y-78247524D01*
X119112477Y-78306749D01*
X119243802Y-78494300D01*
X119405700Y-78656198D01*
X119593251Y-78787523D01*
X119718091Y-78845736D01*
X119800750Y-78884281D01*
X119800752Y-78884281D01*
X119800757Y-78884284D01*
X120021913Y-78943543D01*
X120184832Y-78957796D01*
X120249998Y-78963498D01*
X120250000Y-78963498D01*
X120250002Y-78963498D01*
X120307021Y-78958509D01*
X120478087Y-78943543D01*
X120699243Y-78884284D01*
X120906749Y-78787523D01*
X121094300Y-78656198D01*
X121256198Y-78494300D01*
X121387523Y-78306749D01*
X121484284Y-78099243D01*
X121543543Y-77878087D01*
X121563308Y-77652172D01*
X121563498Y-77650001D01*
X121563498Y-77649998D01*
X121549990Y-77495606D01*
X121543543Y-77421913D01*
X121484284Y-77200757D01*
X121466930Y-77163542D01*
X121407691Y-77036502D01*
X121387523Y-76993251D01*
X121256198Y-76805700D01*
X121094300Y-76643802D01*
X120906749Y-76512477D01*
X120844940Y-76483655D01*
X120699249Y-76415718D01*
X120699238Y-76415714D01*
X120478089Y-76356457D01*
X120478081Y-76356456D01*
X120250002Y-76336502D01*
X120249998Y-76336502D01*
X120021918Y-76356456D01*
X120021910Y-76356457D01*
X119800761Y-76415714D01*
X119800750Y-76415718D01*
X119593254Y-76512475D01*
X119593252Y-76512476D01*
X119522856Y-76561767D01*
X119405700Y-76643802D01*
X119405698Y-76643803D01*
X119405695Y-76643806D01*
X119243806Y-76805695D01*
X119243803Y-76805698D01*
X119243802Y-76805700D01*
X119161767Y-76922856D01*
X119112476Y-76993252D01*
X119112475Y-76993254D01*
X119015718Y-77200750D01*
X119015714Y-77200761D01*
X118956457Y-77421910D01*
X118956456Y-77421918D01*
X118936502Y-77649998D01*
X118936502Y-77650001D01*
X110490000Y-77650001D01*
X110490000Y-77597339D01*
X110462741Y-77495606D01*
X110410080Y-77404394D01*
X110405686Y-77400000D01*
X111368872Y-77400000D01*
X111368872Y-77399999D01*
X111316269Y-77203682D01*
X111316265Y-77203673D01*
X111220134Y-76997517D01*
X111089657Y-76811179D01*
X110928820Y-76650342D01*
X110742482Y-76519865D01*
X110536328Y-76423734D01*
X110340000Y-76371127D01*
X110340000Y-77334314D01*
X110335606Y-77329920D01*
X110244394Y-77277259D01*
X110142661Y-77250000D01*
X110037339Y-77250000D01*
X109935606Y-77277259D01*
X109844394Y-77329920D01*
X109840000Y-77334314D01*
X109840000Y-76371127D01*
X109643671Y-76423734D01*
X109437517Y-76519865D01*
X109251179Y-76650342D01*
X109090342Y-76811179D01*
X108959865Y-76997517D01*
X108863734Y-77203673D01*
X108863730Y-77203682D01*
X108811127Y-77399999D01*
X104250001Y-77399999D01*
X104207190Y-77342812D01*
X104207187Y-77342809D01*
X104092093Y-77256649D01*
X104092086Y-77256645D01*
X103957379Y-77206403D01*
X103957372Y-77206401D01*
X103897844Y-77200000D01*
X103250000Y-77200000D01*
X103250000Y-78116988D01*
X103192993Y-78084075D01*
X103065826Y-78050000D01*
X102934174Y-78050000D01*
X102807007Y-78084075D01*
X102750000Y-78116988D01*
X102750000Y-77200000D01*
X102102155Y-77200000D01*
X102042627Y-77206401D01*
X102042620Y-77206403D01*
X101907913Y-77256645D01*
X101907906Y-77256649D01*
X101792812Y-77342809D01*
X101792809Y-77342812D01*
X101706649Y-77457906D01*
X101706645Y-77457913D01*
X101656403Y-77592620D01*
X101656401Y-77592627D01*
X101650000Y-77652155D01*
X101650000Y-78300000D01*
X102566988Y-78300000D01*
X102534075Y-78357007D01*
X102500000Y-78484174D01*
X102500000Y-78615826D01*
X102534075Y-78742993D01*
X102566988Y-78800000D01*
X101650000Y-78800000D01*
X101650000Y-79447844D01*
X100500500Y-79447844D01*
X100500500Y-75870001D01*
X125216502Y-75870001D01*
X125236456Y-76098081D01*
X125236457Y-76098089D01*
X125295714Y-76319238D01*
X125295718Y-76319249D01*
X125358205Y-76453252D01*
X125392477Y-76526749D01*
X125523802Y-76714300D01*
X125685700Y-76876198D01*
X125873251Y-77007523D01*
X125978189Y-77056456D01*
X126080750Y-77104281D01*
X126080752Y-77104281D01*
X126080757Y-77104284D01*
X126301913Y-77163543D01*
X126464832Y-77177796D01*
X126529998Y-77183498D01*
X126530000Y-77183498D01*
X126530002Y-77183498D01*
X126587021Y-77178509D01*
X126758087Y-77163543D01*
X126979243Y-77104284D01*
X127186749Y-77007523D01*
X127374300Y-76876198D01*
X127536198Y-76714300D01*
X127667523Y-76526749D01*
X127687618Y-76483655D01*
X127733790Y-76431215D01*
X127800983Y-76412063D01*
X127867864Y-76432278D01*
X127912382Y-76483655D01*
X127932477Y-76526749D01*
X128063802Y-76714300D01*
X128225700Y-76876198D01*
X128413251Y-77007523D01*
X128518189Y-77056456D01*
X128620750Y-77104281D01*
X128620752Y-77104281D01*
X128620757Y-77104284D01*
X128841913Y-77163543D01*
X129004832Y-77177796D01*
X129069998Y-77183498D01*
X129070000Y-77183498D01*
X129070002Y-77183498D01*
X129127021Y-77178509D01*
X129298087Y-77163543D01*
X129519243Y-77104284D01*
X129726749Y-77007523D01*
X129914300Y-76876198D01*
X130076198Y-76714300D01*
X130207523Y-76526749D01*
X130227618Y-76483655D01*
X130273790Y-76431215D01*
X130340983Y-76412063D01*
X130407864Y-76432278D01*
X130452382Y-76483655D01*
X130472477Y-76526749D01*
X130603802Y-76714300D01*
X130765700Y-76876198D01*
X130953251Y-77007523D01*
X131058189Y-77056456D01*
X131160750Y-77104281D01*
X131160752Y-77104281D01*
X131160757Y-77104284D01*
X131381913Y-77163543D01*
X131544832Y-77177796D01*
X131609998Y-77183498D01*
X131610000Y-77183498D01*
X131610002Y-77183498D01*
X131667021Y-77178509D01*
X131838087Y-77163543D01*
X132059243Y-77104284D01*
X132266749Y-77007523D01*
X132454300Y-76876198D01*
X132616198Y-76714300D01*
X132747523Y-76526749D01*
X132767618Y-76483655D01*
X132813790Y-76431215D01*
X132880983Y-76412063D01*
X132947864Y-76432278D01*
X132992382Y-76483655D01*
X133012477Y-76526749D01*
X133143802Y-76714300D01*
X133305700Y-76876198D01*
X133493251Y-77007523D01*
X133598189Y-77056456D01*
X133700750Y-77104281D01*
X133700752Y-77104281D01*
X133700757Y-77104284D01*
X133921913Y-77163543D01*
X134084832Y-77177796D01*
X134149998Y-77183498D01*
X134150000Y-77183498D01*
X134150002Y-77183498D01*
X134207021Y-77178509D01*
X134378087Y-77163543D01*
X134577907Y-77110001D01*
X139086502Y-77110001D01*
X139106456Y-77338081D01*
X139106457Y-77338089D01*
X139165714Y-77559238D01*
X139165718Y-77559249D01*
X139228205Y-77693252D01*
X139262477Y-77766749D01*
X139393802Y-77954300D01*
X139555700Y-78116198D01*
X139743251Y-78247523D01*
X139855789Y-78300000D01*
X139950750Y-78344281D01*
X139950752Y-78344281D01*
X139950757Y-78344284D01*
X140171913Y-78403543D01*
X140334832Y-78417796D01*
X140399998Y-78423498D01*
X140400000Y-78423498D01*
X140400002Y-78423498D01*
X140457021Y-78418509D01*
X140628087Y-78403543D01*
X140827907Y-78350001D01*
X146736502Y-78350001D01*
X146756456Y-78578081D01*
X146756457Y-78578089D01*
X146815714Y-78799238D01*
X146815718Y-78799249D01*
X146886061Y-78950099D01*
X146912477Y-79006749D01*
X147043802Y-79194300D01*
X147205700Y-79356198D01*
X147393251Y-79487523D01*
X147513951Y-79543806D01*
X147600750Y-79584281D01*
X147600752Y-79584281D01*
X147600757Y-79584284D01*
X147821913Y-79643543D01*
X147984832Y-79657796D01*
X148049998Y-79663498D01*
X148050000Y-79663498D01*
X148050002Y-79663498D01*
X148107021Y-79658509D01*
X148278087Y-79643543D01*
X148499243Y-79584284D01*
X148706749Y-79487523D01*
X148894300Y-79356198D01*
X149056198Y-79194300D01*
X149187523Y-79006749D01*
X149284284Y-78799243D01*
X149343543Y-78578087D01*
X149363498Y-78350000D01*
X149343543Y-78121913D01*
X149284284Y-77900757D01*
X149187523Y-77693251D01*
X149056198Y-77505700D01*
X148894300Y-77343802D01*
X148706749Y-77212477D01*
X148706745Y-77212475D01*
X148499249Y-77115718D01*
X148499238Y-77115714D01*
X148278089Y-77056457D01*
X148278081Y-77056456D01*
X148050002Y-77036502D01*
X148049998Y-77036502D01*
X147821918Y-77056456D01*
X147821910Y-77056457D01*
X147600761Y-77115714D01*
X147600750Y-77115718D01*
X147393254Y-77212475D01*
X147393252Y-77212476D01*
X147393251Y-77212477D01*
X147205700Y-77343802D01*
X147205698Y-77343803D01*
X147205695Y-77343806D01*
X147043806Y-77505695D01*
X147043803Y-77505698D01*
X147043802Y-77505700D01*
X146961767Y-77622856D01*
X146912476Y-77693252D01*
X146912475Y-77693254D01*
X146815718Y-77900750D01*
X146815714Y-77900761D01*
X146756457Y-78121910D01*
X146756456Y-78121918D01*
X146736502Y-78349998D01*
X146736502Y-78350001D01*
X140827907Y-78350001D01*
X140849243Y-78344284D01*
X141056749Y-78247523D01*
X141244300Y-78116198D01*
X141406198Y-77954300D01*
X141537523Y-77766749D01*
X141634284Y-77559243D01*
X141693543Y-77338087D01*
X141713498Y-77110000D01*
X141693543Y-76881913D01*
X141634284Y-76660757D01*
X141629427Y-76650342D01*
X141571795Y-76526749D01*
X141537523Y-76453251D01*
X141406198Y-76265700D01*
X141244300Y-76103802D01*
X141056749Y-75972477D01*
X141056745Y-75972475D01*
X140849249Y-75875718D01*
X140849238Y-75875714D01*
X140628089Y-75816457D01*
X140628081Y-75816456D01*
X140400002Y-75796502D01*
X140399998Y-75796502D01*
X140171918Y-75816456D01*
X140171910Y-75816457D01*
X139950761Y-75875714D01*
X139950750Y-75875718D01*
X139743254Y-75972475D01*
X139743252Y-75972476D01*
X139743251Y-75972477D01*
X139555700Y-76103802D01*
X139555698Y-76103803D01*
X139555695Y-76103806D01*
X139393806Y-76265695D01*
X139393803Y-76265698D01*
X139393802Y-76265700D01*
X139344226Y-76336502D01*
X139262476Y-76453252D01*
X139262475Y-76453254D01*
X139165718Y-76660750D01*
X139165714Y-76660761D01*
X139106457Y-76881910D01*
X139106456Y-76881918D01*
X139086502Y-77109998D01*
X139086502Y-77110001D01*
X134577907Y-77110001D01*
X134599243Y-77104284D01*
X134806749Y-77007523D01*
X134994300Y-76876198D01*
X135156198Y-76714300D01*
X135287523Y-76526749D01*
X135384284Y-76319243D01*
X135443543Y-76098087D01*
X135463498Y-75870000D01*
X135443543Y-75641913D01*
X135384284Y-75420757D01*
X135287523Y-75213251D01*
X135156198Y-75025700D01*
X134994300Y-74863802D01*
X134806749Y-74732477D01*
X134765538Y-74713260D01*
X134599249Y-74635718D01*
X134599238Y-74635714D01*
X134378089Y-74576457D01*
X134378081Y-74576456D01*
X134150002Y-74556502D01*
X134149998Y-74556502D01*
X133921918Y-74576456D01*
X133921910Y-74576457D01*
X133700761Y-74635714D01*
X133700750Y-74635718D01*
X133493254Y-74732475D01*
X133493252Y-74732476D01*
X133486043Y-74737524D01*
X133305700Y-74863802D01*
X133305698Y-74863803D01*
X133305695Y-74863806D01*
X133143806Y-75025695D01*
X133012476Y-75213251D01*
X132992382Y-75256345D01*
X132946209Y-75308784D01*
X132879016Y-75327936D01*
X132812135Y-75307720D01*
X132767618Y-75256345D01*
X132747523Y-75213251D01*
X132616198Y-75025700D01*
X132454300Y-74863802D01*
X132266749Y-74732477D01*
X132225538Y-74713260D01*
X132059249Y-74635718D01*
X132059238Y-74635714D01*
X131838089Y-74576457D01*
X131838081Y-74576456D01*
X131610002Y-74556502D01*
X131609998Y-74556502D01*
X131381918Y-74576456D01*
X131381910Y-74576457D01*
X131160761Y-74635714D01*
X131160750Y-74635718D01*
X130953254Y-74732475D01*
X130953252Y-74732476D01*
X130946043Y-74737524D01*
X130765700Y-74863802D01*
X130765698Y-74863803D01*
X130765695Y-74863806D01*
X130603806Y-75025695D01*
X130472476Y-75213251D01*
X130452382Y-75256345D01*
X130406209Y-75308784D01*
X130339016Y-75327936D01*
X130272135Y-75307720D01*
X130227618Y-75256345D01*
X130207523Y-75213251D01*
X130076198Y-75025700D01*
X129914300Y-74863802D01*
X129726749Y-74732477D01*
X129685538Y-74713260D01*
X129519249Y-74635718D01*
X129519238Y-74635714D01*
X129298089Y-74576457D01*
X129298081Y-74576456D01*
X129070002Y-74556502D01*
X129069998Y-74556502D01*
X128841918Y-74576456D01*
X128841910Y-74576457D01*
X128620761Y-74635714D01*
X128620750Y-74635718D01*
X128413254Y-74732475D01*
X128413252Y-74732476D01*
X128406043Y-74737524D01*
X128225700Y-74863802D01*
X128225698Y-74863803D01*
X128225695Y-74863806D01*
X128063806Y-75025695D01*
X127932476Y-75213251D01*
X127912382Y-75256345D01*
X127866209Y-75308784D01*
X127799016Y-75327936D01*
X127732135Y-75307720D01*
X127687618Y-75256345D01*
X127667523Y-75213251D01*
X127536198Y-75025700D01*
X127374300Y-74863802D01*
X127186749Y-74732477D01*
X127145538Y-74713260D01*
X126979249Y-74635718D01*
X126979238Y-74635714D01*
X126758089Y-74576457D01*
X126758081Y-74576456D01*
X126530002Y-74556502D01*
X126529998Y-74556502D01*
X126301918Y-74576456D01*
X126301910Y-74576457D01*
X126080761Y-74635714D01*
X126080750Y-74635718D01*
X125873254Y-74732475D01*
X125873252Y-74732476D01*
X125866043Y-74737524D01*
X125685700Y-74863802D01*
X125685698Y-74863803D01*
X125685695Y-74863806D01*
X125523806Y-75025695D01*
X125392476Y-75213252D01*
X125392475Y-75213254D01*
X125295718Y-75420750D01*
X125295714Y-75420761D01*
X125236457Y-75641910D01*
X125236456Y-75641918D01*
X125216502Y-75869998D01*
X125216502Y-75870001D01*
X100500500Y-75870001D01*
X100500500Y-74398654D01*
X101641500Y-74398654D01*
X101648011Y-74459202D01*
X101648011Y-74459204D01*
X101691745Y-74576456D01*
X101699111Y-74596204D01*
X101786739Y-74713261D01*
X101903796Y-74800889D01*
X102040799Y-74851989D01*
X102068050Y-74854918D01*
X102101345Y-74858499D01*
X102101362Y-74858500D01*
X103898638Y-74858500D01*
X103898654Y-74858499D01*
X103925692Y-74855591D01*
X103959201Y-74851989D01*
X104096204Y-74800889D01*
X104213261Y-74713261D01*
X104300889Y-74596204D01*
X104351989Y-74459201D01*
X104355591Y-74425692D01*
X104358499Y-74398654D01*
X104358500Y-74398637D01*
X104358500Y-73600001D01*
X108786502Y-73600001D01*
X108806456Y-73828081D01*
X108806457Y-73828089D01*
X108865714Y-74049238D01*
X108865718Y-74049249D01*
X108962475Y-74256745D01*
X108962477Y-74256749D01*
X109093802Y-74444300D01*
X109255700Y-74606198D01*
X109443251Y-74737523D01*
X109568091Y-74795736D01*
X109650750Y-74834281D01*
X109650752Y-74834281D01*
X109650757Y-74834284D01*
X109871913Y-74893543D01*
X110034832Y-74907796D01*
X110099998Y-74913498D01*
X110100000Y-74913498D01*
X110100002Y-74913498D01*
X110157021Y-74908509D01*
X110328087Y-74893543D01*
X110549243Y-74834284D01*
X110756749Y-74737523D01*
X110944300Y-74606198D01*
X111106198Y-74444300D01*
X111237523Y-74256749D01*
X111334284Y-74049243D01*
X111393543Y-73828087D01*
X111413498Y-73600001D01*
X118946502Y-73600001D01*
X118966456Y-73828081D01*
X118966457Y-73828089D01*
X119025714Y-74049238D01*
X119025718Y-74049249D01*
X119122475Y-74256745D01*
X119122477Y-74256749D01*
X119253802Y-74444300D01*
X119415700Y-74606198D01*
X119603251Y-74737523D01*
X119728091Y-74795736D01*
X119810750Y-74834281D01*
X119810752Y-74834281D01*
X119810757Y-74834284D01*
X120031913Y-74893543D01*
X120194832Y-74907796D01*
X120259998Y-74913498D01*
X120260000Y-74913498D01*
X120260002Y-74913498D01*
X120317021Y-74908509D01*
X120488087Y-74893543D01*
X120709243Y-74834284D01*
X120916749Y-74737523D01*
X121104300Y-74606198D01*
X121266198Y-74444300D01*
X121397523Y-74256749D01*
X121494284Y-74049243D01*
X121553543Y-73828087D01*
X121573498Y-73600000D01*
X121553543Y-73371913D01*
X121547671Y-73350000D01*
X146736502Y-73350000D01*
X146756456Y-73578081D01*
X146756457Y-73578089D01*
X146815714Y-73799238D01*
X146815718Y-73799249D01*
X146912475Y-74006745D01*
X146912477Y-74006749D01*
X147043802Y-74194300D01*
X147205700Y-74356198D01*
X147393251Y-74487523D01*
X147518091Y-74545736D01*
X147600750Y-74584281D01*
X147600752Y-74584281D01*
X147600757Y-74584284D01*
X147821913Y-74643543D01*
X147984832Y-74657796D01*
X148049998Y-74663498D01*
X148050000Y-74663498D01*
X148050002Y-74663498D01*
X148107021Y-74658509D01*
X148278087Y-74643543D01*
X148499243Y-74584284D01*
X148706749Y-74487523D01*
X148894300Y-74356198D01*
X149056198Y-74194300D01*
X149187523Y-74006749D01*
X149284284Y-73799243D01*
X149343543Y-73578087D01*
X149363498Y-73350000D01*
X149343543Y-73121913D01*
X149284284Y-72900757D01*
X149187523Y-72693251D01*
X149056198Y-72505700D01*
X148894300Y-72343802D01*
X148706749Y-72212477D01*
X148706745Y-72212475D01*
X148499249Y-72115718D01*
X148499238Y-72115714D01*
X148278089Y-72056457D01*
X148278081Y-72056456D01*
X148050002Y-72036502D01*
X148049998Y-72036502D01*
X147821918Y-72056456D01*
X147821910Y-72056457D01*
X147600761Y-72115714D01*
X147600750Y-72115718D01*
X147393254Y-72212475D01*
X147393252Y-72212476D01*
X147393251Y-72212477D01*
X147205700Y-72343802D01*
X147205698Y-72343803D01*
X147205695Y-72343806D01*
X147043806Y-72505695D01*
X147043803Y-72505698D01*
X147043802Y-72505700D01*
X146976819Y-72601362D01*
X146912476Y-72693252D01*
X146912475Y-72693254D01*
X146815718Y-72900750D01*
X146815714Y-72900761D01*
X146756457Y-73121910D01*
X146756456Y-73121918D01*
X146736502Y-73349998D01*
X146736502Y-73350000D01*
X121547671Y-73350000D01*
X121494284Y-73150757D01*
X121466925Y-73092086D01*
X121404111Y-72957379D01*
X121397523Y-72943251D01*
X121266198Y-72755700D01*
X121104300Y-72593802D01*
X120916749Y-72462477D01*
X120916745Y-72462475D01*
X120709249Y-72365718D01*
X120709238Y-72365714D01*
X120488089Y-72306457D01*
X120488081Y-72306456D01*
X120260002Y-72286502D01*
X120259998Y-72286502D01*
X120031918Y-72306456D01*
X120031910Y-72306457D01*
X119810761Y-72365714D01*
X119810750Y-72365718D01*
X119603254Y-72462475D01*
X119603252Y-72462476D01*
X119549663Y-72500000D01*
X119415700Y-72593802D01*
X119415698Y-72593803D01*
X119415695Y-72593806D01*
X119253806Y-72755695D01*
X119122476Y-72943252D01*
X119122475Y-72943254D01*
X119025718Y-73150750D01*
X119025714Y-73150761D01*
X118966457Y-73371910D01*
X118966456Y-73371918D01*
X118946502Y-73599998D01*
X118946502Y-73600001D01*
X111413498Y-73600001D01*
X111413498Y-73600000D01*
X111393543Y-73371913D01*
X111334284Y-73150757D01*
X111306925Y-73092086D01*
X111244111Y-72957379D01*
X111237523Y-72943251D01*
X111106198Y-72755700D01*
X110944300Y-72593802D01*
X110756749Y-72462477D01*
X110756745Y-72462475D01*
X110549249Y-72365718D01*
X110549238Y-72365714D01*
X110328089Y-72306457D01*
X110328081Y-72306456D01*
X110100002Y-72286502D01*
X110099998Y-72286502D01*
X109871918Y-72306456D01*
X109871910Y-72306457D01*
X109650761Y-72365714D01*
X109650750Y-72365718D01*
X109443254Y-72462475D01*
X109443252Y-72462476D01*
X109389663Y-72500000D01*
X109255700Y-72593802D01*
X109255698Y-72593803D01*
X109255695Y-72593806D01*
X109093806Y-72755695D01*
X108962476Y-72943252D01*
X108962475Y-72943254D01*
X108865718Y-73150750D01*
X108865714Y-73150761D01*
X108806457Y-73371910D01*
X108806456Y-73371918D01*
X108786502Y-73599998D01*
X108786502Y-73600001D01*
X104358500Y-73600001D01*
X104358500Y-72601362D01*
X104358499Y-72601345D01*
X104355157Y-72570270D01*
X104351989Y-72540799D01*
X104300889Y-72403796D01*
X104213261Y-72286739D01*
X104096204Y-72199111D01*
X104079801Y-72192993D01*
X103959203Y-72148011D01*
X103898654Y-72141500D01*
X103898638Y-72141500D01*
X102101362Y-72141500D01*
X102101345Y-72141500D01*
X102040797Y-72148011D01*
X102040795Y-72148011D01*
X101903795Y-72199111D01*
X101786739Y-72286739D01*
X101699111Y-72403795D01*
X101648011Y-72540795D01*
X101648011Y-72540797D01*
X101641500Y-72601345D01*
X101641500Y-74398654D01*
X100500500Y-74398654D01*
X100500500Y-68898654D01*
X101641500Y-68898654D01*
X101648011Y-68959202D01*
X101648011Y-68959204D01*
X101695542Y-69086635D01*
X101699111Y-69096204D01*
X101786739Y-69213261D01*
X101903796Y-69300889D01*
X102040799Y-69351989D01*
X102068050Y-69354918D01*
X102101345Y-69358499D01*
X102101362Y-69358500D01*
X103898638Y-69358500D01*
X103898654Y-69358499D01*
X103925692Y-69355591D01*
X103959201Y-69351989D01*
X104096204Y-69300889D01*
X104213261Y-69213261D01*
X104300889Y-69096204D01*
X104351989Y-68959201D01*
X104357628Y-68906750D01*
X104358499Y-68898654D01*
X104358500Y-68898637D01*
X104358500Y-67999999D01*
X125251127Y-67999999D01*
X125251128Y-68000000D01*
X126214314Y-68000000D01*
X126209920Y-68004394D01*
X126157259Y-68095606D01*
X126130000Y-68197339D01*
X126130000Y-68302661D01*
X126157259Y-68404394D01*
X126209920Y-68495606D01*
X126214314Y-68500000D01*
X125251128Y-68500000D01*
X125303730Y-68696317D01*
X125303734Y-68696326D01*
X125399865Y-68902482D01*
X125530342Y-69088820D01*
X125691179Y-69249657D01*
X125877517Y-69380134D01*
X126083673Y-69476265D01*
X126083682Y-69476269D01*
X126279999Y-69528872D01*
X126280000Y-69528871D01*
X126280000Y-68565686D01*
X126284394Y-68570080D01*
X126375606Y-68622741D01*
X126477339Y-68650000D01*
X126582661Y-68650000D01*
X126684394Y-68622741D01*
X126775606Y-68570080D01*
X126780000Y-68565686D01*
X126780000Y-69528872D01*
X126976317Y-69476269D01*
X126976326Y-69476265D01*
X127182482Y-69380134D01*
X127368820Y-69249657D01*
X127529657Y-69088820D01*
X127660133Y-68902483D01*
X127682927Y-68853600D01*
X127729098Y-68801160D01*
X127796292Y-68782007D01*
X127863173Y-68802221D01*
X127907691Y-68853596D01*
X127932477Y-68906749D01*
X128063802Y-69094300D01*
X128225700Y-69256198D01*
X128413251Y-69387523D01*
X128468445Y-69413260D01*
X128620750Y-69484281D01*
X128620752Y-69484281D01*
X128620757Y-69484284D01*
X128841913Y-69543543D01*
X129004832Y-69557796D01*
X129069998Y-69563498D01*
X129070000Y-69563498D01*
X129070002Y-69563498D01*
X129127139Y-69558499D01*
X129298087Y-69543543D01*
X129519243Y-69484284D01*
X129726749Y-69387523D01*
X129914300Y-69256198D01*
X130076198Y-69094300D01*
X130207523Y-68906749D01*
X130227618Y-68863655D01*
X130273790Y-68811215D01*
X130340983Y-68792063D01*
X130407864Y-68812278D01*
X130452382Y-68863655D01*
X130472477Y-68906749D01*
X130603802Y-69094300D01*
X130765700Y-69256198D01*
X130953251Y-69387523D01*
X131008445Y-69413260D01*
X131160750Y-69484281D01*
X131160752Y-69484281D01*
X131160757Y-69484284D01*
X131381913Y-69543543D01*
X131544832Y-69557796D01*
X131609998Y-69563498D01*
X131610000Y-69563498D01*
X131610002Y-69563498D01*
X131667139Y-69558499D01*
X131838087Y-69543543D01*
X132059243Y-69484284D01*
X132266749Y-69387523D01*
X132454300Y-69256198D01*
X132616198Y-69094300D01*
X132621566Y-69086632D01*
X132676139Y-69043008D01*
X132745637Y-69035813D01*
X132807993Y-69067333D01*
X132843409Y-69127562D01*
X132846430Y-69144498D01*
X132848011Y-69159202D01*
X132848011Y-69159204D01*
X132884189Y-69256198D01*
X132899111Y-69296204D01*
X132986739Y-69413261D01*
X133103796Y-69500889D01*
X133240799Y-69551989D01*
X133268050Y-69554918D01*
X133301345Y-69558499D01*
X133301362Y-69558500D01*
X134998638Y-69558500D01*
X134998654Y-69558499D01*
X135025692Y-69555591D01*
X135059201Y-69551989D01*
X135196204Y-69500889D01*
X135313261Y-69413261D01*
X135400889Y-69296204D01*
X135451989Y-69159201D01*
X135455591Y-69125692D01*
X135458499Y-69098654D01*
X135458500Y-69098637D01*
X135458500Y-67401362D01*
X135458499Y-67401345D01*
X135454334Y-67362614D01*
X135451989Y-67340799D01*
X135442099Y-67314284D01*
X135415812Y-67243806D01*
X135400889Y-67203796D01*
X135313261Y-67086739D01*
X135196204Y-66999111D01*
X135064538Y-66950001D01*
X139086502Y-66950001D01*
X139106456Y-67178081D01*
X139106457Y-67178089D01*
X139165714Y-67399238D01*
X139165718Y-67399249D01*
X139256183Y-67593251D01*
X139262477Y-67606749D01*
X139393802Y-67794300D01*
X139555700Y-67956198D01*
X139743251Y-68087523D01*
X139804458Y-68116064D01*
X139950750Y-68184281D01*
X139950752Y-68184281D01*
X139950757Y-68184284D01*
X140171913Y-68243543D01*
X140334832Y-68257796D01*
X140399998Y-68263498D01*
X140400000Y-68263498D01*
X140400002Y-68263498D01*
X140457021Y-68258509D01*
X140628087Y-68243543D01*
X140849243Y-68184284D01*
X141056749Y-68087523D01*
X141244300Y-67956198D01*
X141406198Y-67794300D01*
X141537523Y-67606749D01*
X141634284Y-67399243D01*
X141693543Y-67178087D01*
X141713498Y-66950000D01*
X141693543Y-66721913D01*
X141647479Y-66550001D01*
X149336502Y-66550001D01*
X149356456Y-66778081D01*
X149356457Y-66778089D01*
X149415714Y-66999238D01*
X149415718Y-66999249D01*
X149511100Y-67203796D01*
X149512477Y-67206749D01*
X149643802Y-67394300D01*
X149643806Y-67394304D01*
X149791339Y-67541837D01*
X149824824Y-67603160D01*
X149819840Y-67672852D01*
X149777968Y-67728785D01*
X149746993Y-67745699D01*
X149603795Y-67799111D01*
X149486739Y-67886739D01*
X149399111Y-68003795D01*
X149348011Y-68140795D01*
X149348011Y-68140797D01*
X149341500Y-68201345D01*
X149341500Y-69898654D01*
X149348011Y-69959202D01*
X149348011Y-69959204D01*
X149399111Y-70096204D01*
X149486739Y-70213261D01*
X149603796Y-70300889D01*
X149740799Y-70351989D01*
X149768050Y-70354918D01*
X149801345Y-70358499D01*
X149801362Y-70358500D01*
X151498638Y-70358500D01*
X151498654Y-70358499D01*
X151525692Y-70355591D01*
X151559201Y-70351989D01*
X151696204Y-70300889D01*
X151813261Y-70213261D01*
X151900889Y-70096204D01*
X151951989Y-69959201D01*
X151955591Y-69925692D01*
X151958499Y-69898654D01*
X151958500Y-69898637D01*
X151958500Y-69460005D01*
X156736844Y-69460005D01*
X156755434Y-69684359D01*
X156755436Y-69684371D01*
X156810703Y-69902614D01*
X156901140Y-70108792D01*
X157024276Y-70297265D01*
X157024278Y-70297268D01*
X157175707Y-70461762D01*
X157206629Y-70524415D01*
X157198769Y-70593841D01*
X157154622Y-70647997D01*
X157127811Y-70661926D01*
X157007912Y-70706646D01*
X157007906Y-70706649D01*
X156892812Y-70792809D01*
X156892809Y-70792812D01*
X156806649Y-70907906D01*
X156806645Y-70907913D01*
X156756403Y-71042620D01*
X156756401Y-71042627D01*
X156750000Y-71102155D01*
X156750000Y-71750000D01*
X157666988Y-71750000D01*
X157634075Y-71807007D01*
X157600000Y-71934174D01*
X157600000Y-72065826D01*
X157634075Y-72192993D01*
X157666988Y-72250000D01*
X156750000Y-72250000D01*
X156750000Y-72897844D01*
X156756401Y-72957372D01*
X156756403Y-72957379D01*
X156806645Y-73092086D01*
X156806649Y-73092093D01*
X156892809Y-73207187D01*
X156892812Y-73207190D01*
X157007906Y-73293350D01*
X157007913Y-73293354D01*
X157142620Y-73343596D01*
X157142627Y-73343598D01*
X157202155Y-73349999D01*
X157202172Y-73350000D01*
X157850000Y-73350000D01*
X157850000Y-72433012D01*
X157907007Y-72465925D01*
X158034174Y-72500000D01*
X158165826Y-72500000D01*
X158292993Y-72465925D01*
X158350000Y-72433012D01*
X158350000Y-73350000D01*
X158997828Y-73350000D01*
X158997844Y-73349999D01*
X159057372Y-73343598D01*
X159057379Y-73343596D01*
X159192086Y-73293354D01*
X159192093Y-73293350D01*
X159307187Y-73207190D01*
X159307190Y-73207187D01*
X159393350Y-73092093D01*
X159393354Y-73092086D01*
X159443596Y-72957379D01*
X159443598Y-72957372D01*
X159449999Y-72897844D01*
X159450000Y-72897827D01*
X159450000Y-72250000D01*
X158533012Y-72250000D01*
X158565925Y-72192993D01*
X158600000Y-72065826D01*
X158600000Y-71934174D01*
X158565925Y-71807007D01*
X158533012Y-71750000D01*
X159450000Y-71750000D01*
X159450000Y-71102172D01*
X159449999Y-71102155D01*
X159443598Y-71042627D01*
X159443596Y-71042620D01*
X159393354Y-70907913D01*
X159393350Y-70907906D01*
X159307190Y-70792812D01*
X159307187Y-70792809D01*
X159192093Y-70706649D01*
X159192088Y-70706646D01*
X159072188Y-70661926D01*
X159016255Y-70620054D01*
X158991838Y-70554590D01*
X159006690Y-70486317D01*
X159024286Y-70461769D01*
X159175722Y-70297268D01*
X159298860Y-70108791D01*
X159389296Y-69902616D01*
X159444564Y-69684368D01*
X159454994Y-69558499D01*
X159463156Y-69460005D01*
X159463156Y-69459994D01*
X159444565Y-69235640D01*
X159444563Y-69235628D01*
X159389296Y-69017385D01*
X159363774Y-68959201D01*
X159298860Y-68811209D01*
X159286351Y-68792063D01*
X159175723Y-68622734D01*
X159175715Y-68622723D01*
X159023243Y-68457097D01*
X159023238Y-68457092D01*
X158845577Y-68318812D01*
X158845578Y-68318812D01*
X158845576Y-68318811D01*
X158809070Y-68299055D01*
X158759479Y-68249836D01*
X158744371Y-68181619D01*
X158768541Y-68116064D01*
X158809070Y-68080945D01*
X158809084Y-68080936D01*
X158845576Y-68061189D01*
X159023240Y-67922906D01*
X159122614Y-67814957D01*
X159175715Y-67757276D01*
X159175716Y-67757274D01*
X159175722Y-67757268D01*
X159298860Y-67568791D01*
X159389296Y-67362616D01*
X159444564Y-67144368D01*
X159444565Y-67144359D01*
X159463156Y-66920005D01*
X159463156Y-66919994D01*
X159444565Y-66695640D01*
X159444563Y-66695628D01*
X159402430Y-66529249D01*
X159389296Y-66477384D01*
X159298860Y-66271209D01*
X159175722Y-66082732D01*
X159175719Y-66082729D01*
X159175715Y-66082723D01*
X159023243Y-65917097D01*
X159023238Y-65917092D01*
X158845577Y-65778812D01*
X158845572Y-65778808D01*
X158647580Y-65671661D01*
X158647577Y-65671659D01*
X158647574Y-65671658D01*
X158647571Y-65671657D01*
X158647569Y-65671656D01*
X158434637Y-65598556D01*
X158212569Y-65561500D01*
X157987431Y-65561500D01*
X157765362Y-65598556D01*
X157552430Y-65671656D01*
X157552419Y-65671661D01*
X157354427Y-65778808D01*
X157354422Y-65778812D01*
X157176761Y-65917092D01*
X157176756Y-65917097D01*
X157024284Y-66082723D01*
X157024276Y-66082734D01*
X156901140Y-66271207D01*
X156810703Y-66477385D01*
X156755436Y-66695628D01*
X156755434Y-66695640D01*
X156736844Y-66919994D01*
X156736844Y-66920005D01*
X156755434Y-67144359D01*
X156755436Y-67144371D01*
X156810703Y-67362614D01*
X156901140Y-67568792D01*
X157024276Y-67757265D01*
X157024284Y-67757276D01*
X157176756Y-67922902D01*
X157176760Y-67922906D01*
X157354424Y-68061189D01*
X157354429Y-68061191D01*
X157354431Y-68061193D01*
X157390930Y-68080946D01*
X157440520Y-68130165D01*
X157455628Y-68198382D01*
X157431457Y-68263937D01*
X157390930Y-68299054D01*
X157354431Y-68318806D01*
X157354422Y-68318812D01*
X157176761Y-68457092D01*
X157176756Y-68457097D01*
X157024284Y-68622723D01*
X157024276Y-68622734D01*
X156901140Y-68811207D01*
X156810703Y-69017385D01*
X156755436Y-69235628D01*
X156755434Y-69235640D01*
X156736844Y-69459994D01*
X156736844Y-69460005D01*
X151958500Y-69460005D01*
X151958500Y-68201362D01*
X151958499Y-68201345D01*
X151954950Y-68168342D01*
X151951989Y-68140799D01*
X151942763Y-68116064D01*
X151907646Y-68021913D01*
X151900889Y-68003796D01*
X151813261Y-67886739D01*
X151696204Y-67799111D01*
X151553006Y-67745699D01*
X151497073Y-67703827D01*
X151472657Y-67638362D01*
X151487510Y-67570090D01*
X151508654Y-67541843D01*
X151656198Y-67394300D01*
X151787523Y-67206749D01*
X151884284Y-66999243D01*
X151943543Y-66778087D01*
X151963498Y-66550000D01*
X151943543Y-66321913D01*
X151884284Y-66100757D01*
X151874605Y-66080001D01*
X151787524Y-65893254D01*
X151787523Y-65893252D01*
X151787523Y-65893251D01*
X151656198Y-65705700D01*
X151494300Y-65543802D01*
X151306749Y-65412477D01*
X151306745Y-65412475D01*
X151099249Y-65315718D01*
X151099238Y-65315714D01*
X150878089Y-65256457D01*
X150878081Y-65256456D01*
X150650002Y-65236502D01*
X150649998Y-65236502D01*
X150421918Y-65256456D01*
X150421910Y-65256457D01*
X150200761Y-65315714D01*
X150200750Y-65315718D01*
X149993254Y-65412475D01*
X149993252Y-65412476D01*
X149977860Y-65423254D01*
X149805700Y-65543802D01*
X149805698Y-65543803D01*
X149805695Y-65543806D01*
X149643806Y-65705695D01*
X149643803Y-65705698D01*
X149643802Y-65705700D01*
X149592611Y-65778808D01*
X149512476Y-65893252D01*
X149512475Y-65893254D01*
X149415718Y-66100750D01*
X149415714Y-66100761D01*
X149356457Y-66321910D01*
X149356456Y-66321918D01*
X149336502Y-66549998D01*
X149336502Y-66550001D01*
X141647479Y-66550001D01*
X141634284Y-66500757D01*
X141537523Y-66293251D01*
X141406198Y-66105700D01*
X141244300Y-65943802D01*
X141056749Y-65812477D01*
X140984552Y-65778811D01*
X140849249Y-65715718D01*
X140849238Y-65715714D01*
X140628089Y-65656457D01*
X140628081Y-65656456D01*
X140400002Y-65636502D01*
X140399998Y-65636502D01*
X140171918Y-65656456D01*
X140171910Y-65656457D01*
X139950761Y-65715714D01*
X139950750Y-65715718D01*
X139743254Y-65812475D01*
X139743252Y-65812476D01*
X139672856Y-65861767D01*
X139555700Y-65943802D01*
X139555698Y-65943803D01*
X139555695Y-65943806D01*
X139393806Y-66105695D01*
X139262476Y-66293252D01*
X139262475Y-66293254D01*
X139165718Y-66500750D01*
X139165714Y-66500761D01*
X139106457Y-66721910D01*
X139106456Y-66721918D01*
X139086502Y-66949998D01*
X139086502Y-66950001D01*
X135064538Y-66950001D01*
X135059203Y-66948011D01*
X134998654Y-66941500D01*
X134998638Y-66941500D01*
X133301362Y-66941500D01*
X133301345Y-66941500D01*
X133240797Y-66948011D01*
X133240795Y-66948011D01*
X133103795Y-66999111D01*
X132986739Y-67086739D01*
X132899111Y-67203795D01*
X132848011Y-67340795D01*
X132848011Y-67340797D01*
X132846430Y-67355501D01*
X132819691Y-67420052D01*
X132762298Y-67459899D01*
X132692473Y-67462392D01*
X132632384Y-67426738D01*
X132621574Y-67413379D01*
X132616198Y-67405700D01*
X132454300Y-67243802D01*
X132266749Y-67112477D01*
X132242913Y-67101362D01*
X132059249Y-67015718D01*
X132059238Y-67015714D01*
X131838089Y-66956457D01*
X131838081Y-66956456D01*
X131610002Y-66936502D01*
X131609998Y-66936502D01*
X131381918Y-66956456D01*
X131381910Y-66956457D01*
X131160761Y-67015714D01*
X131160750Y-67015718D01*
X130953254Y-67112475D01*
X130953252Y-67112476D01*
X130953251Y-67112477D01*
X130765700Y-67243802D01*
X130765698Y-67243803D01*
X130765695Y-67243806D01*
X130603806Y-67405695D01*
X130472476Y-67593251D01*
X130452382Y-67636345D01*
X130406209Y-67688784D01*
X130339016Y-67707936D01*
X130272135Y-67687720D01*
X130227618Y-67636345D01*
X130207523Y-67593251D01*
X130191305Y-67570090D01*
X130076198Y-67405700D01*
X129914300Y-67243802D01*
X129726749Y-67112477D01*
X129702913Y-67101362D01*
X129519249Y-67015718D01*
X129519238Y-67015714D01*
X129298089Y-66956457D01*
X129298081Y-66956456D01*
X129070002Y-66936502D01*
X129069998Y-66936502D01*
X128841918Y-66956456D01*
X128841910Y-66956457D01*
X128620761Y-67015714D01*
X128620750Y-67015718D01*
X128413254Y-67112475D01*
X128413252Y-67112476D01*
X128413251Y-67112477D01*
X128225700Y-67243802D01*
X128225698Y-67243803D01*
X128225695Y-67243806D01*
X128063806Y-67405695D01*
X128063803Y-67405698D01*
X128063802Y-67405700D01*
X128024106Y-67462392D01*
X127932476Y-67593252D01*
X127932474Y-67593256D01*
X127907691Y-67646402D01*
X127861518Y-67698841D01*
X127794324Y-67717992D01*
X127727444Y-67697775D01*
X127682927Y-67646399D01*
X127660133Y-67597517D01*
X127529657Y-67411179D01*
X127368820Y-67250342D01*
X127182482Y-67119865D01*
X126976328Y-67023734D01*
X126780000Y-66971127D01*
X126780000Y-67934314D01*
X126775606Y-67929920D01*
X126684394Y-67877259D01*
X126582661Y-67850000D01*
X126477339Y-67850000D01*
X126375606Y-67877259D01*
X126284394Y-67929920D01*
X126280000Y-67934314D01*
X126280000Y-66971127D01*
X126083671Y-67023734D01*
X125877517Y-67119865D01*
X125691179Y-67250342D01*
X125530342Y-67411179D01*
X125399865Y-67597517D01*
X125303734Y-67803673D01*
X125303730Y-67803682D01*
X125251127Y-67999999D01*
X104358500Y-67999999D01*
X104358500Y-67101362D01*
X104358499Y-67101345D01*
X104355157Y-67070270D01*
X104351989Y-67040799D01*
X104342633Y-67015716D01*
X104318122Y-66950000D01*
X104300889Y-66903796D01*
X104213261Y-66786739D01*
X104096204Y-66699111D01*
X104086866Y-66695628D01*
X103959203Y-66648011D01*
X103898654Y-66641500D01*
X103898638Y-66641500D01*
X102101362Y-66641500D01*
X102101345Y-66641500D01*
X102040797Y-66648011D01*
X102040795Y-66648011D01*
X101903795Y-66699111D01*
X101786739Y-66786739D01*
X101699111Y-66903795D01*
X101648011Y-67040795D01*
X101648011Y-67040797D01*
X101641500Y-67101345D01*
X101641500Y-68898654D01*
X100500500Y-68898654D01*
X100500500Y-66080001D01*
X118686502Y-66080001D01*
X118706456Y-66308081D01*
X118706457Y-66308089D01*
X118765714Y-66529238D01*
X118765718Y-66529249D01*
X118855559Y-66721913D01*
X118862477Y-66736749D01*
X118993802Y-66924300D01*
X119155700Y-67086198D01*
X119343251Y-67217523D01*
X119413632Y-67250342D01*
X119550750Y-67314281D01*
X119550752Y-67314281D01*
X119550757Y-67314284D01*
X119771913Y-67373543D01*
X119934832Y-67387796D01*
X119999998Y-67393498D01*
X120000000Y-67393498D01*
X120000002Y-67393498D01*
X120057021Y-67388509D01*
X120228087Y-67373543D01*
X120449243Y-67314284D01*
X120656749Y-67217523D01*
X120844300Y-67086198D01*
X121006198Y-66924300D01*
X121137523Y-66736749D01*
X121234284Y-66529243D01*
X121293543Y-66308087D01*
X121313498Y-66080000D01*
X121293543Y-65851913D01*
X121234284Y-65630757D01*
X121137523Y-65423251D01*
X121006198Y-65235700D01*
X120844300Y-65073802D01*
X120656749Y-64942477D01*
X120656745Y-64942475D01*
X120449249Y-64845718D01*
X120449238Y-64845714D01*
X120228089Y-64786457D01*
X120228081Y-64786456D01*
X120000002Y-64766502D01*
X119999998Y-64766502D01*
X119771918Y-64786456D01*
X119771910Y-64786457D01*
X119550761Y-64845714D01*
X119550750Y-64845718D01*
X119343254Y-64942475D01*
X119343252Y-64942476D01*
X119343251Y-64942477D01*
X119155700Y-65073802D01*
X119155698Y-65073803D01*
X119155695Y-65073806D01*
X118993806Y-65235695D01*
X118993803Y-65235698D01*
X118993802Y-65235700D01*
X118937774Y-65315716D01*
X118862476Y-65423252D01*
X118862475Y-65423254D01*
X118765718Y-65630750D01*
X118765714Y-65630761D01*
X118706457Y-65851910D01*
X118706456Y-65851918D01*
X118686502Y-66079998D01*
X118686502Y-66080001D01*
X100500500Y-66080001D01*
X100500500Y-62750005D01*
X107244859Y-62750005D01*
X107265385Y-62997729D01*
X107265387Y-62997738D01*
X107326412Y-63238717D01*
X107426266Y-63466364D01*
X107526564Y-63619882D01*
X108226212Y-62920234D01*
X108237482Y-62962292D01*
X108309890Y-63087708D01*
X108412292Y-63190110D01*
X108537708Y-63262518D01*
X108579765Y-63273787D01*
X107879942Y-63973609D01*
X107926768Y-64010055D01*
X107926770Y-64010056D01*
X108145385Y-64128364D01*
X108145396Y-64128369D01*
X108380506Y-64209083D01*
X108625707Y-64250000D01*
X108874293Y-64250000D01*
X109119493Y-64209083D01*
X109354603Y-64128369D01*
X109354614Y-64128364D01*
X109573228Y-64010057D01*
X109573231Y-64010055D01*
X109620056Y-63973609D01*
X108920234Y-63273787D01*
X108962292Y-63262518D01*
X109087708Y-63190110D01*
X109190110Y-63087708D01*
X109262518Y-62962292D01*
X109273787Y-62920235D01*
X109973434Y-63619882D01*
X110073731Y-63466369D01*
X110173587Y-63238717D01*
X110234612Y-62997738D01*
X110234614Y-62997729D01*
X110255141Y-62750005D01*
X113744859Y-62750005D01*
X113765385Y-62997729D01*
X113765387Y-62997738D01*
X113826412Y-63238717D01*
X113926266Y-63466364D01*
X114026564Y-63619882D01*
X114726212Y-62920234D01*
X114737482Y-62962292D01*
X114809890Y-63087708D01*
X114912292Y-63190110D01*
X115037708Y-63262518D01*
X115079765Y-63273787D01*
X114379942Y-63973609D01*
X114426768Y-64010055D01*
X114426770Y-64010056D01*
X114645385Y-64128364D01*
X114645396Y-64128369D01*
X114880506Y-64209083D01*
X115125707Y-64250000D01*
X115374293Y-64250000D01*
X115619493Y-64209083D01*
X115652231Y-64197844D01*
X125150000Y-64197844D01*
X125156401Y-64257372D01*
X125156403Y-64257379D01*
X125206645Y-64392086D01*
X125206649Y-64392093D01*
X125292809Y-64507187D01*
X125292812Y-64507190D01*
X125407906Y-64593350D01*
X125407913Y-64593354D01*
X125542620Y-64643596D01*
X125542627Y-64643598D01*
X125602155Y-64649999D01*
X125602172Y-64650000D01*
X126250000Y-64650000D01*
X126250000Y-63733012D01*
X126307007Y-63765925D01*
X126434174Y-63800000D01*
X126565826Y-63800000D01*
X126692993Y-63765925D01*
X126750000Y-63733012D01*
X126750000Y-64650000D01*
X127397828Y-64650000D01*
X127397844Y-64649999D01*
X127457372Y-64643598D01*
X127457379Y-64643596D01*
X127592086Y-64593354D01*
X127592093Y-64593350D01*
X127707187Y-64507190D01*
X127707190Y-64507187D01*
X127793350Y-64392093D01*
X127793354Y-64392086D01*
X127843596Y-64257379D01*
X127843598Y-64257372D01*
X127847761Y-64218654D01*
X130641500Y-64218654D01*
X130648011Y-64279202D01*
X130648011Y-64279204D01*
X130683199Y-64373543D01*
X130699111Y-64416204D01*
X130786739Y-64533261D01*
X130903796Y-64620889D01*
X131040799Y-64671989D01*
X131068050Y-64674918D01*
X131101345Y-64678499D01*
X131101362Y-64678500D01*
X132898638Y-64678500D01*
X132898654Y-64678499D01*
X132925692Y-64675591D01*
X132959201Y-64671989D01*
X133096204Y-64620889D01*
X133213261Y-64533261D01*
X133300889Y-64416204D01*
X133351989Y-64279201D01*
X133356818Y-64234284D01*
X133358499Y-64218654D01*
X133358500Y-64218637D01*
X133358500Y-63000001D01*
X134606502Y-63000001D01*
X134626456Y-63228081D01*
X134626457Y-63228089D01*
X134685714Y-63449238D01*
X134685718Y-63449249D01*
X134782475Y-63656745D01*
X134782477Y-63656749D01*
X134913802Y-63844300D01*
X135075700Y-64006198D01*
X135263251Y-64137523D01*
X135388091Y-64195736D01*
X135470750Y-64234281D01*
X135470752Y-64234281D01*
X135470757Y-64234284D01*
X135691913Y-64293543D01*
X135854832Y-64307796D01*
X135919998Y-64313498D01*
X135920000Y-64313498D01*
X135920002Y-64313498D01*
X135977021Y-64308509D01*
X136148087Y-64293543D01*
X136369243Y-64234284D01*
X136576749Y-64137523D01*
X136764300Y-64006198D01*
X136926198Y-63844300D01*
X137057523Y-63656749D01*
X137154284Y-63449243D01*
X137213543Y-63228087D01*
X137233498Y-63000001D01*
X144766502Y-63000001D01*
X144786456Y-63228081D01*
X144786457Y-63228089D01*
X144845714Y-63449238D01*
X144845718Y-63449249D01*
X144942475Y-63656745D01*
X144942477Y-63656749D01*
X145073802Y-63844300D01*
X145235700Y-64006198D01*
X145423251Y-64137523D01*
X145548091Y-64195736D01*
X145630750Y-64234281D01*
X145630752Y-64234281D01*
X145630757Y-64234284D01*
X145851913Y-64293543D01*
X146014832Y-64307796D01*
X146079998Y-64313498D01*
X146080000Y-64313498D01*
X146080002Y-64313498D01*
X146137021Y-64308509D01*
X146308087Y-64293543D01*
X146529243Y-64234284D01*
X146736749Y-64137523D01*
X146924300Y-64006198D01*
X147086198Y-63844300D01*
X147217523Y-63656749D01*
X147314284Y-63449243D01*
X147373543Y-63228087D01*
X147386499Y-63080001D01*
X148686502Y-63080001D01*
X148706456Y-63308081D01*
X148706457Y-63308089D01*
X148765714Y-63529238D01*
X148765718Y-63529249D01*
X148845387Y-63700099D01*
X148862477Y-63736749D01*
X148993802Y-63924300D01*
X149155700Y-64086198D01*
X149343251Y-64217523D01*
X149386144Y-64237524D01*
X149550750Y-64314281D01*
X149550752Y-64314281D01*
X149550757Y-64314284D01*
X149771913Y-64373543D01*
X149934832Y-64387796D01*
X149999998Y-64393498D01*
X150000000Y-64393498D01*
X150000002Y-64393498D01*
X150057021Y-64388509D01*
X150228087Y-64373543D01*
X150449243Y-64314284D01*
X150656749Y-64217523D01*
X150844300Y-64086198D01*
X151006198Y-63924300D01*
X151137523Y-63736749D01*
X151234284Y-63529243D01*
X151293543Y-63308087D01*
X151311748Y-63100001D01*
X152986502Y-63100001D01*
X153006456Y-63328081D01*
X153006457Y-63328089D01*
X153065714Y-63549238D01*
X153065718Y-63549249D01*
X153136061Y-63700099D01*
X153162477Y-63756749D01*
X153293802Y-63944300D01*
X153455700Y-64106198D01*
X153643251Y-64237523D01*
X153732637Y-64279204D01*
X153850750Y-64334281D01*
X153850752Y-64334281D01*
X153850757Y-64334284D01*
X154071913Y-64393543D01*
X154234832Y-64407796D01*
X154299998Y-64413498D01*
X154300000Y-64413498D01*
X154300002Y-64413498D01*
X154357021Y-64408509D01*
X154528087Y-64393543D01*
X154749243Y-64334284D01*
X154956749Y-64237523D01*
X155144300Y-64106198D01*
X155306198Y-63944300D01*
X155437523Y-63756749D01*
X155534284Y-63549243D01*
X155593543Y-63328087D01*
X155613498Y-63100000D01*
X155611748Y-63080001D01*
X157186502Y-63080001D01*
X157206456Y-63308081D01*
X157206457Y-63308089D01*
X157265714Y-63529238D01*
X157265718Y-63529249D01*
X157345387Y-63700099D01*
X157362477Y-63736749D01*
X157493802Y-63924300D01*
X157655700Y-64086198D01*
X157843251Y-64217523D01*
X157886144Y-64237524D01*
X158050750Y-64314281D01*
X158050752Y-64314281D01*
X158050757Y-64314284D01*
X158271913Y-64373543D01*
X158434832Y-64387796D01*
X158499998Y-64393498D01*
X158500000Y-64393498D01*
X158500002Y-64393498D01*
X158557021Y-64388509D01*
X158728087Y-64373543D01*
X158949243Y-64314284D01*
X159156749Y-64217523D01*
X159344300Y-64086198D01*
X159506198Y-63924300D01*
X159637523Y-63736749D01*
X159734284Y-63529243D01*
X159793543Y-63308087D01*
X159813498Y-63080000D01*
X159793543Y-62851913D01*
X159734284Y-62630757D01*
X159696981Y-62550761D01*
X159646850Y-62443254D01*
X159637523Y-62423251D01*
X159506198Y-62235700D01*
X159344300Y-62073802D01*
X159156749Y-61942477D01*
X159156745Y-61942475D01*
X158949249Y-61845718D01*
X158949238Y-61845714D01*
X158728089Y-61786457D01*
X158728081Y-61786456D01*
X158500002Y-61766502D01*
X158499998Y-61766502D01*
X158271918Y-61786456D01*
X158271910Y-61786457D01*
X158050761Y-61845714D01*
X158050750Y-61845718D01*
X157843254Y-61942475D01*
X157843252Y-61942476D01*
X157814688Y-61962477D01*
X157655700Y-62073802D01*
X157655698Y-62073803D01*
X157655695Y-62073806D01*
X157493806Y-62235695D01*
X157493803Y-62235698D01*
X157493802Y-62235700D01*
X157418936Y-62342620D01*
X157362476Y-62423252D01*
X157362475Y-62423254D01*
X157265718Y-62630750D01*
X157265714Y-62630761D01*
X157206457Y-62851910D01*
X157206456Y-62851918D01*
X157186502Y-63079998D01*
X157186502Y-63080001D01*
X155611748Y-63080001D01*
X155593543Y-62871913D01*
X155534284Y-62650757D01*
X155437523Y-62443251D01*
X155306198Y-62255700D01*
X155144300Y-62093802D01*
X154956749Y-61962477D01*
X154954654Y-61961500D01*
X154749249Y-61865718D01*
X154749238Y-61865714D01*
X154528089Y-61806457D01*
X154528081Y-61806456D01*
X154300002Y-61786502D01*
X154299998Y-61786502D01*
X154071918Y-61806456D01*
X154071910Y-61806457D01*
X153850761Y-61865714D01*
X153850750Y-61865718D01*
X153643254Y-61962475D01*
X153643252Y-61962476D01*
X153598514Y-61993802D01*
X153455700Y-62093802D01*
X153455698Y-62093803D01*
X153455695Y-62093806D01*
X153293806Y-62255695D01*
X153293803Y-62255698D01*
X153293802Y-62255700D01*
X153220212Y-62360797D01*
X153162476Y-62443252D01*
X153162475Y-62443254D01*
X153065718Y-62650750D01*
X153065714Y-62650761D01*
X153006457Y-62871910D01*
X153006456Y-62871918D01*
X152986502Y-63099998D01*
X152986502Y-63100001D01*
X151311748Y-63100001D01*
X151313498Y-63080000D01*
X151293543Y-62851913D01*
X151234284Y-62630757D01*
X151196981Y-62550761D01*
X151146850Y-62443254D01*
X151137523Y-62423251D01*
X151006198Y-62235700D01*
X150844300Y-62073802D01*
X150656749Y-61942477D01*
X150656745Y-61942475D01*
X150449249Y-61845718D01*
X150449238Y-61845714D01*
X150228089Y-61786457D01*
X150228081Y-61786456D01*
X150000002Y-61766502D01*
X149999998Y-61766502D01*
X149771918Y-61786456D01*
X149771910Y-61786457D01*
X149550761Y-61845714D01*
X149550750Y-61845718D01*
X149343254Y-61942475D01*
X149343252Y-61942476D01*
X149314688Y-61962477D01*
X149155700Y-62073802D01*
X149155698Y-62073803D01*
X149155695Y-62073806D01*
X148993806Y-62235695D01*
X148993803Y-62235698D01*
X148993802Y-62235700D01*
X148918936Y-62342620D01*
X148862476Y-62423252D01*
X148862475Y-62423254D01*
X148765718Y-62630750D01*
X148765714Y-62630761D01*
X148706457Y-62851910D01*
X148706456Y-62851918D01*
X148686502Y-63079998D01*
X148686502Y-63080001D01*
X147386499Y-63080001D01*
X147393498Y-63000000D01*
X147373543Y-62771913D01*
X147314284Y-62550757D01*
X147217523Y-62343251D01*
X147086198Y-62155700D01*
X146924300Y-61993802D01*
X146736749Y-61862477D01*
X146736745Y-61862475D01*
X146529249Y-61765718D01*
X146529238Y-61765714D01*
X146308089Y-61706457D01*
X146308081Y-61706456D01*
X146080002Y-61686502D01*
X146079998Y-61686502D01*
X145851918Y-61706456D01*
X145851910Y-61706457D01*
X145630761Y-61765714D01*
X145630750Y-61765718D01*
X145423254Y-61862475D01*
X145423252Y-61862476D01*
X145423251Y-61862477D01*
X145235700Y-61993802D01*
X145235698Y-61993803D01*
X145235695Y-61993806D01*
X145073806Y-62155695D01*
X145073803Y-62155698D01*
X145073802Y-62155700D01*
X144991767Y-62272856D01*
X144942476Y-62343252D01*
X144942475Y-62343254D01*
X144845718Y-62550750D01*
X144845714Y-62550761D01*
X144786457Y-62771910D01*
X144786456Y-62771918D01*
X144766502Y-62999998D01*
X144766502Y-63000001D01*
X137233498Y-63000001D01*
X137233498Y-63000000D01*
X137213543Y-62771913D01*
X137154284Y-62550757D01*
X137057523Y-62343251D01*
X136926198Y-62155700D01*
X136764300Y-61993802D01*
X136576749Y-61862477D01*
X136576745Y-61862475D01*
X136369249Y-61765718D01*
X136369238Y-61765714D01*
X136148089Y-61706457D01*
X136148081Y-61706456D01*
X135920002Y-61686502D01*
X135919998Y-61686502D01*
X135691918Y-61706456D01*
X135691910Y-61706457D01*
X135470761Y-61765714D01*
X135470750Y-61765718D01*
X135263254Y-61862475D01*
X135263252Y-61862476D01*
X135263251Y-61862477D01*
X135075700Y-61993802D01*
X135075698Y-61993803D01*
X135075695Y-61993806D01*
X134913806Y-62155695D01*
X134913803Y-62155698D01*
X134913802Y-62155700D01*
X134831767Y-62272856D01*
X134782476Y-62343252D01*
X134782475Y-62343254D01*
X134685718Y-62550750D01*
X134685714Y-62550761D01*
X134626457Y-62771910D01*
X134626456Y-62771918D01*
X134606502Y-62999998D01*
X134606502Y-63000001D01*
X133358500Y-63000001D01*
X133358500Y-62421362D01*
X133358499Y-62421345D01*
X133355157Y-62390270D01*
X133351989Y-62360799D01*
X133345444Y-62343252D01*
X133329522Y-62300564D01*
X133300889Y-62223796D01*
X133213261Y-62106739D01*
X133096204Y-62019111D01*
X132959203Y-61968011D01*
X132898654Y-61961500D01*
X132898638Y-61961500D01*
X131101362Y-61961500D01*
X131101345Y-61961500D01*
X131040797Y-61968011D01*
X131040795Y-61968011D01*
X130903795Y-62019111D01*
X130786739Y-62106739D01*
X130699111Y-62223795D01*
X130648011Y-62360795D01*
X130648011Y-62360797D01*
X130641500Y-62421345D01*
X130641500Y-64218654D01*
X127847761Y-64218654D01*
X127849999Y-64197844D01*
X127850000Y-64197827D01*
X127850000Y-63550000D01*
X126933012Y-63550000D01*
X126965925Y-63492993D01*
X127000000Y-63365826D01*
X127000000Y-63234174D01*
X126965925Y-63107007D01*
X126933012Y-63050000D01*
X127850000Y-63050000D01*
X127850000Y-62402172D01*
X127849999Y-62402155D01*
X127843598Y-62342627D01*
X127843596Y-62342620D01*
X127793354Y-62207913D01*
X127793350Y-62207906D01*
X127707190Y-62092812D01*
X127707187Y-62092809D01*
X127592093Y-62006649D01*
X127592086Y-62006645D01*
X127457379Y-61956403D01*
X127457372Y-61956401D01*
X127397844Y-61950000D01*
X126750000Y-61950000D01*
X126750000Y-62866988D01*
X126692993Y-62834075D01*
X126565826Y-62800000D01*
X126434174Y-62800000D01*
X126307007Y-62834075D01*
X126250000Y-62866988D01*
X126250000Y-61950000D01*
X125602155Y-61950000D01*
X125542627Y-61956401D01*
X125542620Y-61956403D01*
X125407913Y-62006645D01*
X125407906Y-62006649D01*
X125292812Y-62092809D01*
X125292809Y-62092812D01*
X125206649Y-62207906D01*
X125206645Y-62207913D01*
X125156403Y-62342620D01*
X125156401Y-62342627D01*
X125150000Y-62402155D01*
X125150000Y-63050000D01*
X126066988Y-63050000D01*
X126034075Y-63107007D01*
X126000000Y-63234174D01*
X126000000Y-63365826D01*
X126034075Y-63492993D01*
X126066988Y-63550000D01*
X125150000Y-63550000D01*
X125150000Y-64197844D01*
X115652231Y-64197844D01*
X115854603Y-64128369D01*
X115854614Y-64128364D01*
X116073228Y-64010057D01*
X116073231Y-64010055D01*
X116120056Y-63973609D01*
X115420234Y-63273787D01*
X115462292Y-63262518D01*
X115587708Y-63190110D01*
X115690110Y-63087708D01*
X115762518Y-62962292D01*
X115773787Y-62920235D01*
X116473434Y-63619882D01*
X116573731Y-63466369D01*
X116673587Y-63238717D01*
X116734612Y-62997738D01*
X116734614Y-62997729D01*
X116755141Y-62750005D01*
X116755141Y-62749994D01*
X116734614Y-62502270D01*
X116734612Y-62502261D01*
X116673587Y-62261282D01*
X116573731Y-62033630D01*
X116473434Y-61880116D01*
X115773787Y-62579764D01*
X115762518Y-62537708D01*
X115690110Y-62412292D01*
X115587708Y-62309890D01*
X115462292Y-62237482D01*
X115420235Y-62226212D01*
X116120057Y-61526390D01*
X116120056Y-61526389D01*
X116073229Y-61489943D01*
X115854614Y-61371635D01*
X115854603Y-61371630D01*
X115619493Y-61290916D01*
X115374293Y-61250000D01*
X115125707Y-61250000D01*
X114880506Y-61290916D01*
X114645396Y-61371630D01*
X114645390Y-61371632D01*
X114426761Y-61489949D01*
X114379942Y-61526388D01*
X114379942Y-61526390D01*
X115079765Y-62226212D01*
X115037708Y-62237482D01*
X114912292Y-62309890D01*
X114809890Y-62412292D01*
X114737482Y-62537708D01*
X114726212Y-62579764D01*
X114026564Y-61880116D01*
X113926267Y-62033632D01*
X113826412Y-62261282D01*
X113765387Y-62502261D01*
X113765385Y-62502270D01*
X113744859Y-62749994D01*
X113744859Y-62750005D01*
X110255141Y-62750005D01*
X110255141Y-62749994D01*
X110234614Y-62502270D01*
X110234612Y-62502261D01*
X110173587Y-62261282D01*
X110073731Y-62033630D01*
X109973434Y-61880116D01*
X109273787Y-62579764D01*
X109262518Y-62537708D01*
X109190110Y-62412292D01*
X109087708Y-62309890D01*
X108962292Y-62237482D01*
X108920235Y-62226212D01*
X109620057Y-61526390D01*
X109620056Y-61526389D01*
X109573229Y-61489943D01*
X109354614Y-61371635D01*
X109354603Y-61371630D01*
X109119493Y-61290916D01*
X108874293Y-61250000D01*
X108625707Y-61250000D01*
X108380506Y-61290916D01*
X108145396Y-61371630D01*
X108145390Y-61371632D01*
X107926761Y-61489949D01*
X107879942Y-61526388D01*
X107879942Y-61526390D01*
X108579765Y-62226212D01*
X108537708Y-62237482D01*
X108412292Y-62309890D01*
X108309890Y-62412292D01*
X108237482Y-62537708D01*
X108226212Y-62579764D01*
X107526564Y-61880116D01*
X107426267Y-62033632D01*
X107326412Y-62261282D01*
X107265387Y-62502261D01*
X107265385Y-62502270D01*
X107244859Y-62749994D01*
X107244859Y-62750005D01*
X100500500Y-62750005D01*
X100500500Y-60398654D01*
X162141500Y-60398654D01*
X162148011Y-60459202D01*
X162148011Y-60459204D01*
X162199111Y-60596204D01*
X162286739Y-60713261D01*
X162403796Y-60800889D01*
X162540799Y-60851989D01*
X162568050Y-60854918D01*
X162601345Y-60858499D01*
X162601362Y-60858500D01*
X164398638Y-60858500D01*
X164398654Y-60858499D01*
X164425692Y-60855591D01*
X164459201Y-60851989D01*
X164596204Y-60800889D01*
X164713261Y-60713261D01*
X164800889Y-60596204D01*
X164851989Y-60459201D01*
X164855591Y-60425692D01*
X164858499Y-60398654D01*
X164858500Y-60398637D01*
X164858500Y-58601362D01*
X164858499Y-58601345D01*
X164855157Y-58570270D01*
X164851989Y-58540799D01*
X164800889Y-58403796D01*
X164713261Y-58286739D01*
X164596204Y-58199111D01*
X164459203Y-58148011D01*
X164398654Y-58141500D01*
X164398638Y-58141500D01*
X162601362Y-58141500D01*
X162601345Y-58141500D01*
X162540797Y-58148011D01*
X162540795Y-58148011D01*
X162403795Y-58199111D01*
X162286739Y-58286739D01*
X162199111Y-58403795D01*
X162148011Y-58540795D01*
X162148011Y-58540797D01*
X162141500Y-58601345D01*
X162141500Y-60398654D01*
X100500500Y-60398654D01*
X100500500Y-58250000D01*
X107236835Y-58250000D01*
X107255465Y-58486714D01*
X107310895Y-58717595D01*
X107310895Y-58717597D01*
X107401757Y-58936959D01*
X107401759Y-58936962D01*
X107525820Y-59139410D01*
X107525821Y-59139413D01*
X107578076Y-59200596D01*
X107680031Y-59319969D01*
X107804050Y-59425891D01*
X107860586Y-59474178D01*
X107860589Y-59474179D01*
X108063037Y-59598240D01*
X108063040Y-59598242D01*
X108282403Y-59689104D01*
X108282404Y-59689104D01*
X108282406Y-59689105D01*
X108513289Y-59744535D01*
X108750000Y-59763165D01*
X108986711Y-59744535D01*
X109217594Y-59689105D01*
X109217596Y-59689104D01*
X109217597Y-59689104D01*
X109436959Y-59598242D01*
X109436960Y-59598241D01*
X109436963Y-59598240D01*
X109639416Y-59474176D01*
X109819969Y-59319969D01*
X109974176Y-59139416D01*
X110098240Y-58936963D01*
X110189105Y-58717594D01*
X110244535Y-58486711D01*
X110263165Y-58250000D01*
X113736835Y-58250000D01*
X113755465Y-58486714D01*
X113810895Y-58717595D01*
X113810895Y-58717597D01*
X113901757Y-58936959D01*
X113901759Y-58936962D01*
X114025820Y-59139410D01*
X114025821Y-59139413D01*
X114078076Y-59200596D01*
X114180031Y-59319969D01*
X114304050Y-59425891D01*
X114360586Y-59474178D01*
X114360589Y-59474179D01*
X114563037Y-59598240D01*
X114563040Y-59598242D01*
X114782403Y-59689104D01*
X114782404Y-59689104D01*
X114782406Y-59689105D01*
X115013289Y-59744535D01*
X115250000Y-59763165D01*
X115486711Y-59744535D01*
X115717594Y-59689105D01*
X115717596Y-59689104D01*
X115717597Y-59689104D01*
X115936959Y-59598242D01*
X115936960Y-59598241D01*
X115936963Y-59598240D01*
X116139416Y-59474176D01*
X116319969Y-59319969D01*
X116474176Y-59139416D01*
X116598240Y-58936963D01*
X116689105Y-58717594D01*
X116744535Y-58486711D01*
X116763165Y-58250000D01*
X116744535Y-58013289D01*
X116689105Y-57782406D01*
X116689104Y-57782403D01*
X116689104Y-57782402D01*
X116598242Y-57563040D01*
X116598240Y-57563037D01*
X116527649Y-57447844D01*
X125325000Y-57447844D01*
X125331401Y-57507372D01*
X125331403Y-57507379D01*
X125381645Y-57642086D01*
X125381649Y-57642093D01*
X125467809Y-57757187D01*
X125467812Y-57757190D01*
X125582906Y-57843350D01*
X125582913Y-57843354D01*
X125717620Y-57893596D01*
X125717627Y-57893598D01*
X125777155Y-57899999D01*
X125777172Y-57900000D01*
X126475000Y-57900000D01*
X126475000Y-56875277D01*
X126551306Y-56919333D01*
X126665756Y-56950000D01*
X126784244Y-56950000D01*
X126898694Y-56919333D01*
X126975000Y-56875277D01*
X126975000Y-57900000D01*
X127672828Y-57900000D01*
X127672844Y-57899999D01*
X127732372Y-57893598D01*
X127732379Y-57893596D01*
X127867086Y-57843354D01*
X127867093Y-57843350D01*
X127982187Y-57757190D01*
X127982190Y-57757187D01*
X128068350Y-57642093D01*
X128068355Y-57642084D01*
X128093940Y-57573486D01*
X128135810Y-57517552D01*
X128201274Y-57493134D01*
X128269547Y-57507985D01*
X128301349Y-57532832D01*
X128307780Y-57539818D01*
X128491983Y-57683190D01*
X128491985Y-57683191D01*
X128491988Y-57683193D01*
X128611331Y-57747777D01*
X128697273Y-57794287D01*
X128811914Y-57833643D01*
X128918045Y-57870079D01*
X128918047Y-57870079D01*
X128918049Y-57870080D01*
X129148288Y-57908500D01*
X129148289Y-57908500D01*
X129381711Y-57908500D01*
X129381712Y-57908500D01*
X129611951Y-57870080D01*
X129832727Y-57794287D01*
X130038017Y-57683190D01*
X130222220Y-57539818D01*
X130306888Y-57447844D01*
X133325000Y-57447844D01*
X133331401Y-57507372D01*
X133331403Y-57507379D01*
X133381645Y-57642086D01*
X133381649Y-57642093D01*
X133467809Y-57757187D01*
X133467812Y-57757190D01*
X133582906Y-57843350D01*
X133582913Y-57843354D01*
X133717620Y-57893596D01*
X133717627Y-57893598D01*
X133777155Y-57899999D01*
X133777172Y-57900000D01*
X134475000Y-57900000D01*
X134475000Y-56875277D01*
X134551306Y-56919333D01*
X134665756Y-56950000D01*
X134784244Y-56950000D01*
X134898694Y-56919333D01*
X134975000Y-56875277D01*
X134975000Y-57900000D01*
X135672828Y-57900000D01*
X135672844Y-57899999D01*
X135732372Y-57893598D01*
X135732379Y-57893596D01*
X135867086Y-57843354D01*
X135867093Y-57843350D01*
X135982187Y-57757190D01*
X135982190Y-57757187D01*
X136068350Y-57642093D01*
X136068355Y-57642084D01*
X136093940Y-57573486D01*
X136135810Y-57517552D01*
X136201274Y-57493134D01*
X136269547Y-57507985D01*
X136301349Y-57532832D01*
X136307780Y-57539818D01*
X136491983Y-57683190D01*
X136491985Y-57683191D01*
X136491988Y-57683193D01*
X136611331Y-57747777D01*
X136697273Y-57794287D01*
X136811914Y-57833643D01*
X136918045Y-57870079D01*
X136918047Y-57870079D01*
X136918049Y-57870080D01*
X137148288Y-57908500D01*
X137148289Y-57908500D01*
X137381711Y-57908500D01*
X137381712Y-57908500D01*
X137611951Y-57870080D01*
X137832727Y-57794287D01*
X138038017Y-57683190D01*
X138222220Y-57539818D01*
X138306888Y-57447844D01*
X140825000Y-57447844D01*
X140831401Y-57507372D01*
X140831403Y-57507379D01*
X140881645Y-57642086D01*
X140881649Y-57642093D01*
X140967809Y-57757187D01*
X140967812Y-57757190D01*
X141082906Y-57843350D01*
X141082913Y-57843354D01*
X141217620Y-57893596D01*
X141217627Y-57893598D01*
X141277155Y-57899999D01*
X141277172Y-57900000D01*
X141975000Y-57900000D01*
X141975000Y-56875277D01*
X142051306Y-56919333D01*
X142165756Y-56950000D01*
X142284244Y-56950000D01*
X142398694Y-56919333D01*
X142475000Y-56875277D01*
X142475000Y-57900000D01*
X143172828Y-57900000D01*
X143172844Y-57899999D01*
X143232372Y-57893598D01*
X143232379Y-57893596D01*
X143367086Y-57843354D01*
X143367093Y-57843350D01*
X143482187Y-57757190D01*
X143482190Y-57757187D01*
X143568350Y-57642093D01*
X143568355Y-57642084D01*
X143593940Y-57573486D01*
X143635810Y-57517552D01*
X143701274Y-57493134D01*
X143769547Y-57507985D01*
X143801349Y-57532832D01*
X143807780Y-57539818D01*
X143991983Y-57683190D01*
X143991985Y-57683191D01*
X143991988Y-57683193D01*
X144111331Y-57747777D01*
X144197273Y-57794287D01*
X144311914Y-57833643D01*
X144418045Y-57870079D01*
X144418047Y-57870079D01*
X144418049Y-57870080D01*
X144648288Y-57908500D01*
X144648289Y-57908500D01*
X144881711Y-57908500D01*
X144881712Y-57908500D01*
X145111951Y-57870080D01*
X145332727Y-57794287D01*
X145538017Y-57683190D01*
X145722220Y-57539818D01*
X145880314Y-57368083D01*
X146007984Y-57172669D01*
X146101749Y-56958907D01*
X146159051Y-56732626D01*
X146167618Y-56629236D01*
X146178327Y-56500005D01*
X146178327Y-56499994D01*
X146159051Y-56267377D01*
X146159051Y-56267374D01*
X146101749Y-56041093D01*
X146038914Y-55897844D01*
X162150000Y-55897844D01*
X162156401Y-55957372D01*
X162156403Y-55957379D01*
X162206645Y-56092086D01*
X162206649Y-56092093D01*
X162292809Y-56207187D01*
X162292812Y-56207190D01*
X162407906Y-56293350D01*
X162407913Y-56293354D01*
X162542620Y-56343596D01*
X162542627Y-56343598D01*
X162602155Y-56349999D01*
X162602172Y-56350000D01*
X163250000Y-56350000D01*
X163250000Y-55433012D01*
X163307007Y-55465925D01*
X163434174Y-55500000D01*
X163565826Y-55500000D01*
X163692993Y-55465925D01*
X163750000Y-55433012D01*
X163750000Y-56350000D01*
X164397828Y-56350000D01*
X164397844Y-56349999D01*
X164457372Y-56343598D01*
X164457379Y-56343596D01*
X164592086Y-56293354D01*
X164592093Y-56293350D01*
X164707187Y-56207190D01*
X164707190Y-56207187D01*
X164793350Y-56092093D01*
X164793354Y-56092086D01*
X164843596Y-55957379D01*
X164843598Y-55957372D01*
X164849999Y-55897844D01*
X164850000Y-55897827D01*
X164850000Y-55250000D01*
X163933012Y-55250000D01*
X163965925Y-55192993D01*
X164000000Y-55065826D01*
X164000000Y-54934174D01*
X163965925Y-54807007D01*
X163933012Y-54750000D01*
X164850000Y-54750000D01*
X164850000Y-54102172D01*
X164849999Y-54102155D01*
X164843598Y-54042627D01*
X164843596Y-54042620D01*
X164793354Y-53907913D01*
X164793350Y-53907906D01*
X164707190Y-53792812D01*
X164707187Y-53792809D01*
X164592093Y-53706649D01*
X164592086Y-53706645D01*
X164457379Y-53656403D01*
X164457372Y-53656401D01*
X164397844Y-53650000D01*
X163750000Y-53650000D01*
X163750000Y-54566988D01*
X163692993Y-54534075D01*
X163565826Y-54500000D01*
X163434174Y-54500000D01*
X163307007Y-54534075D01*
X163250000Y-54566988D01*
X163250000Y-53650000D01*
X162602155Y-53650000D01*
X162542627Y-53656401D01*
X162542620Y-53656403D01*
X162407913Y-53706645D01*
X162407906Y-53706649D01*
X162292812Y-53792809D01*
X162292809Y-53792812D01*
X162206649Y-53907906D01*
X162206645Y-53907913D01*
X162156403Y-54042620D01*
X162156401Y-54042627D01*
X162150000Y-54102155D01*
X162150000Y-54750000D01*
X163066988Y-54750000D01*
X163034075Y-54807007D01*
X163000000Y-54934174D01*
X163000000Y-55065826D01*
X163034075Y-55192993D01*
X163066988Y-55250000D01*
X162150000Y-55250000D01*
X162150000Y-55897844D01*
X146038914Y-55897844D01*
X146007984Y-55827331D01*
X145880314Y-55631917D01*
X145880313Y-55631915D01*
X145722223Y-55460185D01*
X145722222Y-55460184D01*
X145722220Y-55460182D01*
X145538017Y-55316810D01*
X145538015Y-55316809D01*
X145538014Y-55316808D01*
X145538011Y-55316806D01*
X145332733Y-55205716D01*
X145332730Y-55205715D01*
X145332727Y-55205713D01*
X145332721Y-55205711D01*
X145332719Y-55205710D01*
X145111954Y-55129920D01*
X144932650Y-55100000D01*
X144881712Y-55091500D01*
X144648288Y-55091500D01*
X144602240Y-55099184D01*
X144418045Y-55129920D01*
X144197280Y-55205710D01*
X144197266Y-55205716D01*
X143991988Y-55316806D01*
X143991985Y-55316808D01*
X143807781Y-55460181D01*
X143807776Y-55460185D01*
X143801346Y-55467170D01*
X143741457Y-55503157D01*
X143671619Y-55501052D01*
X143614005Y-55461524D01*
X143593940Y-55426513D01*
X143568355Y-55357915D01*
X143568350Y-55357906D01*
X143482190Y-55242812D01*
X143482187Y-55242809D01*
X143367093Y-55156649D01*
X143367086Y-55156645D01*
X143232379Y-55106403D01*
X143232372Y-55106401D01*
X143172844Y-55100000D01*
X142475000Y-55100000D01*
X142475000Y-56124722D01*
X142398694Y-56080667D01*
X142284244Y-56050000D01*
X142165756Y-56050000D01*
X142051306Y-56080667D01*
X141975000Y-56124722D01*
X141975000Y-55100000D01*
X141277155Y-55100000D01*
X141217627Y-55106401D01*
X141217620Y-55106403D01*
X141082913Y-55156645D01*
X141082906Y-55156649D01*
X140967812Y-55242809D01*
X140967809Y-55242812D01*
X140881649Y-55357906D01*
X140881645Y-55357913D01*
X140831403Y-55492620D01*
X140831401Y-55492627D01*
X140825000Y-55552155D01*
X140825000Y-56250000D01*
X141849722Y-56250000D01*
X141805667Y-56326306D01*
X141775000Y-56440756D01*
X141775000Y-56559244D01*
X141805667Y-56673694D01*
X141849722Y-56750000D01*
X140825000Y-56750000D01*
X140825000Y-57447844D01*
X138306888Y-57447844D01*
X138380314Y-57368083D01*
X138507984Y-57172669D01*
X138601749Y-56958907D01*
X138659051Y-56732626D01*
X138667618Y-56629236D01*
X138678327Y-56500005D01*
X138678327Y-56499994D01*
X138659051Y-56267377D01*
X138659051Y-56267374D01*
X138601749Y-56041093D01*
X138507984Y-55827331D01*
X138380314Y-55631917D01*
X138380313Y-55631915D01*
X138222223Y-55460185D01*
X138222222Y-55460184D01*
X138222220Y-55460182D01*
X138038017Y-55316810D01*
X138038015Y-55316809D01*
X138038014Y-55316808D01*
X138038011Y-55316806D01*
X137832733Y-55205716D01*
X137832730Y-55205715D01*
X137832727Y-55205713D01*
X137832721Y-55205711D01*
X137832719Y-55205710D01*
X137611954Y-55129920D01*
X137432650Y-55100000D01*
X137381712Y-55091500D01*
X137148288Y-55091500D01*
X137102240Y-55099184D01*
X136918045Y-55129920D01*
X136697280Y-55205710D01*
X136697266Y-55205716D01*
X136491988Y-55316806D01*
X136491985Y-55316808D01*
X136307781Y-55460181D01*
X136307776Y-55460185D01*
X136301346Y-55467170D01*
X136241457Y-55503157D01*
X136171619Y-55501052D01*
X136114005Y-55461524D01*
X136093940Y-55426513D01*
X136068355Y-55357915D01*
X136068350Y-55357906D01*
X135982190Y-55242812D01*
X135982187Y-55242809D01*
X135867093Y-55156649D01*
X135867086Y-55156645D01*
X135732379Y-55106403D01*
X135732372Y-55106401D01*
X135672844Y-55100000D01*
X134975000Y-55100000D01*
X134975000Y-56124722D01*
X134898694Y-56080667D01*
X134784244Y-56050000D01*
X134665756Y-56050000D01*
X134551306Y-56080667D01*
X134475000Y-56124722D01*
X134475000Y-55100000D01*
X133777155Y-55100000D01*
X133717627Y-55106401D01*
X133717620Y-55106403D01*
X133582913Y-55156645D01*
X133582906Y-55156649D01*
X133467812Y-55242809D01*
X133467809Y-55242812D01*
X133381649Y-55357906D01*
X133381645Y-55357913D01*
X133331403Y-55492620D01*
X133331401Y-55492627D01*
X133325000Y-55552155D01*
X133325000Y-56250000D01*
X134349722Y-56250000D01*
X134305667Y-56326306D01*
X134275000Y-56440756D01*
X134275000Y-56559244D01*
X134305667Y-56673694D01*
X134349722Y-56750000D01*
X133325000Y-56750000D01*
X133325000Y-57447844D01*
X130306888Y-57447844D01*
X130380314Y-57368083D01*
X130507984Y-57172669D01*
X130601749Y-56958907D01*
X130659051Y-56732626D01*
X130667618Y-56629236D01*
X130678327Y-56500005D01*
X130678327Y-56499994D01*
X130659051Y-56267377D01*
X130659051Y-56267374D01*
X130601749Y-56041093D01*
X130507984Y-55827331D01*
X130380314Y-55631917D01*
X130380313Y-55631915D01*
X130222223Y-55460185D01*
X130222222Y-55460184D01*
X130222220Y-55460182D01*
X130038017Y-55316810D01*
X130038015Y-55316809D01*
X130038014Y-55316808D01*
X130038011Y-55316806D01*
X129832733Y-55205716D01*
X129832730Y-55205715D01*
X129832727Y-55205713D01*
X129832721Y-55205711D01*
X129832719Y-55205710D01*
X129611954Y-55129920D01*
X129432650Y-55100000D01*
X129381712Y-55091500D01*
X129148288Y-55091500D01*
X129102240Y-55099184D01*
X128918045Y-55129920D01*
X128697280Y-55205710D01*
X128697266Y-55205716D01*
X128491988Y-55316806D01*
X128491985Y-55316808D01*
X128307781Y-55460181D01*
X128307776Y-55460185D01*
X128301346Y-55467170D01*
X128241457Y-55503157D01*
X128171619Y-55501052D01*
X128114005Y-55461524D01*
X128093940Y-55426513D01*
X128068355Y-55357915D01*
X128068350Y-55357906D01*
X127982190Y-55242812D01*
X127982187Y-55242809D01*
X127867093Y-55156649D01*
X127867086Y-55156645D01*
X127732379Y-55106403D01*
X127732372Y-55106401D01*
X127672844Y-55100000D01*
X126975000Y-55100000D01*
X126975000Y-56124722D01*
X126898694Y-56080667D01*
X126784244Y-56050000D01*
X126665756Y-56050000D01*
X126551306Y-56080667D01*
X126475000Y-56124722D01*
X126475000Y-55100000D01*
X125777155Y-55100000D01*
X125717627Y-55106401D01*
X125717620Y-55106403D01*
X125582913Y-55156645D01*
X125582906Y-55156649D01*
X125467812Y-55242809D01*
X125467809Y-55242812D01*
X125381649Y-55357906D01*
X125381645Y-55357913D01*
X125331403Y-55492620D01*
X125331401Y-55492627D01*
X125325000Y-55552155D01*
X125325000Y-56250000D01*
X126349722Y-56250000D01*
X126305667Y-56326306D01*
X126275000Y-56440756D01*
X126275000Y-56559244D01*
X126305667Y-56673694D01*
X126349722Y-56750000D01*
X125325000Y-56750000D01*
X125325000Y-57447844D01*
X116527649Y-57447844D01*
X116474179Y-57360589D01*
X116474178Y-57360586D01*
X116365634Y-57233498D01*
X116319969Y-57180031D01*
X116176531Y-57057523D01*
X116139413Y-57025821D01*
X116139410Y-57025820D01*
X115936962Y-56901759D01*
X115936959Y-56901757D01*
X115717596Y-56810895D01*
X115486714Y-56755465D01*
X115250000Y-56736835D01*
X115013285Y-56755465D01*
X114782404Y-56810895D01*
X114782402Y-56810895D01*
X114563040Y-56901757D01*
X114563037Y-56901759D01*
X114360589Y-57025820D01*
X114360586Y-57025821D01*
X114180031Y-57180031D01*
X114025821Y-57360586D01*
X114025820Y-57360589D01*
X113901759Y-57563037D01*
X113901757Y-57563040D01*
X113810895Y-57782402D01*
X113810895Y-57782404D01*
X113755465Y-58013285D01*
X113736835Y-58250000D01*
X110263165Y-58250000D01*
X110244535Y-58013289D01*
X110189105Y-57782406D01*
X110189104Y-57782403D01*
X110189104Y-57782402D01*
X110098242Y-57563040D01*
X110098240Y-57563037D01*
X109974179Y-57360589D01*
X109974178Y-57360586D01*
X109865634Y-57233498D01*
X109819969Y-57180031D01*
X109676531Y-57057523D01*
X109639413Y-57025821D01*
X109639410Y-57025820D01*
X109436962Y-56901759D01*
X109436959Y-56901757D01*
X109217596Y-56810895D01*
X108986714Y-56755465D01*
X108750000Y-56736835D01*
X108513285Y-56755465D01*
X108282404Y-56810895D01*
X108282402Y-56810895D01*
X108063040Y-56901757D01*
X108063037Y-56901759D01*
X107860589Y-57025820D01*
X107860586Y-57025821D01*
X107680031Y-57180031D01*
X107525821Y-57360586D01*
X107525820Y-57360589D01*
X107401759Y-57563037D01*
X107401757Y-57563040D01*
X107310895Y-57782402D01*
X107310895Y-57782404D01*
X107255465Y-58013285D01*
X107236835Y-58250000D01*
X100500500Y-58250000D01*
X100500500Y-55920001D01*
X118686502Y-55920001D01*
X118706456Y-56148081D01*
X118706457Y-56148089D01*
X118765714Y-56369238D01*
X118765718Y-56369249D01*
X118826691Y-56500005D01*
X118862477Y-56576749D01*
X118993802Y-56764300D01*
X119155700Y-56926198D01*
X119343251Y-57057523D01*
X119468091Y-57115736D01*
X119550750Y-57154281D01*
X119550752Y-57154281D01*
X119550757Y-57154284D01*
X119771913Y-57213543D01*
X119934832Y-57227796D01*
X119999998Y-57233498D01*
X120000000Y-57233498D01*
X120000002Y-57233498D01*
X120057021Y-57228509D01*
X120228087Y-57213543D01*
X120449243Y-57154284D01*
X120656749Y-57057523D01*
X120844300Y-56926198D01*
X121006198Y-56764300D01*
X121137523Y-56576749D01*
X121234284Y-56369243D01*
X121293543Y-56148087D01*
X121313498Y-55920000D01*
X121293543Y-55691913D01*
X121234284Y-55470757D01*
X121232611Y-55467170D01*
X121162496Y-55316806D01*
X121137523Y-55263251D01*
X121006198Y-55075700D01*
X120844300Y-54913802D01*
X120656749Y-54782477D01*
X120656745Y-54782475D01*
X120449249Y-54685718D01*
X120449238Y-54685714D01*
X120228089Y-54626457D01*
X120228081Y-54626456D01*
X120000002Y-54606502D01*
X119999998Y-54606502D01*
X119771918Y-54626456D01*
X119771910Y-54626457D01*
X119550761Y-54685714D01*
X119550750Y-54685718D01*
X119343254Y-54782475D01*
X119343252Y-54782476D01*
X119272856Y-54831767D01*
X119155700Y-54913802D01*
X119155698Y-54913803D01*
X119155695Y-54913806D01*
X118993806Y-55075695D01*
X118993803Y-55075698D01*
X118993802Y-55075700D01*
X118955837Y-55129920D01*
X118862476Y-55263252D01*
X118862475Y-55263254D01*
X118765718Y-55470750D01*
X118765714Y-55470761D01*
X118706457Y-55691910D01*
X118706456Y-55691918D01*
X118686502Y-55919998D01*
X118686502Y-55920001D01*
X100500500Y-55920001D01*
X100500500Y-52920001D01*
X148686502Y-52920001D01*
X148706456Y-53148081D01*
X148706457Y-53148089D01*
X148765714Y-53369238D01*
X148765718Y-53369249D01*
X148862475Y-53576745D01*
X148862477Y-53576749D01*
X148993802Y-53764300D01*
X149155700Y-53926198D01*
X149343251Y-54057523D01*
X149386144Y-54077524D01*
X149550750Y-54154281D01*
X149550752Y-54154281D01*
X149550757Y-54154284D01*
X149771913Y-54213543D01*
X149934832Y-54227796D01*
X149999998Y-54233498D01*
X150000000Y-54233498D01*
X150000002Y-54233498D01*
X150057021Y-54228509D01*
X150228087Y-54213543D01*
X150449243Y-54154284D01*
X150656749Y-54057523D01*
X150844300Y-53926198D01*
X151006198Y-53764300D01*
X151137523Y-53576749D01*
X151234284Y-53369243D01*
X151293543Y-53148087D01*
X151311748Y-52940001D01*
X152986502Y-52940001D01*
X153006456Y-53168081D01*
X153006457Y-53168089D01*
X153065714Y-53389238D01*
X153065718Y-53389249D01*
X153153149Y-53576745D01*
X153162477Y-53596749D01*
X153293802Y-53784300D01*
X153455700Y-53946198D01*
X153643251Y-54077523D01*
X153768091Y-54135736D01*
X153850750Y-54174281D01*
X153850752Y-54174281D01*
X153850757Y-54174284D01*
X154071913Y-54233543D01*
X154234832Y-54247796D01*
X154299998Y-54253498D01*
X154300000Y-54253498D01*
X154300002Y-54253498D01*
X154357021Y-54248509D01*
X154528087Y-54233543D01*
X154749243Y-54174284D01*
X154956749Y-54077523D01*
X155144300Y-53946198D01*
X155306198Y-53784300D01*
X155437523Y-53596749D01*
X155534284Y-53389243D01*
X155593543Y-53168087D01*
X155613498Y-52940000D01*
X155611748Y-52920001D01*
X157186502Y-52920001D01*
X157206456Y-53148081D01*
X157206457Y-53148089D01*
X157265714Y-53369238D01*
X157265718Y-53369249D01*
X157362475Y-53576745D01*
X157362477Y-53576749D01*
X157493802Y-53764300D01*
X157655700Y-53926198D01*
X157843251Y-54057523D01*
X157886144Y-54077524D01*
X158050750Y-54154281D01*
X158050752Y-54154281D01*
X158050757Y-54154284D01*
X158271913Y-54213543D01*
X158434832Y-54227796D01*
X158499998Y-54233498D01*
X158500000Y-54233498D01*
X158500002Y-54233498D01*
X158557021Y-54228509D01*
X158728087Y-54213543D01*
X158949243Y-54154284D01*
X159156749Y-54057523D01*
X159344300Y-53926198D01*
X159506198Y-53764300D01*
X159637523Y-53576749D01*
X159734284Y-53369243D01*
X159793543Y-53148087D01*
X159813498Y-52920000D01*
X159793543Y-52691913D01*
X159734284Y-52470757D01*
X159637523Y-52263251D01*
X159506198Y-52075700D01*
X159344300Y-51913802D01*
X159156749Y-51782477D01*
X159156745Y-51782475D01*
X158949249Y-51685718D01*
X158949238Y-51685714D01*
X158728089Y-51626457D01*
X158728081Y-51626456D01*
X158500002Y-51606502D01*
X158499998Y-51606502D01*
X158271918Y-51626456D01*
X158271910Y-51626457D01*
X158050761Y-51685714D01*
X158050750Y-51685718D01*
X157843254Y-51782475D01*
X157843252Y-51782476D01*
X157814688Y-51802477D01*
X157655700Y-51913802D01*
X157655698Y-51913803D01*
X157655695Y-51913806D01*
X157493806Y-52075695D01*
X157493803Y-52075698D01*
X157493802Y-52075700D01*
X157479798Y-52095700D01*
X157362476Y-52263252D01*
X157362475Y-52263254D01*
X157265718Y-52470750D01*
X157265714Y-52470761D01*
X157206457Y-52691910D01*
X157206456Y-52691918D01*
X157186502Y-52919998D01*
X157186502Y-52920001D01*
X155611748Y-52920001D01*
X155593543Y-52711913D01*
X155534284Y-52490757D01*
X155437523Y-52283251D01*
X155306198Y-52095700D01*
X155144300Y-51933802D01*
X154956749Y-51802477D01*
X154913859Y-51782477D01*
X154749249Y-51705718D01*
X154749238Y-51705714D01*
X154528089Y-51646457D01*
X154528081Y-51646456D01*
X154300002Y-51626502D01*
X154299998Y-51626502D01*
X154071918Y-51646456D01*
X154071910Y-51646457D01*
X153850761Y-51705714D01*
X153850750Y-51705718D01*
X153643254Y-51802475D01*
X153643252Y-51802476D01*
X153643251Y-51802477D01*
X153455700Y-51933802D01*
X153455698Y-51933803D01*
X153455695Y-51933806D01*
X153293806Y-52095695D01*
X153162476Y-52283252D01*
X153162475Y-52283254D01*
X153065718Y-52490750D01*
X153065714Y-52490761D01*
X153006457Y-52711910D01*
X153006456Y-52711918D01*
X152986502Y-52939998D01*
X152986502Y-52940001D01*
X151311748Y-52940001D01*
X151313498Y-52920000D01*
X151293543Y-52691913D01*
X151234284Y-52470757D01*
X151137523Y-52263251D01*
X151006198Y-52075700D01*
X150844300Y-51913802D01*
X150656749Y-51782477D01*
X150656745Y-51782475D01*
X150449249Y-51685718D01*
X150449238Y-51685714D01*
X150228089Y-51626457D01*
X150228081Y-51626456D01*
X150000002Y-51606502D01*
X149999998Y-51606502D01*
X149771918Y-51626456D01*
X149771910Y-51626457D01*
X149550761Y-51685714D01*
X149550750Y-51685718D01*
X149343254Y-51782475D01*
X149343252Y-51782476D01*
X149314688Y-51802477D01*
X149155700Y-51913802D01*
X149155698Y-51913803D01*
X149155695Y-51913806D01*
X148993806Y-52075695D01*
X148993803Y-52075698D01*
X148993802Y-52075700D01*
X148979798Y-52095700D01*
X148862476Y-52263252D01*
X148862475Y-52263254D01*
X148765718Y-52470750D01*
X148765714Y-52470761D01*
X148706457Y-52691910D01*
X148706456Y-52691918D01*
X148686502Y-52919998D01*
X148686502Y-52920001D01*
X100500500Y-52920001D01*
X100500500Y-50098654D01*
X117437500Y-50098654D01*
X117444011Y-50159202D01*
X117444011Y-50159204D01*
X117495111Y-50296204D01*
X117582739Y-50413261D01*
X117699796Y-50500889D01*
X117836799Y-50551989D01*
X117864050Y-50554918D01*
X117897345Y-50558499D01*
X117897362Y-50558500D01*
X119694638Y-50558500D01*
X119694654Y-50558499D01*
X119721692Y-50555591D01*
X119755201Y-50551989D01*
X119892204Y-50500889D01*
X120009261Y-50413261D01*
X120096889Y-50296204D01*
X120142138Y-50174887D01*
X120184009Y-50118956D01*
X120249474Y-50094539D01*
X120317746Y-50109391D01*
X120349545Y-50134236D01*
X120412760Y-50202906D01*
X120590424Y-50341189D01*
X120590425Y-50341189D01*
X120590427Y-50341191D01*
X120650314Y-50373600D01*
X120788426Y-50448342D01*
X121001365Y-50521444D01*
X121223431Y-50558500D01*
X121448569Y-50558500D01*
X121670635Y-50521444D01*
X121883574Y-50448342D01*
X122081576Y-50341189D01*
X122259240Y-50202906D01*
X122380594Y-50071082D01*
X122411715Y-50037276D01*
X122411715Y-50037275D01*
X122411722Y-50037268D01*
X122502193Y-49898790D01*
X122555338Y-49853437D01*
X122624569Y-49844013D01*
X122687905Y-49873515D01*
X122709804Y-49898787D01*
X122800278Y-50037268D01*
X122800283Y-50037273D01*
X122800284Y-50037276D01*
X122926968Y-50174889D01*
X122952760Y-50202906D01*
X123130424Y-50341189D01*
X123130425Y-50341189D01*
X123130427Y-50341191D01*
X123190314Y-50373600D01*
X123328426Y-50448342D01*
X123541365Y-50521444D01*
X123763431Y-50558500D01*
X123988569Y-50558500D01*
X124210635Y-50521444D01*
X124423574Y-50448342D01*
X124621576Y-50341189D01*
X124799240Y-50202906D01*
X124920594Y-50071082D01*
X124951715Y-50037276D01*
X124951715Y-50037275D01*
X124951722Y-50037268D01*
X125045749Y-49893347D01*
X125098894Y-49847994D01*
X125168125Y-49838570D01*
X125231461Y-49868072D01*
X125251130Y-49890048D01*
X125377890Y-50071078D01*
X125544917Y-50238105D01*
X125738421Y-50373600D01*
X125952507Y-50473429D01*
X125952516Y-50473433D01*
X126166000Y-50530634D01*
X126166000Y-49633012D01*
X126223007Y-49665925D01*
X126350174Y-49700000D01*
X126481826Y-49700000D01*
X126608993Y-49665925D01*
X126666000Y-49633012D01*
X126666000Y-50530633D01*
X126879483Y-50473433D01*
X126879492Y-50473429D01*
X127093578Y-50373600D01*
X127287082Y-50238105D01*
X127454105Y-50071082D01*
X127580868Y-49890048D01*
X127635445Y-49846423D01*
X127704944Y-49839231D01*
X127767298Y-49870753D01*
X127786251Y-49893350D01*
X127880276Y-50037265D01*
X127880284Y-50037276D01*
X128006968Y-50174889D01*
X128032760Y-50202906D01*
X128210424Y-50341189D01*
X128210425Y-50341189D01*
X128210427Y-50341191D01*
X128270314Y-50373600D01*
X128408426Y-50448342D01*
X128621365Y-50521444D01*
X128843431Y-50558500D01*
X129068569Y-50558500D01*
X129290635Y-50521444D01*
X129503574Y-50448342D01*
X129701576Y-50341189D01*
X129879240Y-50202906D01*
X130000594Y-50071082D01*
X130031715Y-50037276D01*
X130031715Y-50037275D01*
X130031722Y-50037268D01*
X130122193Y-49898790D01*
X130175338Y-49853437D01*
X130244569Y-49844013D01*
X130307905Y-49873515D01*
X130329804Y-49898787D01*
X130420278Y-50037268D01*
X130420283Y-50037273D01*
X130420284Y-50037276D01*
X130546968Y-50174889D01*
X130572760Y-50202906D01*
X130750424Y-50341189D01*
X130750425Y-50341189D01*
X130750427Y-50341191D01*
X130810314Y-50373600D01*
X130948426Y-50448342D01*
X131161365Y-50521444D01*
X131383431Y-50558500D01*
X131608569Y-50558500D01*
X131830635Y-50521444D01*
X132043574Y-50448342D01*
X132241576Y-50341189D01*
X132419240Y-50202906D01*
X132540594Y-50071082D01*
X132571715Y-50037276D01*
X132571715Y-50037275D01*
X132571722Y-50037268D01*
X132662193Y-49898790D01*
X132715338Y-49853437D01*
X132784569Y-49844013D01*
X132847905Y-49873515D01*
X132869804Y-49898787D01*
X132960278Y-50037268D01*
X132960283Y-50037273D01*
X132960284Y-50037276D01*
X133086968Y-50174889D01*
X133112760Y-50202906D01*
X133290424Y-50341189D01*
X133290425Y-50341189D01*
X133290427Y-50341191D01*
X133350314Y-50373600D01*
X133488426Y-50448342D01*
X133701365Y-50521444D01*
X133923431Y-50558500D01*
X134148569Y-50558500D01*
X134370635Y-50521444D01*
X134583574Y-50448342D01*
X134781576Y-50341189D01*
X134959240Y-50202906D01*
X135080594Y-50071082D01*
X135111715Y-50037276D01*
X135111715Y-50037275D01*
X135111722Y-50037268D01*
X135202193Y-49898790D01*
X135255338Y-49853437D01*
X135324569Y-49844013D01*
X135387905Y-49873515D01*
X135409804Y-49898787D01*
X135500278Y-50037268D01*
X135500283Y-50037273D01*
X135500284Y-50037276D01*
X135626968Y-50174889D01*
X135652760Y-50202906D01*
X135830424Y-50341189D01*
X135830425Y-50341189D01*
X135830427Y-50341191D01*
X135890314Y-50373600D01*
X136028426Y-50448342D01*
X136241365Y-50521444D01*
X136463431Y-50558500D01*
X136688569Y-50558500D01*
X136910635Y-50521444D01*
X137123574Y-50448342D01*
X137321576Y-50341189D01*
X137499240Y-50202906D01*
X137620594Y-50071082D01*
X137651715Y-50037276D01*
X137651715Y-50037275D01*
X137651722Y-50037268D01*
X137742193Y-49898790D01*
X137795338Y-49853437D01*
X137864569Y-49844013D01*
X137927905Y-49873515D01*
X137949804Y-49898787D01*
X138040278Y-50037268D01*
X138040283Y-50037273D01*
X138040284Y-50037276D01*
X138166968Y-50174889D01*
X138192760Y-50202906D01*
X138370424Y-50341189D01*
X138370425Y-50341189D01*
X138370427Y-50341191D01*
X138430314Y-50373600D01*
X138568426Y-50448342D01*
X138781365Y-50521444D01*
X139003431Y-50558500D01*
X139228569Y-50558500D01*
X139450635Y-50521444D01*
X139663574Y-50448342D01*
X139861576Y-50341189D01*
X140039240Y-50202906D01*
X140160594Y-50071082D01*
X140191715Y-50037276D01*
X140191715Y-50037275D01*
X140191722Y-50037268D01*
X140282193Y-49898790D01*
X140335338Y-49853437D01*
X140404569Y-49844013D01*
X140467905Y-49873515D01*
X140489804Y-49898787D01*
X140580278Y-50037268D01*
X140580283Y-50037273D01*
X140580284Y-50037276D01*
X140706968Y-50174889D01*
X140732760Y-50202906D01*
X140910424Y-50341189D01*
X140910425Y-50341189D01*
X140910427Y-50341191D01*
X140970314Y-50373600D01*
X141108426Y-50448342D01*
X141321365Y-50521444D01*
X141543431Y-50558500D01*
X141768569Y-50558500D01*
X141990635Y-50521444D01*
X142203574Y-50448342D01*
X142401576Y-50341189D01*
X142579240Y-50202906D01*
X142700594Y-50071082D01*
X142731715Y-50037276D01*
X142731717Y-50037273D01*
X142731722Y-50037268D01*
X142854860Y-49848791D01*
X142945296Y-49642616D01*
X143000564Y-49424368D01*
X143004987Y-49370995D01*
X143019156Y-49200005D01*
X143019156Y-49199994D01*
X143000565Y-48975640D01*
X143000563Y-48975628D01*
X142988447Y-48927784D01*
X142945296Y-48757384D01*
X142854860Y-48551209D01*
X142838706Y-48526484D01*
X142731723Y-48362734D01*
X142731715Y-48362723D01*
X142579243Y-48197097D01*
X142579238Y-48197092D01*
X142401577Y-48058812D01*
X142401572Y-48058808D01*
X142203580Y-47951661D01*
X142203577Y-47951659D01*
X142203574Y-47951658D01*
X142203571Y-47951657D01*
X142203569Y-47951656D01*
X141990637Y-47878556D01*
X141768569Y-47841500D01*
X141543431Y-47841500D01*
X141321362Y-47878556D01*
X141108430Y-47951656D01*
X141108419Y-47951661D01*
X140910427Y-48058808D01*
X140910422Y-48058812D01*
X140732761Y-48197092D01*
X140732756Y-48197097D01*
X140580284Y-48362723D01*
X140580276Y-48362734D01*
X140489808Y-48501206D01*
X140436662Y-48546562D01*
X140367431Y-48555986D01*
X140304095Y-48526484D01*
X140282192Y-48501206D01*
X140191723Y-48362734D01*
X140191715Y-48362723D01*
X140039243Y-48197097D01*
X140039238Y-48197092D01*
X139861577Y-48058812D01*
X139861572Y-48058808D01*
X139663580Y-47951661D01*
X139663577Y-47951659D01*
X139663574Y-47951658D01*
X139663571Y-47951657D01*
X139663569Y-47951656D01*
X139450637Y-47878556D01*
X139228569Y-47841500D01*
X139003431Y-47841500D01*
X138781362Y-47878556D01*
X138568430Y-47951656D01*
X138568419Y-47951661D01*
X138370427Y-48058808D01*
X138370422Y-48058812D01*
X138192761Y-48197092D01*
X138192756Y-48197097D01*
X138040284Y-48362723D01*
X138040276Y-48362734D01*
X137949808Y-48501206D01*
X137896662Y-48546562D01*
X137827431Y-48555986D01*
X137764095Y-48526484D01*
X137742192Y-48501206D01*
X137651723Y-48362734D01*
X137651715Y-48362723D01*
X137499243Y-48197097D01*
X137499238Y-48197092D01*
X137321577Y-48058812D01*
X137321572Y-48058808D01*
X137123580Y-47951661D01*
X137123577Y-47951659D01*
X137123574Y-47951658D01*
X137123571Y-47951657D01*
X137123569Y-47951656D01*
X136910637Y-47878556D01*
X136688569Y-47841500D01*
X136463431Y-47841500D01*
X136241362Y-47878556D01*
X136028430Y-47951656D01*
X136028419Y-47951661D01*
X135830427Y-48058808D01*
X135830422Y-48058812D01*
X135652761Y-48197092D01*
X135652756Y-48197097D01*
X135500284Y-48362723D01*
X135500276Y-48362734D01*
X135409808Y-48501206D01*
X135356662Y-48546562D01*
X135287431Y-48555986D01*
X135224095Y-48526484D01*
X135202192Y-48501206D01*
X135111723Y-48362734D01*
X135111715Y-48362723D01*
X134959243Y-48197097D01*
X134959238Y-48197092D01*
X134781577Y-48058812D01*
X134781572Y-48058808D01*
X134583580Y-47951661D01*
X134583577Y-47951659D01*
X134583574Y-47951658D01*
X134583571Y-47951657D01*
X134583569Y-47951656D01*
X134370637Y-47878556D01*
X134148569Y-47841500D01*
X133923431Y-47841500D01*
X133701362Y-47878556D01*
X133488430Y-47951656D01*
X133488419Y-47951661D01*
X133290427Y-48058808D01*
X133290422Y-48058812D01*
X133112761Y-48197092D01*
X133112756Y-48197097D01*
X132960284Y-48362723D01*
X132960276Y-48362734D01*
X132869808Y-48501206D01*
X132816662Y-48546562D01*
X132747431Y-48555986D01*
X132684095Y-48526484D01*
X132662192Y-48501206D01*
X132571723Y-48362734D01*
X132571715Y-48362723D01*
X132419243Y-48197097D01*
X132419238Y-48197092D01*
X132241577Y-48058812D01*
X132241572Y-48058808D01*
X132043580Y-47951661D01*
X132043577Y-47951659D01*
X132043574Y-47951658D01*
X132043571Y-47951657D01*
X132043569Y-47951656D01*
X131830637Y-47878556D01*
X131608569Y-47841500D01*
X131383431Y-47841500D01*
X131161362Y-47878556D01*
X130948430Y-47951656D01*
X130948419Y-47951661D01*
X130750427Y-48058808D01*
X130750422Y-48058812D01*
X130572761Y-48197092D01*
X130572756Y-48197097D01*
X130420284Y-48362723D01*
X130420276Y-48362734D01*
X130329808Y-48501206D01*
X130276662Y-48546562D01*
X130207431Y-48555986D01*
X130144095Y-48526484D01*
X130122192Y-48501206D01*
X130031723Y-48362734D01*
X130031715Y-48362723D01*
X129879243Y-48197097D01*
X129879238Y-48197092D01*
X129701577Y-48058812D01*
X129701572Y-48058808D01*
X129503580Y-47951661D01*
X129503577Y-47951659D01*
X129503574Y-47951658D01*
X129503571Y-47951657D01*
X129503569Y-47951656D01*
X129290637Y-47878556D01*
X129068569Y-47841500D01*
X128843431Y-47841500D01*
X128621362Y-47878556D01*
X128408430Y-47951656D01*
X128408419Y-47951661D01*
X128210427Y-48058808D01*
X128210422Y-48058812D01*
X128032761Y-48197092D01*
X128032756Y-48197097D01*
X127880284Y-48362723D01*
X127880276Y-48362734D01*
X127786251Y-48506650D01*
X127733105Y-48552007D01*
X127663873Y-48561430D01*
X127600538Y-48531928D01*
X127580868Y-48509951D01*
X127454113Y-48328926D01*
X127454108Y-48328920D01*
X127287082Y-48161894D01*
X127093578Y-48026399D01*
X126879492Y-47926570D01*
X126879486Y-47926567D01*
X126666000Y-47869364D01*
X126666000Y-48766988D01*
X126608993Y-48734075D01*
X126481826Y-48700000D01*
X126350174Y-48700000D01*
X126223007Y-48734075D01*
X126166000Y-48766988D01*
X126166000Y-47869364D01*
X126165999Y-47869364D01*
X125952513Y-47926567D01*
X125952507Y-47926570D01*
X125738422Y-48026399D01*
X125738420Y-48026400D01*
X125544926Y-48161886D01*
X125544920Y-48161891D01*
X125377891Y-48328920D01*
X125377890Y-48328922D01*
X125251131Y-48509952D01*
X125196554Y-48553577D01*
X125127055Y-48560769D01*
X125064701Y-48529247D01*
X125045752Y-48506656D01*
X124951722Y-48362732D01*
X124951715Y-48362725D01*
X124951715Y-48362723D01*
X124799243Y-48197097D01*
X124799238Y-48197092D01*
X124621577Y-48058812D01*
X124621572Y-48058808D01*
X124423580Y-47951661D01*
X124423577Y-47951659D01*
X124423574Y-47951658D01*
X124423571Y-47951657D01*
X124423569Y-47951656D01*
X124210637Y-47878556D01*
X123988569Y-47841500D01*
X123763431Y-47841500D01*
X123541362Y-47878556D01*
X123328430Y-47951656D01*
X123328419Y-47951661D01*
X123130427Y-48058808D01*
X123130422Y-48058812D01*
X122952761Y-48197092D01*
X122952756Y-48197097D01*
X122800284Y-48362723D01*
X122800276Y-48362734D01*
X122709808Y-48501206D01*
X122656662Y-48546562D01*
X122587431Y-48555986D01*
X122524095Y-48526484D01*
X122502192Y-48501206D01*
X122411723Y-48362734D01*
X122411715Y-48362723D01*
X122259243Y-48197097D01*
X122259238Y-48197092D01*
X122081577Y-48058812D01*
X122081572Y-48058808D01*
X121883580Y-47951661D01*
X121883577Y-47951659D01*
X121883574Y-47951658D01*
X121883571Y-47951657D01*
X121883569Y-47951656D01*
X121670637Y-47878556D01*
X121448569Y-47841500D01*
X121223431Y-47841500D01*
X121001362Y-47878556D01*
X120788430Y-47951656D01*
X120788419Y-47951661D01*
X120590427Y-48058808D01*
X120590422Y-48058812D01*
X120412761Y-48197092D01*
X120349548Y-48265760D01*
X120289661Y-48301750D01*
X120219823Y-48299649D01*
X120162207Y-48260124D01*
X120142138Y-48225110D01*
X120096889Y-48103796D01*
X120063214Y-48058812D01*
X120009261Y-47986739D01*
X119892204Y-47899111D01*
X119755203Y-47848011D01*
X119694654Y-47841500D01*
X119694638Y-47841500D01*
X117897362Y-47841500D01*
X117897345Y-47841500D01*
X117836797Y-47848011D01*
X117836795Y-47848011D01*
X117699795Y-47899111D01*
X117582739Y-47986739D01*
X117495111Y-48103795D01*
X117444011Y-48240795D01*
X117444011Y-48240797D01*
X117437500Y-48301345D01*
X117437500Y-50098654D01*
X100500500Y-50098654D01*
X100500500Y-47431757D01*
X100502025Y-47412370D01*
X100510228Y-47360580D01*
X100522211Y-47323700D01*
X100541529Y-47285785D01*
X100564326Y-47254409D01*
X100594409Y-47224326D01*
X100625785Y-47201529D01*
X100663700Y-47182211D01*
X100700580Y-47170228D01*
X100752370Y-47162025D01*
X100771757Y-47160500D01*
X100827892Y-47160500D01*
X163241324Y-47160500D01*
X163308363Y-47180185D01*
G37*
%TD.AperFunction*%
%TD*%
M02*
